<?xml version="1.0" encoding="UTF-8"?> <svg xmlns="http://www.w3.org/2000/svg" width="206" height="148" viewBox="0 0 206 148" fill="none"><g clip-path="url(#clip0_310_4)"><g opacity="0.5"><g clip-path="url(#clip1_310_4)"><path d="M111.02 19.9875L114.673 19.4627C114.885 19.4335 115.101 19.4838 115.278 19.6041C115.456 19.7244 115.583 19.906 115.634 20.1141C115.686 20.3222 115.659 20.542 115.558 20.7313C115.457 20.9206 115.29 21.066 115.089 21.1395L106.964 24.1075C106.59 24.2445 106.279 24.5155 106.092 24.8681C105.905 25.2207 105.856 25.6299 105.953 26.017C105.958 26.035 105.957 26.0538 105.963 26.0726C106.082 26.4836 106.359 26.8307 106.734 27.0378C107.109 27.2449 107.55 27.2951 107.962 27.1774L115.305 25.0779C115.512 25.019 115.733 25.0362 115.928 25.1262C116.124 25.2163 116.28 25.3733 116.37 25.5688C116.46 25.7644 116.476 25.9855 116.417 26.1924C116.358 26.3992 116.227 26.578 116.047 26.6964L106.762 32.797C106.478 32.9835 106.253 33.2474 106.113 33.5568C105.972 33.8662 105.922 34.2092 105.969 34.5458C105.98 34.6308 105.997 34.715 106.02 34.7977C106.152 35.2553 106.459 35.6421 106.876 35.8733C107.292 36.1045 107.783 36.1614 108.241 36.0314C109.083 35.7909 109.873 35.3975 110.572 34.871L117.775 29.45C118.064 29.2331 118.389 29.0711 118.736 28.9721C118.947 28.9102 119.172 28.918 119.377 28.9945C119.583 29.0709 119.758 29.2118 119.877 29.3961C119.996 29.5805 120.052 29.7983 120.036 30.0171C120.021 30.2358 119.935 30.4438 119.792 30.6098L113.552 37.9511C113.265 38.2947 113.1 38.7247 113.083 39.1721C113.068 39.3929 113.089 39.6148 113.146 39.8287C113.294 40.3478 113.643 40.7868 114.115 41.0489C114.587 41.3111 115.144 41.3749 115.663 41.2265L116.002 41.1296C116.46 40.9995 116.857 40.7133 117.126 40.3207L123.319 31.2168C123.486 30.9724 123.732 30.794 124.017 30.7126C124.227 30.6525 124.45 30.6561 124.658 30.7228C124.866 30.7896 125.05 30.9166 125.185 31.0877C125.321 31.2589 125.404 31.4663 125.422 31.6841C125.439 31.9019 125.392 32.1201 125.286 32.3111L122.238 38.8462C122.1 39.1427 122.049 39.4728 122.093 39.7971C122.137 40.1214 122.274 40.4262 122.486 40.6751C122.699 40.9241 122.978 41.1067 123.291 41.2012C123.605 41.2958 123.939 41.2982 124.253 41.2082L124.328 41.1867C124.51 41.1334 124.682 41.0499 124.837 40.9397C124.978 40.8421 125.103 40.7249 125.209 40.5904C125.678 39.4656 126.193 38.3658 126.754 37.2927C130.821 29.4821 137.205 23.1214 145.03 19.0834L146.063 18.5507C146.598 17.982 147.412 15.8344 147.197 15.0425C146.982 14.2506 145.147 12.5833 144.657 12.4833C144.168 12.3834 142.897 12.2469 142.108 12.4737L131.211 15.8644C127.922 16.8047 124.496 17.4562 121.103 17.8853C117.769 18.3069 114.427 19.0217 111.193 19.9383C111.135 19.9546 111.077 19.971 111.02 19.9875C111.141 20.2027 110.799 19.8769 111.02 19.9875C111.241 20.0981 110.775 20.0193 111.02 19.9875Z" fill="#BCDDD5"></path><path fill-rule="evenodd" clip-rule="evenodd" d="M146.06 18.5526L146.063 18.5507C146.598 17.982 147.412 15.8344 147.197 15.0425C146.982 14.2506 145.147 12.5833 144.657 12.4833C144.168 12.3834 142.897 12.2469 142.108 12.4737L131.211 15.8644C127.922 16.8047 124.496 17.4562 121.103 17.8853C117.769 18.3069 114.427 19.0217 111.193 19.9383L114.672 19.4604C114.879 19.4319 115.09 19.479 115.265 19.5931C115.44 19.7072 115.568 19.8806 115.626 20.0816C115.686 20.2928 115.664 20.519 115.564 20.7147C115.464 20.9104 115.294 21.061 115.088 21.1364L106.963 24.1015C106.578 24.2416 106.261 24.5223 106.075 24.8869C105.889 25.2515 105.849 25.6731 105.961 26.0665C106.079 26.4791 106.356 26.8279 106.731 27.0363C107.106 27.2446 107.549 27.2954 107.962 27.1774L115.305 25.0779C115.534 25.0122 115.781 25.0405 115.99 25.1565C116.199 25.2725 116.353 25.4667 116.418 25.6964C116.471 25.8809 116.463 26.0774 116.397 26.2572C116.33 26.437 116.207 26.5909 116.047 26.6964L106.762 32.797C106.442 33.0078 106.197 33.3156 106.063 33.6755C105.929 34.0354 105.914 34.4286 106.02 34.7977C106.152 35.2553 106.459 35.6421 106.876 35.8733C107.292 36.1045 107.783 36.1614 108.241 36.0314C109.083 35.7909 109.873 35.3975 110.572 34.871L117.775 29.45C118.064 29.2331 118.389 29.0711 118.736 28.9721C118.995 28.8981 119.273 28.9299 119.509 29.0607C119.744 29.1915 119.918 29.4104 119.992 29.6694C120.038 29.8305 120.043 30.0005 120.008 30.1642C119.973 30.3279 119.898 30.4804 119.789 30.6082L113.552 37.9511C113.335 38.2065 113.184 38.5115 113.114 38.839C113.043 39.1665 113.054 39.5065 113.146 39.8287C113.294 40.3478 113.643 40.7868 114.115 41.0489C114.587 41.3111 115.144 41.3749 115.663 41.2265L116.002 41.1296C116.46 40.9995 116.857 40.7133 117.126 40.3207L123.319 31.2168C123.486 30.9724 123.732 30.794 124.017 30.7126C124.156 30.6727 124.302 30.6607 124.446 30.6773C124.59 30.6938 124.73 30.7386 124.857 30.809C124.984 30.8794 125.095 30.9741 125.185 31.0877C125.276 31.2013 125.343 31.3316 125.383 31.4711C125.463 31.7528 125.428 32.0549 125.286 32.3111L122.238 38.8462C122.064 39.2187 122.031 39.6415 122.144 40.0367C122.268 40.4718 122.56 40.8397 122.956 41.0594C123.351 41.2791 123.818 41.3326 124.253 41.2082L124.328 41.1867C124.678 41.0867 124.986 40.8778 125.209 40.5904C129.075 31.3112 136.094 23.6952 145.027 19.0852L146.06 18.5526Z" fill="#BCDDD5"></path><path d="M146.357 10.2986C147.431 10.8954 148.225 11.8945 148.563 13.0763C148.866 14.1376 148.781 15.2723 148.322 16.2762C147.863 17.2801 147.061 18.0874 146.06 18.5526L146.063 18.5507C146.598 17.982 147.412 15.8344 147.197 15.0425C146.982 14.2506 145.147 12.5833 144.657 12.4833C144.168 12.3834 142.897 12.2469 142.108 12.4737L131.211 15.8644C127.922 16.8047 124.496 17.4562 121.103 17.8853C117.769 18.3069 114.427 19.0217 111.193 19.9383L111.024 19.9615C110.725 20.0024 110.421 19.9342 110.168 19.7692C109.915 19.6043 109.73 19.3536 109.647 19.0633C109.601 18.9048 109.588 18.7388 109.606 18.575C109.625 18.4112 109.676 18.2527 109.756 18.1085C109.836 17.9643 109.944 17.8374 110.073 17.7349C110.202 17.6323 110.35 17.5563 110.509 17.5111L111.122 17.3356C114.411 16.3953 117.766 15.7076 121.159 15.2785C124.552 14.8494 127.908 14.1617 131.196 13.2215L142.833 9.89438C144.015 9.55651 145.282 9.70192 146.357 10.2986Z" fill="#BCDDD5"></path></g><path d="M146.357 10.2987C147.431 10.8954 148.225 11.8945 148.563 13.0763C148.866 14.1376 148.781 15.2723 148.322 16.2763C147.863 17.2802 147.061 18.0874 146.06 18.5526C146.06 18.5526 146.06 18.5526 146.06 18.5526L145.03 19.0835L145.027 19.0853C136.094 23.6953 129.075 31.3113 125.209 40.5904C125.103 40.7249 124.978 40.8422 124.837 40.9398C124.682 41.0499 124.51 41.1334 124.328 41.1868L124.253 41.2083C123.818 41.3327 123.351 41.2791 122.956 41.0594C123.424 38.764 126.915 31.7451 132.123 25.6262C137.332 19.5073 141.516 18.3517 144.632 16.6639C147.749 14.976 147.998 12.2902 146.357 10.2987Z" fill="#A6D1C7"></path><path d="M148.563 13.0763C148.225 11.8945 147.431 10.8954 146.357 10.2987C147.998 12.2902 147.749 14.976 144.632 16.6639C141.516 18.3517 137.332 19.5073 132.123 25.6262C126.915 31.7451 123.424 38.764 122.956 41.0594C123.351 41.2791 123.818 41.3327 124.253 41.2083L124.328 41.1868C124.678 41.0868 124.986 40.8778 125.209 40.5904C125.678 39.4656 126.193 38.3659 126.754 37.2927C130.82 29.4822 137.205 23.1215 145.03 19.0835L146.06 18.5526C146.06 18.5526 146.06 18.5526 146.06 18.5526C147.061 18.0874 147.863 17.2802 148.322 16.2763C148.781 15.2723 148.866 14.1376 148.563 13.0763Z" fill="#A6D1C7"></path><g clip-path="url(#clip2_310_4)"><path d="M195.75 32.7563C196.552 33.6882 196.95 34.9004 196.858 36.126C196.766 37.3516 196.19 38.4904 195.258 39.2918L186.081 47.1832C183.488 49.4131 181.069 51.8378 178.845 54.4362C176.621 57.0347 174.202 59.4594 171.609 61.6893L171.125 62.1055C171 62.213 170.855 62.295 170.699 62.3465C170.542 62.398 170.377 62.4182 170.212 62.4058C170.048 62.3934 169.887 62.3487 169.74 62.2743C169.593 62.1999 169.462 62.0972 169.355 61.9721C169.158 61.743 169.05 61.4507 169.051 61.1487C169.053 60.8467 169.163 60.5553 169.362 60.3278L171.786 57.556C171.923 57.3987 172 57.197 172.001 56.9879C172.002 56.7789 171.927 56.5765 171.791 56.4179C171.648 56.2515 171.447 56.1456 171.228 56.1213C171.01 56.0971 170.791 56.1563 170.614 56.2872L163.671 61.4444C163.342 61.6885 162.933 61.7991 162.527 61.7539C162.12 61.7086 161.745 61.5109 161.478 61.2006C161.199 60.8753 161.06 60.4521 161.092 60.0242C161.124 59.5963 161.325 59.1987 161.65 58.9189L167.441 53.9392C167.622 53.7834 167.734 53.5621 167.752 53.3238C167.77 53.0856 167.693 52.85 167.537 52.6689C167.412 52.5236 167.243 52.422 167.056 52.3789C166.869 52.3358 166.673 52.3535 166.497 52.4294L156.297 56.8311C155.944 56.9832 155.553 57.0186 155.179 56.9324C154.804 56.8461 154.468 56.6426 154.217 56.3515C153.908 55.9897 153.754 55.52 153.79 55.0451C153.825 54.5702 154.048 54.1288 154.408 53.8175C155.072 53.2468 155.835 52.803 156.659 52.5084L165.147 49.4719C165.487 49.3503 165.801 49.1672 166.075 48.9318C166.279 48.7562 166.405 48.5066 166.425 48.238C166.446 47.9694 166.358 47.7038 166.183 47.4996C166.073 47.3726 165.934 47.2746 165.778 47.2141C165.622 47.1537 165.453 47.1326 165.287 47.1529L155.724 48.3263C155.392 48.3671 155.054 48.3251 154.742 48.2042C154.429 48.0833 154.151 47.887 153.933 47.633C153.581 47.2236 153.406 46.6911 153.446 46.1526C153.487 45.6142 153.74 45.1139 154.149 44.7618L154.416 44.5321C154.776 44.2214 155.234 44.0466 155.71 44.0379L166.719 43.8698C167.015 43.865 167.3 43.7569 167.524 43.5642C167.634 43.4696 167.724 43.3543 167.79 43.2248C167.855 43.0953 167.894 42.9542 167.905 42.8095C167.916 42.6649 167.898 42.5195 167.853 42.3817C167.808 42.2439 167.736 42.1163 167.641 42.0063C167.45 41.7842 167.179 41.647 166.887 41.6249L159.752 40.5784C159.345 40.5189 158.974 40.3144 158.705 40.0027C158.41 39.6596 158.264 39.2133 158.298 38.7621C158.332 38.3108 158.544 37.8916 158.887 37.5965L158.946 37.5456C159.222 37.3086 159.566 37.1656 159.928 37.1376C169.805 39.0094 180.025 37.3339 188.787 32.4064L189.8 31.8362C190.739 31.2558 191.854 31.0296 192.945 31.1983C194.036 31.367 195.031 31.9195 195.75 32.7563Z" fill="#A6D1C7"></path><path d="M169.337 60.317L171.784 57.5542C171.925 57.3928 172.002 57.1849 171.999 56.9706C171.996 56.7562 171.914 56.5504 171.769 56.3929C171.623 56.2354 171.425 56.1372 171.211 56.1172C170.998 56.0973 170.784 56.157 170.612 56.2848L169.781 56.9025L163.666 61.4396C163.346 61.6773 162.949 61.7879 162.552 61.7502C162.154 61.7124 161.785 61.5288 161.515 61.235C161.503 61.2207 161.487 61.2107 161.474 61.1959C161.197 60.8703 161.059 60.4478 161.092 60.0211C161.125 59.5943 161.326 59.198 161.65 58.9189L167.441 53.9392C167.604 53.7987 167.711 53.6045 167.744 53.3918C167.776 53.1791 167.731 52.9619 167.617 52.7795C167.503 52.5971 167.327 52.4615 167.122 52.3973C166.916 52.3331 166.695 52.3445 166.497 52.4294L165.513 52.8544L156.296 56.8305C155.985 56.9653 155.641 57.0088 155.305 56.9561C154.969 56.9033 154.655 56.7565 154.4 56.5326C154.335 56.4765 154.274 56.416 154.217 56.3515C153.908 55.9897 153.754 55.52 153.79 55.0451C153.825 54.5702 154.048 54.1288 154.408 53.8175C155.072 53.2468 155.835 52.8031 156.659 52.5084L165.147 49.4719C165.487 49.3503 165.801 49.1672 166.075 48.9318C166.242 48.7901 166.359 48.598 166.408 48.3843C166.457 48.1706 166.436 47.9467 166.348 47.7461C166.259 47.5456 166.108 47.379 165.917 47.2715C165.725 47.164 165.505 47.1212 165.287 47.1496L163.961 47.3123L155.724 48.3257C155.279 48.3766 154.83 48.2783 154.447 48.0462C154.254 47.9379 154.08 47.7982 153.933 47.633C153.581 47.2236 153.406 46.6911 153.446 46.1526C153.487 45.6142 153.74 45.1139 154.149 44.7618L154.416 44.5321C154.776 44.2214 155.234 44.0466 155.71 44.0379L166.719 43.8698C167.015 43.865 167.3 43.7569 167.524 43.5642C167.69 43.4217 167.809 43.2333 167.868 43.0228C167.927 42.8123 167.921 42.5892 167.853 42.3816C167.785 42.174 167.657 41.9913 167.485 41.8566C167.313 41.7219 167.104 41.6412 166.887 41.6249L159.752 40.5784C159.428 40.531 159.125 40.3914 158.878 40.1764C158.631 39.9614 158.452 39.6799 158.361 39.3656C158.269 39.0514 158.27 38.7175 158.364 38.4038C158.457 38.0901 158.639 37.8099 158.887 37.5965L158.946 37.5456C159.091 37.4228 159.255 37.325 159.432 37.2564C159.591 37.1926 159.758 37.1527 159.929 37.1382C161.126 37.365 162.327 37.5391 163.532 37.6605C172.292 38.5573 181.115 36.7213 188.79 32.4045L189.803 31.8343C190.572 31.7006 192.814 32.2009 193.357 32.8159C193.901 33.4309 194.285 35.8802 194.099 36.3444C193.913 36.8086 193.328 37.9453 192.705 38.4793L183.882 45.718C181.289 47.9479 178.861 50.4518 176.637 53.0502C174.413 55.6486 171.931 58.0871 169.337 60.317C169.224 60.0974 169.308 60.5623 169.337 60.317C169.367 60.0718 169.176 60.5042 169.337 60.317Z" fill="#BCDDD5"></path></g></g><g opacity="0.5"><g clip-path="url(#clip3_310_4)"><path d="M10.2247 96.7469L13.8673 96.1543C14.0791 96.1211 14.2957 96.1675 14.4754 96.2844C14.6551 96.4014 14.7853 96.5807 14.8407 96.7878C14.8962 96.9949 14.8732 97.2152 14.776 97.4063C14.6788 97.5974 14.5144 97.7458 14.3144 97.823L6.24647 100.941C5.87432 101.085 5.56865 101.362 5.38841 101.718C5.20817 102.074 5.16613 102.484 5.27037 102.869C5.27586 102.887 5.27589 102.906 5.28161 102.925C5.40847 103.334 5.69216 103.675 6.07054 103.875C6.44893 104.076 6.89118 104.118 7.30047 103.992L14.6035 101.757C14.8093 101.694 15.0307 101.707 15.2277 101.794C15.4248 101.88 15.5843 102.034 15.6776 102.228C15.7709 102.422 15.7918 102.643 15.7364 102.85C15.681 103.058 15.553 103.239 15.3757 103.361L6.20594 109.633C5.92539 109.825 5.70518 110.093 5.57045 110.405C5.43572 110.717 5.3922 111.061 5.44496 111.396C5.45764 111.481 5.47621 111.565 5.50054 111.647C5.64093 112.102 5.95586 112.483 6.37644 112.707C6.79702 112.93 7.28898 112.978 7.74467 112.84C8.58165 112.583 9.36436 112.175 10.0537 111.636L17.1547 106.082C17.439 105.86 17.7617 105.692 18.1068 105.587C18.316 105.521 18.5409 105.524 18.7478 105.597C18.9547 105.67 19.1326 105.807 19.2548 105.989C19.377 106.172 19.437 106.388 19.4258 106.607C19.4147 106.826 19.3329 107.036 19.1927 107.204L13.0898 114.66C12.8091 115.009 12.6526 115.442 12.6442 115.89C12.6327 116.111 12.658 116.332 12.719 116.545C12.877 117.061 13.2337 117.494 13.7106 117.747C14.1874 118 14.7454 118.054 15.2617 117.896L15.5986 117.793C16.0537 117.654 16.446 117.361 16.7074 116.963L22.7303 107.746C22.8923 107.498 23.1358 107.315 23.4185 107.229C23.6275 107.165 23.8507 107.164 24.06 107.227C24.2692 107.29 24.455 107.414 24.594 107.582C24.7331 107.751 24.8192 107.957 24.8412 108.174C24.8631 108.391 24.8201 108.611 24.7176 108.803L21.7911 115.394C21.6582 115.693 21.6142 116.024 21.6642 116.347C21.7142 116.671 21.8562 116.973 22.0732 117.218C22.2902 117.463 22.573 117.64 22.888 117.729C23.203 117.818 23.5369 117.814 23.8498 117.718L23.9245 117.695C24.1057 117.639 24.276 117.552 24.4286 117.439C24.5674 117.339 24.6908 117.219 24.7942 117.083C25.242 115.949 25.7362 114.84 26.2771 113.757C30.1983 105.872 36.4633 99.3941 44.2125 95.2114L45.2357 94.6597C45.7593 94.0811 46.5338 91.9188 46.3041 91.131C46.0744 90.3432 44.2089 88.7102 43.7172 88.6194C43.2256 88.5286 41.9523 88.4157 41.168 88.6571L30.3355 92.2496C27.0651 93.2507 23.6516 93.9657 20.267 94.4578C16.9418 94.9412 13.6138 95.7179 10.3967 96.6944C10.3394 96.7118 10.282 96.7293 10.2247 96.7469C10.35 96.9597 10.0019 96.6404 10.2247 96.7469C10.4476 96.8533 9.98043 96.7832 10.2247 96.7469Z" fill="#BCDDD5"></path><path fill-rule="evenodd" clip-rule="evenodd" d="M45.2322 94.6616L45.2357 94.6597C45.7593 94.0811 46.5338 91.9188 46.3041 91.131C46.0744 90.3432 44.2089 88.7102 43.7172 88.6194C43.2256 88.5286 41.9523 88.4157 41.168 88.6571L30.3355 92.2496C27.0651 93.2507 23.6516 93.9657 20.267 94.4578C16.9418 94.9412 13.6138 95.7179 10.3967 96.6944L13.8666 96.152C14.0732 96.1197 14.2844 96.1629 14.4617 96.2737C14.6389 96.3845 14.7702 96.5555 14.8316 96.7554C14.8957 96.9655 14.8779 97.192 14.7818 97.3895C14.6856 97.587 14.5184 97.7408 14.3135 97.8201L6.24464 100.935C5.86279 101.083 5.55094 101.369 5.3719 101.737C5.19286 102.105 5.15995 102.527 5.27978 102.919C5.40538 103.329 5.68883 103.673 6.06779 103.874C6.44674 104.075 6.89015 104.118 7.30047 103.992L14.6035 101.757C14.8319 101.687 15.0788 101.711 15.2898 101.823C15.5007 101.935 15.6585 102.126 15.7285 102.354C15.7844 102.538 15.7804 102.735 15.7169 102.916C15.6535 103.097 15.5339 103.253 15.3757 103.361L6.20594 109.633C5.8891 109.85 5.64978 110.162 5.52289 110.525C5.396 110.887 5.38817 111.28 5.50054 111.647C5.64093 112.102 5.95586 112.483 6.37644 112.707C6.79702 112.93 7.28898 112.978 7.74467 112.84C8.58165 112.583 9.36436 112.175 10.0537 111.636L17.1547 106.082C17.439 105.86 17.7617 105.692 18.1068 105.587C18.3644 105.508 18.6427 105.534 18.8806 105.661C19.1184 105.787 19.2964 106.003 19.3752 106.26C19.4241 106.421 19.4328 106.591 19.4004 106.755C19.3681 106.919 19.2958 107.073 19.1898 107.203L13.0898 114.66C12.8776 114.92 12.7328 115.227 12.6681 115.556C12.6034 115.885 12.6209 116.225 12.719 116.545C12.877 117.061 13.2337 117.494 13.7106 117.747C14.1874 118 14.7454 118.054 15.2617 117.896L15.5986 117.793C16.0537 117.654 16.446 117.361 16.7074 116.963L22.7303 107.746C22.8923 107.498 23.1358 107.315 23.4185 107.229C23.5572 107.186 23.703 107.172 23.8474 107.185C23.9918 107.199 24.132 107.241 24.2602 107.31C24.3883 107.378 24.5017 107.47 24.594 107.582C24.6863 107.694 24.7557 107.823 24.7982 107.962C24.8839 108.242 24.8549 108.545 24.7176 108.803L21.7911 115.394C21.6242 115.77 21.5986 116.193 21.7189 116.586C21.8513 117.019 22.1503 117.381 22.5499 117.593C22.9495 117.806 23.4171 117.851 23.8498 117.718L23.9245 117.695C24.2722 117.589 24.5769 117.374 24.7942 117.083C28.4875 107.733 35.3632 99.9884 44.209 95.2133L45.2322 94.6616Z" fill="#BCDDD5"></path><path d="M45.3757 86.4036C46.4611 86.9802 47.273 87.9645 47.6328 89.1397C47.9558 90.1952 47.8915 91.3313 47.4514 92.3436C47.0113 93.3559 46.2243 94.1779 45.2322 94.6616L45.2357 94.6597C45.7593 94.0811 46.5338 91.9188 46.3041 91.131C46.0744 90.3432 44.2089 88.7102 43.7172 88.6194C43.2256 88.5286 41.9523 88.4157 41.168 88.6571L30.3355 92.2496C27.0651 93.2507 23.6516 93.9657 20.267 94.4578C16.9418 94.9412 13.6138 95.7179 10.3967 96.6944L10.2284 96.7207C9.93004 96.7673 9.62486 96.7047 9.36887 96.5444C9.11288 96.3842 8.92323 96.137 8.8347 95.8483C8.78633 95.6906 8.76952 95.525 8.78522 95.3608C8.80091 95.1967 8.84882 95.0373 8.92618 94.8916C9.00355 94.746 9.10886 94.6171 9.2361 94.5122C9.36333 94.4073 9.51 94.3285 9.66771 94.2803L10.278 94.0935C13.5484 93.0923 16.8904 92.3425 20.2749 91.8504C23.6595 91.3584 27.0015 90.6085 30.2718 89.6074L41.8449 86.0648C43.0202 85.705 44.2902 85.8269 45.3757 86.4036Z" fill="#BCDDD5"></path></g><path d="M45.3753 86.4035C46.4608 86.9802 47.2727 87.9644 47.6324 89.1397C47.9554 90.1952 47.8911 91.3313 47.451 92.3436C47.0109 93.3559 46.224 94.1778 45.2319 94.6615C45.2318 94.6615 45.2318 94.6615 45.2318 94.6616L44.2122 95.2114L44.2086 95.2133C35.3628 99.9884 28.4871 107.733 24.7939 117.083C24.6905 117.219 24.5671 117.339 24.4282 117.439C24.2757 117.552 24.1053 117.639 23.9242 117.695L23.8495 117.718C23.4168 117.851 22.9492 117.806 22.5495 117.593C22.9747 115.29 26.3347 108.207 31.4289 101.993C36.5232 95.7781 40.6847 94.5451 43.7694 92.7996C46.8542 91.0542 47.0537 88.3642 45.3753 86.4035Z" fill="#A6D1C7"></path><path d="M47.6324 89.1397C47.2727 87.9644 46.4608 86.9802 45.3753 86.4035C47.0537 88.3642 46.8542 91.0542 43.7694 92.7996C40.6847 94.5451 36.5232 95.7781 31.4289 101.993C26.3347 108.207 22.9747 115.29 22.5495 117.593C22.9492 117.806 23.4168 117.851 23.8495 117.718L23.9242 117.695C24.2719 117.589 24.5765 117.374 24.7939 117.083C25.2417 115.949 25.7358 114.84 26.2768 113.757C30.1979 105.872 36.463 99.394 44.2122 95.2114L45.2318 94.6616C45.2318 94.6615 45.2318 94.6615 45.2319 94.6615C46.224 94.1778 47.0109 93.3559 47.451 92.3436C47.8911 91.3313 47.9554 90.1952 47.6324 89.1397Z" fill="#A6D1C7"></path><g clip-path="url(#clip4_310_4)"><path d="M94.1252 105.922C94.9438 106.839 95.3646 108.043 95.2951 109.271C95.2255 110.498 94.6714 111.647 93.7545 112.466L84.7259 120.526C82.1745 122.804 79.8008 125.273 77.6256 127.912C75.4504 130.551 73.0767 133.021 70.5253 135.298L70.0492 135.723C69.9262 135.833 69.7828 135.918 69.6272 135.972C69.4715 136.027 69.3067 136.05 69.142 136.041C68.9774 136.031 68.8162 135.99 68.6677 135.918C68.5192 135.846 68.3863 135.746 68.2765 135.623C68.0755 135.398 67.9624 135.107 67.9581 134.805C67.9538 134.503 68.0584 134.21 68.2529 133.979L70.6252 131.162C70.7599 131.003 70.8325 130.8 70.8296 130.59C70.8267 130.381 70.7485 130.18 70.6094 130.024C70.463 129.861 70.26 129.759 70.0413 129.738C69.8226 129.718 69.6043 129.781 69.4304 129.916L62.5836 135.201C62.2597 135.451 61.8531 135.569 61.4455 135.531C61.038 135.494 60.6599 135.303 60.3874 134.998C60.1016 134.678 59.9547 134.257 59.979 133.829C60.0032 133.4 60.1967 132.999 60.5168 132.713L66.2142 127.627C66.3924 127.468 66.5001 127.244 66.5136 127.006C66.5271 126.767 66.4454 126.533 66.2862 126.355C66.1583 126.212 65.9881 126.114 65.8004 126.074C65.6127 126.034 65.4172 126.056 65.2424 126.135L55.1257 130.725C54.776 130.884 54.3849 130.927 54.0093 130.847C53.6337 130.768 53.2932 130.571 53.0375 130.284C52.7211 129.928 52.5586 129.462 52.5856 128.986C52.6125 128.511 52.8267 128.065 53.1813 127.747C53.8342 127.164 54.5888 126.706 55.4074 126.397L63.8377 123.203C64.1751 123.075 64.4861 122.886 64.7551 122.646C64.9561 122.466 65.0775 122.215 65.0927 121.946C65.108 121.677 65.0158 121.413 64.8364 121.212C64.7247 121.087 64.584 120.991 64.4267 120.934C64.2693 120.876 64.1002 120.858 63.9344 120.882L54.3951 122.233C54.0633 122.279 53.725 122.244 53.4103 122.129C53.0956 122.014 52.8142 121.823 52.591 121.573C52.2314 121.17 52.0466 120.641 52.0771 120.102C52.1077 119.562 52.3511 119.058 52.7539 118.698L53.0167 118.463C53.3712 118.146 53.8256 117.963 54.301 117.945L65.3054 117.573C65.6009 117.562 65.8836 117.449 66.1043 117.252C66.2125 117.156 66.3006 117.039 66.3636 116.908C66.4266 116.777 66.4633 116.635 66.4715 116.491C66.4797 116.346 66.4593 116.201 66.4114 116.064C66.3636 115.927 66.2893 115.801 66.1926 115.692C65.9975 115.474 65.7236 115.342 65.4311 115.325L58.2781 114.411C57.8704 114.359 57.4951 114.162 57.2213 113.855C56.9199 113.517 56.765 113.074 56.7906 112.622C56.8162 112.17 57.0202 111.747 57.3578 111.446L57.4161 111.394C57.6874 111.152 58.0288 111.002 58.3908 110.968C68.3004 112.656 78.4878 110.791 87.1566 105.702L88.1588 105.113C89.0868 104.515 90.1976 104.268 91.2914 104.416C92.3852 104.565 93.3901 105.099 94.1252 105.922Z" fill="#A6D1C7"></path><path d="M68.2286 133.968L70.6236 131.161C70.7618 130.997 70.8344 130.787 70.8275 130.573C70.8207 130.359 70.7348 130.155 70.5865 130C70.4382 129.845 70.2378 129.751 70.024 129.735C69.8102 129.719 69.598 129.782 69.4283 129.913L68.609 130.546L62.5794 135.196C62.2634 135.44 61.8684 135.558 61.4705 135.527C61.0726 135.497 60.7001 135.32 60.4248 135.031C60.4123 135.017 60.3962 135.008 60.3832 134.993C60.0994 134.673 59.9541 134.253 59.9791 133.826C60.0042 133.398 60.1975 132.998 60.5168 132.713L66.2142 127.627C66.3745 127.483 66.4781 127.287 66.5064 127.074C66.5346 126.861 66.4856 126.644 66.3682 126.464C66.2508 126.284 66.0727 126.152 65.8663 126.091C65.6598 126.031 65.4385 126.046 65.2424 126.135L64.2662 126.578L55.1251 130.725C54.8157 130.865 54.4728 130.915 54.1362 130.869C53.7996 130.822 53.4831 130.681 53.2233 130.462C53.1574 130.407 53.0953 130.348 53.0375 130.284C52.7211 129.928 52.5586 129.462 52.5856 128.986C52.6125 128.511 52.8267 128.065 53.1813 127.747C53.8342 127.164 54.5888 126.706 55.4074 126.397L63.8377 123.203C64.1751 123.075 64.4861 122.886 64.7551 122.646C64.9198 122.501 65.0333 122.307 65.0784 122.092C65.1236 121.878 65.0981 121.654 65.0058 121.455C64.9134 121.256 64.7592 121.093 64.5661 120.989C64.373 120.885 64.1514 120.846 63.9345 120.878L62.6115 121.066L54.3945 122.232C53.9507 122.291 53.4998 122.201 53.1126 121.976C52.9176 121.871 52.7413 121.735 52.591 121.573C52.2314 121.17 52.0466 120.641 52.0771 120.102C52.1077 119.562 52.3511 119.058 52.7539 118.698L53.0167 118.463C53.3712 118.146 53.8256 117.963 54.301 117.945L65.3054 117.573C65.6009 117.562 65.8836 117.449 66.1043 117.252C66.2673 117.107 66.3835 116.916 66.4382 116.705C66.493 116.493 66.4837 116.27 66.4116 116.064C66.3396 115.857 66.2079 115.677 66.0334 115.546C65.8589 115.414 65.6492 115.337 65.4311 115.325L58.2781 114.411C57.9535 114.37 57.6477 114.236 57.397 114.025C57.1464 113.815 56.9616 113.537 56.8646 113.224C56.7675 112.912 56.7625 112.578 56.8499 112.263C56.9374 111.947 57.1137 111.664 57.3578 111.446L57.4161 111.394C57.5585 111.268 57.7209 111.168 57.8966 111.096C58.0543 111.029 58.221 110.986 58.3913 110.968C59.5926 111.173 60.7967 111.325 62.0036 111.424C70.7788 112.158 79.5663 110.158 87.16 105.7L88.1622 105.111C88.9284 104.963 91.179 105.421 91.7337 106.026C92.2883 106.631 92.7177 109.073 92.5405 109.54C92.3632 110.008 91.7998 111.155 91.1868 111.701L82.4994 119.102C79.948 121.38 77.567 123.928 75.3918 126.567C73.2166 129.207 70.78 131.691 68.2286 133.968C68.1116 133.751 68.2042 134.214 68.2286 133.968C68.2531 133.723 68.071 134.159 68.2286 133.968Z" fill="#BCDDD5"></path></g></g></g><defs><clipPath id="clip0_310_4"><rect width="205.037" height="147.046" fill="white"></rect></clipPath><clipPath id="clip1_310_4"><rect width="46" height="54" fill="white" transform="matrix(0.97983 0.199834 0.199834 -0.97983 100.182 52.9109)"></rect></clipPath><clipPath id="clip2_310_4"><rect width="46" height="54" fill="white" transform="translate(135.877 51.2701) rotate(-68.1764)"></rect></clipPath><clipPath id="clip3_310_4"><rect width="46" height="54" fill="white" transform="matrix(0.983371 0.181607 0.181607 -0.983371 0 129.866)"></rect></clipPath><clipPath id="clip4_310_4"><rect width="46" height="54" fill="white" transform="translate(34.6064 125.544) rotate(-69.2402)"></rect></clipPath></defs></svg> 