<?xml version="1.0" encoding="UTF-8"?> <svg xmlns="http://www.w3.org/2000/svg" width="308" height="188" viewBox="0 0 308 188" fill="none"><g clip-path="url(#clip0_310_27)"><g opacity="0.5"><g clip-path="url(#clip1_310_27)"><path d="M261.905 179.578L261.059 175.986C261.011 175.777 261.043 175.557 261.147 175.37C261.251 175.182 261.42 175.04 261.623 174.97C261.826 174.9 262.047 174.908 262.245 174.992C262.442 175.075 262.602 175.229 262.693 175.423L266.367 183.253C266.537 183.614 266.834 183.9 267.202 184.055C267.57 184.21 267.982 184.223 268.359 184.092C268.376 184.085 268.395 184.084 268.413 184.077C268.812 183.922 269.133 183.615 269.307 183.224C269.48 182.832 269.491 182.388 269.337 181.988L266.597 174.86C266.52 174.659 266.517 174.437 266.59 174.234C266.662 174.032 266.805 173.862 266.991 173.755C267.178 173.649 267.397 173.612 267.608 173.653C267.82 173.694 268.009 173.809 268.143 173.977L275.041 182.686C275.252 182.953 275.534 183.153 275.855 183.266C276.176 183.379 276.522 183.398 276.853 183.322C276.937 183.303 277.019 183.279 277.099 183.249C277.543 183.077 277.901 182.736 278.095 182.301C278.288 181.866 278.302 181.372 278.132 180.927C277.818 180.11 277.356 179.358 276.77 178.708L270.733 172.012C270.492 171.744 270.301 171.434 270.172 171.097C270.092 170.893 270.08 170.668 270.138 170.457C270.196 170.245 270.321 170.058 270.494 169.924C270.667 169.789 270.879 169.714 271.098 169.71C271.317 169.706 271.532 169.773 271.71 169.901L279.574 175.468C279.942 175.723 280.385 175.849 280.832 175.826C281.053 175.822 281.273 175.782 281.481 175.706C281.985 175.512 282.391 175.126 282.61 174.633C282.83 174.139 282.844 173.579 282.65 173.075L282.524 172.746C282.354 172.302 282.034 171.931 281.619 171.698L272.003 166.334C271.745 166.19 271.545 165.96 271.439 165.684C271.361 165.48 271.344 165.257 271.393 165.044C271.441 164.831 271.551 164.637 271.709 164.486C271.868 164.336 272.067 164.235 272.283 164.198C272.498 164.161 272.719 164.189 272.919 164.278L279.698 166.736C280.006 166.848 280.339 166.869 280.658 166.796C280.977 166.724 281.269 166.561 281.498 166.327C281.727 166.094 281.884 165.799 281.951 165.479C282.017 165.158 281.99 164.826 281.873 164.52L281.845 164.447C281.775 164.271 281.677 164.107 281.554 163.962C281.444 163.831 281.316 163.716 281.173 163.622C280.011 163.255 278.87 162.84 277.751 162.376C269.612 159.015 262.712 153.218 257.998 145.78L257.376 144.798C256.762 144.316 254.551 143.695 253.781 143.979C253.011 144.263 251.513 146.238 251.456 146.735C251.4 147.232 251.377 148.51 251.672 149.276L256.013 159.831C257.24 163.023 258.192 166.378 258.92 169.72C259.634 173.003 260.642 176.269 261.841 179.41C261.862 179.466 261.884 179.522 261.905 179.578C262.109 179.438 261.814 179.808 261.905 179.578C261.996 179.348 261.958 179.819 261.905 179.578Z" fill="#BCDDD5"></path><path fill-rule="evenodd" clip-rule="evenodd" d="M257.378 144.802L257.376 144.798C256.762 144.316 254.551 143.695 253.781 143.979C253.011 144.263 251.513 146.238 251.456 146.735C251.4 147.232 251.377 148.51 251.672 149.276L256.013 159.831C257.24 163.023 258.192 166.378 258.92 169.72C259.634 173.003 260.642 176.269 261.841 179.41L261.057 175.986C261.01 175.783 261.039 175.569 261.137 175.384C261.235 175.2 261.396 175.057 261.592 174.982C261.797 174.903 262.024 174.905 262.228 174.987C262.431 175.069 262.596 175.225 262.69 175.424L266.362 183.255C266.535 183.626 266.843 183.917 267.222 184.07C267.602 184.223 268.025 184.226 268.407 184.079C268.808 183.925 269.131 183.619 269.305 183.226C269.48 182.834 269.491 182.389 269.337 181.988L266.597 174.86C266.511 174.637 266.517 174.389 266.614 174.17C266.711 173.952 266.891 173.781 267.114 173.696C267.293 173.627 267.49 173.617 267.675 173.668C267.86 173.718 268.024 173.827 268.143 173.977L275.041 182.686C275.279 182.987 275.607 183.204 275.978 183.305C276.348 183.406 276.741 183.387 277.099 183.249C277.543 183.077 277.901 182.736 278.095 182.301C278.288 181.866 278.302 181.372 278.132 180.927C277.818 180.11 277.356 179.358 276.77 178.708L270.733 172.012C270.492 171.744 270.301 171.434 270.172 171.097C270.076 170.846 270.083 170.566 270.192 170.32C270.302 170.074 270.504 169.881 270.756 169.785C270.912 169.725 271.081 169.704 271.247 169.725C271.413 169.746 271.572 169.807 271.709 169.904L279.574 175.468C279.848 175.661 280.165 175.784 280.498 175.826C280.83 175.867 281.168 175.826 281.481 175.706C281.985 175.512 282.391 175.126 282.61 174.633C282.83 174.139 282.844 173.579 282.65 173.075L282.524 172.746C282.354 172.302 282.034 171.931 281.619 171.698L272.003 166.334C271.745 166.19 271.545 165.96 271.439 165.684C271.387 165.548 271.362 165.404 271.366 165.259C271.37 165.114 271.402 164.971 271.461 164.838C271.52 164.706 271.604 164.586 271.709 164.486C271.815 164.386 271.938 164.308 272.074 164.256C272.347 164.151 272.651 164.159 272.919 164.278L279.698 166.736C280.085 166.877 280.509 166.873 280.892 166.725C281.315 166.563 281.655 166.239 281.839 165.826C282.023 165.412 282.035 164.943 281.873 164.52L281.845 164.447C281.714 164.108 281.479 163.819 281.173 163.622C271.588 160.592 263.381 154.274 258 145.784L257.378 144.802Z" fill="#BCDDD5"></path><path d="M249.13 145.236C249.629 144.113 250.554 143.234 251.702 142.793C252.732 142.397 253.87 142.382 254.91 142.75C255.951 143.118 256.826 143.846 257.378 144.802L257.376 144.798C256.762 144.316 254.551 143.695 253.781 143.979C253.011 144.263 251.513 146.238 251.456 146.735C251.4 147.232 251.377 148.51 251.672 149.276L256.013 159.831C257.24 163.023 258.192 166.378 258.92 169.72C259.634 173.003 260.642 176.269 261.841 179.41L261.879 179.576C261.946 179.87 261.905 180.179 261.763 180.446C261.621 180.712 261.388 180.919 261.106 181.027C260.952 181.087 260.788 181.115 260.623 181.111C260.458 181.107 260.296 181.07 260.145 181.003C259.994 180.936 259.858 180.84 259.745 180.72C259.631 180.601 259.543 180.46 259.483 180.306L259.254 179.71C258.027 176.518 257.045 173.236 256.318 169.894C255.591 166.553 254.609 163.271 253.382 160.079L249.039 148.782C248.598 147.634 248.631 146.359 249.13 145.236Z" fill="#BCDDD5"></path></g><g clip-path="url(#clip2_310_27)"><path d="M249.13 145.236C249.63 144.113 250.555 143.234 251.702 142.793C252.732 142.397 253.87 142.382 254.911 142.75C255.951 143.118 256.826 143.846 257.378 144.802C257.378 144.802 257.378 144.802 257.378 144.802L257.998 145.78L258 145.784C263.382 154.274 271.588 160.592 281.173 163.622C281.316 163.716 281.444 163.831 281.554 163.962C281.677 164.107 281.776 164.27 281.845 164.447L281.873 164.52C282.035 164.942 282.023 165.412 281.839 165.826C279.512 165.563 272.211 162.706 265.656 158.058C259.101 153.411 257.58 149.346 255.623 146.391C253.666 143.435 250.969 143.424 249.13 145.236Z" fill="#A6D1C7"></path><path d="M251.702 142.793C250.555 143.234 249.63 144.113 249.13 145.236C250.969 143.424 253.666 143.435 255.623 146.391C257.58 149.346 259.101 153.411 265.656 158.058C272.211 162.706 279.512 165.563 281.839 165.826C282.023 165.412 282.035 164.942 281.873 164.52L281.845 164.447C281.714 164.108 281.479 163.819 281.173 163.622C280.011 163.255 278.87 162.84 277.752 162.376C269.612 159.015 262.712 153.218 257.998 145.78L257.378 144.802C257.378 144.802 257.378 144.802 257.378 144.802C256.826 143.846 255.951 143.118 254.911 142.75C253.87 142.382 252.732 142.397 251.702 142.793Z" fill="#A6D1C7"></path></g><g clip-path="url(#clip3_310_27)"><path d="M267.133 94.0503C267.991 93.1696 269.163 92.6656 270.392 92.6492C271.621 92.6328 272.806 93.1053 273.687 93.9627L282.358 102.406C284.809 104.792 287.438 106.987 290.223 108.972C293.008 110.958 295.637 113.153 298.087 115.539L298.545 115.984C298.663 116.099 298.757 116.236 298.822 116.388C298.888 116.539 298.922 116.702 298.924 116.867C298.927 117.032 298.896 117.196 298.835 117.349C298.774 117.502 298.683 117.642 298.568 117.76C298.357 117.976 298.076 118.109 297.775 118.134C297.474 118.16 297.174 118.076 296.93 117.898L293.954 115.729C293.786 115.605 293.578 115.547 293.37 115.565C293.161 115.582 292.966 115.674 292.82 115.824C292.667 115.981 292.58 116.191 292.575 116.411C292.57 116.63 292.648 116.843 292.794 117.008L298.545 123.468C298.817 123.774 298.964 124.171 298.955 124.58C298.945 124.99 298.782 125.38 298.496 125.673C298.197 125.981 297.788 126.157 297.358 126.162C296.929 126.168 296.516 126.003 296.208 125.704L290.736 120.376C290.565 120.209 290.334 120.117 290.096 120.121C289.857 120.124 289.629 120.222 289.462 120.393C289.328 120.531 289.242 120.707 289.216 120.897C289.189 121.087 289.224 121.281 289.316 121.45L294.602 131.221C294.784 131.558 294.854 131.946 294.802 132.326C294.749 132.706 294.576 133.06 294.308 133.335C293.975 133.675 293.521 133.87 293.044 133.876C292.568 133.883 292.109 133.7 291.767 133.369C291.14 132.758 290.63 132.037 290.264 131.242L286.489 123.056C286.338 122.728 286.128 122.431 285.869 122.18C285.676 121.992 285.416 121.888 285.147 121.892C284.878 121.895 284.621 122.006 284.433 122.199C284.316 122.319 284.231 122.466 284.184 122.627C284.138 122.788 284.132 122.958 284.167 123.122L286.181 132.543C286.251 132.871 286.239 133.211 286.146 133.533C286.053 133.855 285.882 134.149 285.649 134.389C285.272 134.776 284.757 134.997 284.217 135.004C283.677 135.012 283.157 134.804 282.77 134.427L282.517 134.182C282.176 133.85 281.961 133.41 281.911 132.937L280.77 121.985C280.739 121.691 280.606 121.417 280.394 121.211C280.29 121.11 280.167 121.03 280.033 120.976C279.898 120.922 279.754 120.896 279.609 120.898C279.464 120.9 279.321 120.93 279.187 120.987C279.054 121.045 278.933 121.128 278.832 121.232C278.628 121.442 278.515 121.724 278.519 122.017L278.107 129.216C278.084 129.627 277.913 130.015 277.626 130.309C277.311 130.634 276.879 130.819 276.427 130.825C275.974 130.831 275.538 130.657 275.214 130.342L275.158 130.287C274.897 130.033 274.724 129.703 274.664 129.345C275.656 119.341 273.083 109.309 267.4 101.017L266.743 100.059C266.082 99.1748 265.758 98.0839 265.829 96.9824C265.901 95.8809 266.363 94.8412 267.133 94.0503Z" fill="#A6D1C7"></path><path d="M296.921 117.923L293.953 115.73C293.78 115.604 293.566 115.546 293.353 115.568C293.139 115.59 292.942 115.69 292.797 115.848C292.653 116.007 292.573 116.214 292.572 116.428C292.571 116.642 292.649 116.85 292.792 117.01L293.481 117.783L298.541 123.473C298.806 123.771 298.951 124.157 298.949 124.556C298.946 124.955 298.796 125.339 298.527 125.634C298.514 125.647 298.505 125.664 298.492 125.678C298.192 125.983 297.783 126.158 297.355 126.162C296.927 126.167 296.515 126.002 296.208 125.704L290.736 120.376C290.582 120.226 290.379 120.136 290.164 120.123C289.949 120.11 289.737 120.174 289.565 120.304C289.394 120.433 289.274 120.62 289.228 120.83C289.183 121.041 289.213 121.26 289.316 121.45L289.826 122.392L294.601 131.221C294.763 131.52 294.837 131.859 294.814 132.198C294.791 132.537 294.673 132.862 294.472 133.137C294.422 133.206 294.367 133.273 294.308 133.335C293.975 133.675 293.521 133.87 293.044 133.876C292.568 133.883 292.109 133.7 291.767 133.369C291.14 132.758 290.63 132.037 290.264 131.242L286.489 123.056C286.338 122.728 286.128 122.431 285.869 122.18C285.713 122.025 285.511 121.926 285.294 121.896C285.077 121.866 284.856 121.907 284.664 122.013C284.472 122.119 284.319 122.284 284.229 122.484C284.139 122.684 284.116 122.908 284.163 123.122L284.443 124.428L286.18 132.544C286.27 132.982 286.212 133.438 286.015 133.84C285.924 134.042 285.8 134.228 285.649 134.389C285.272 134.776 284.757 134.997 284.217 135.004C283.677 135.012 283.157 134.804 282.77 134.427L282.517 134.182C282.176 133.85 281.961 133.41 281.911 132.937L280.77 121.985C280.739 121.691 280.606 121.417 280.394 121.211C280.238 121.058 280.039 120.956 279.825 120.916C279.61 120.876 279.388 120.901 279.187 120.987C278.986 121.074 278.816 121.217 278.697 121.401C278.578 121.584 278.516 121.798 278.519 122.017L278.107 129.216C278.089 129.543 277.977 129.857 277.784 130.122C277.592 130.387 277.327 130.591 277.022 130.709C276.717 130.828 276.385 130.856 276.064 130.791C275.743 130.726 275.448 130.57 275.214 130.342L275.158 130.287C275.022 130.154 274.911 129.999 274.827 129.829C274.749 129.676 274.694 129.513 274.665 129.344C274.785 128.131 274.852 126.92 274.867 125.709C274.985 116.904 272.377 108.278 267.398 101.014L266.741 100.055C266.54 99.3014 266.84 97.0243 267.404 96.4287C267.969 95.8332 270.375 95.2341 270.853 95.3783C271.332 95.5224 272.516 96.0042 273.103 96.5776L281.094 104.726C283.544 107.112 286.253 109.309 289.037 111.295C291.822 113.28 294.471 115.537 296.921 117.923C296.712 118.055 297.168 117.93 296.921 117.923C296.674 117.916 297.122 118.067 296.921 117.923Z" fill="#BCDDD5"></path></g></g><g opacity="0.5"><g clip-path="url(#clip4_310_27)"><path d="M65.9633 95.0825L63.0721 92.789C62.905 92.6547 62.7934 92.4633 62.7588 92.2517C62.7242 92.0401 62.7691 91.8232 62.8849 91.6428C63.0006 91.4623 63.179 91.3309 63.3857 91.2741C63.5924 91.2172 63.8128 91.2387 64.0046 91.3346L71.7432 95.1985C72.1003 95.3766 72.5107 95.4162 72.8952 95.3097C73.2798 95.2032 73.6113 94.9581 73.8258 94.6216C73.8354 94.6055 73.8492 94.5928 73.8592 94.576C74.0759 94.2069 74.1376 93.767 74.0307 93.3525C73.9237 92.938 73.657 92.5828 73.2887 92.3647L66.7179 88.4717C66.5329 88.3617 66.3934 88.1893 66.3246 87.9855C66.2558 87.7816 66.2622 87.5599 66.3427 87.3604C66.4231 87.1609 66.5723 86.9967 66.7633 86.8977C66.9543 86.7986 67.1744 86.7712 67.3838 86.8203L78.1956 89.3749C78.5263 89.4531 78.8728 89.4353 79.1942 89.3248C79.5155 89.2143 79.7989 89.015 80.0116 88.7499C80.0657 88.6834 80.1152 88.6132 80.1597 88.5398C80.4015 88.1295 80.471 87.6402 80.3529 87.1788C80.2349 86.7174 79.9388 86.3216 79.5296 86.078C78.7766 85.6317 77.9479 85.3279 77.0849 85.1817L68.1972 83.6727C67.8415 83.6122 67.4999 83.4868 67.1896 83.3027C67.0001 83.1924 66.8513 83.0237 66.7656 82.8218C66.6799 82.6199 66.6619 82.3958 66.7142 82.1828C66.7665 81.9698 66.8863 81.7795 67.0557 81.6403C67.2252 81.501 67.4351 81.4204 67.6542 81.4104L77.2758 80.9006C77.7227 80.8731 78.1482 80.6972 78.4848 80.4019C78.656 80.2615 78.8026 80.0937 78.9188 79.9053C79.194 79.4408 79.2735 78.8859 79.1396 78.3628C79.0057 77.8397 78.6695 77.3912 78.205 77.1159L77.9018 76.9363C77.4928 76.6933 77.0117 76.601 76.5418 76.6754L65.6719 78.4307C65.3799 78.4777 65.0807 78.4209 64.8263 78.2702C64.6382 78.1589 64.4875 77.9943 64.393 77.7972C64.2985 77.6002 64.2648 77.3796 64.2958 77.1633C64.3267 76.947 64.421 76.7446 64.5669 76.5819C64.7128 76.4193 64.9037 76.3036 65.1154 76.2494L71.9581 73.9743C72.2687 73.8711 72.543 73.6807 72.7484 73.4259C72.9538 73.1712 73.0816 72.8627 73.1165 72.5373C73.1515 72.2119 73.0921 71.8834 72.9455 71.5908C72.7989 71.2982 72.5713 71.054 72.2897 70.8871L72.2225 70.8473C72.0586 70.7516 71.8798 70.6841 71.6935 70.6474C71.5259 70.6122 71.3545 70.6015 71.1839 70.617C70.0446 71.0492 68.892 71.4309 67.7268 71.7606C59.2575 74.1721 50.2494 73.9036 41.9388 70.9921L40.8418 70.6074C40.0615 70.61 37.9415 71.4937 37.5138 72.194C37.0861 72.8944 37.1354 75.3731 37.3994 75.7977C37.6634 76.2224 38.4374 77.2396 39.144 77.6568L49.095 83.2451C52.0375 84.9883 54.865 87.0301 57.5081 89.2007C60.1049 91.3332 62.9203 93.2703 65.8087 94.9907C65.8602 95.0214 65.9118 95.052 65.9633 95.0825C66.0363 94.8466 66.0347 95.319 65.9633 95.0825C65.892 94.8461 66.1547 95.2387 65.9633 95.0825Z" fill="#BCDDD5"></path><path fill-rule="evenodd" clip-rule="evenodd" d="M40.8456 70.6087L40.8418 70.6074C40.0615 70.61 37.9415 71.4937 37.5138 72.194C37.0861 72.8944 37.1354 75.3731 37.3994 75.7977C37.6634 76.2224 38.4374 77.2396 39.144 77.6568L49.095 83.2451C52.0375 84.9883 54.865 87.0301 57.5081 89.2007C60.1049 91.3332 62.9203 93.2703 65.8087 94.9907L63.0709 92.791C62.9079 92.6601 62.7976 92.4748 62.7601 92.2692C62.7227 92.0635 62.7607 91.8512 62.8671 91.6713C62.9792 91.4825 63.1587 91.343 63.3694 91.2811C63.5801 91.2191 63.8065 91.2392 64.003 91.3373L71.7401 95.2038C72.1061 95.3869 72.5279 95.4245 72.9205 95.309C73.3131 95.1935 73.6474 94.9335 73.856 94.5814C74.0747 94.2122 74.1378 93.7713 74.0314 93.3555C73.9251 92.9398 73.6579 92.5834 73.2887 92.3647L66.7179 88.4717C66.5123 88.3499 66.3636 88.1514 66.3044 87.92C66.2451 87.6886 66.2803 87.4431 66.402 87.2375C66.5 87.0726 66.648 86.9432 66.8246 86.8681C67.0012 86.7931 67.1971 86.7764 67.3838 86.8203L78.1956 89.3749C78.5693 89.4631 78.9613 89.4297 79.3146 89.2794C79.6679 89.1292 79.964 88.8701 80.1597 88.5398C80.4015 88.1295 80.471 87.6402 80.3529 87.1788C80.2349 86.7174 79.9388 86.3216 79.5296 86.078C78.7766 85.6317 77.9479 85.3279 77.0849 85.1817L68.1972 83.6727C67.8415 83.6122 67.4999 83.4868 67.1896 83.3027C66.9578 83.1654 66.7901 82.9417 66.7234 82.6807C66.6566 82.4198 66.6962 82.143 66.8335 81.9112C66.919 81.7672 67.0387 81.6464 67.182 81.5596C67.3253 81.4728 67.4877 81.4227 67.655 81.4136L77.2758 80.9006C77.6104 80.8827 77.9354 80.7825 78.2221 80.6089C78.5087 80.4353 78.748 80.1936 78.9188 79.9053C79.194 79.4408 79.2735 78.8859 79.1396 78.3628C79.0057 77.8397 78.6695 77.3912 78.205 77.1159L77.9018 76.9363C77.4928 76.6933 77.0117 76.601 76.5418 76.6754L65.6719 78.4307C65.3799 78.4777 65.0807 78.4209 64.8263 78.2702C64.7014 78.1963 64.5924 78.0985 64.5054 77.9824C64.4184 77.8663 64.3551 77.7342 64.3191 77.5937C64.2832 77.4531 64.2752 77.3069 64.2958 77.1633C64.3163 77.0197 64.365 76.8815 64.4389 76.7567C64.5883 76.5047 64.8316 76.3222 65.1154 76.2494L71.9581 73.9743C72.3483 73.8446 72.6784 73.5785 72.888 73.2248C73.1186 72.8355 73.1852 72.3705 73.073 71.9321C72.9608 71.4937 72.6791 71.1178 72.2897 70.8871L72.2225 70.8473C71.9096 70.662 71.5458 70.5814 71.1839 70.617C61.7855 74.1833 51.4297 74.3166 41.9425 70.9935L40.8456 70.6087Z" fill="#BCDDD5"></path><path d="M34.6445 76.0641C34.3397 74.8734 34.5205 73.6103 35.147 72.5529C35.7097 71.6033 36.5929 70.8857 37.6376 70.5293C38.6822 70.1729 39.8198 70.201 40.8456 70.6087L40.8418 70.6074C40.0615 70.61 37.9415 71.4937 37.5138 72.194C37.0861 72.8944 37.1354 75.3731 37.3994 75.7977C37.6634 76.2224 38.4374 77.2396 39.144 77.6568L49.095 83.2451C52.0375 84.9883 54.865 87.0301 57.5081 89.2007C60.1049 91.3332 62.9203 93.2703 65.8087 94.9907L65.9415 95.0974C66.1769 95.2866 66.3361 95.5544 66.3901 95.8515C66.444 96.1487 66.3891 96.4553 66.2352 96.7152C66.1513 96.8572 66.0401 96.9811 65.9082 97.0801C65.7763 97.179 65.6262 97.251 65.4664 97.2919C65.3067 97.3328 65.1404 97.3418 64.9772 97.3183C64.814 97.2949 64.657 97.2396 64.5152 97.1554L63.966 96.8301C61.0235 95.0868 58.2185 93.1214 55.5754 90.9508C52.9322 88.7802 50.1272 86.8148 47.1847 85.0715L36.7719 78.9023C35.7144 78.2758 34.9492 77.2548 34.6445 76.0641Z" fill="#BCDDD5"></path></g><path d="M34.6449 76.0641C34.3401 74.8733 34.5209 73.6103 35.1474 72.5528C35.7101 71.6032 36.5933 70.8857 37.638 70.5292C38.6826 70.1728 39.8202 70.201 40.846 70.6087C40.846 70.6087 40.846 70.6087 40.846 70.6087L41.9392 70.9921L41.9429 70.9934C51.4301 74.3166 61.7859 74.1833 71.1844 70.617C71.3549 70.6015 71.5264 70.6122 71.6939 70.6474C71.8802 70.684 72.059 70.7516 72.2229 70.8473L72.2902 70.8871C72.6795 71.1178 72.9612 71.4936 73.0734 71.932C71.0842 73.1692 63.5858 75.4553 55.5611 75.8748C47.5364 76.2943 43.8222 74.0484 40.4545 72.9436C37.0867 71.8388 34.9639 73.5029 34.6449 76.0641Z" fill="#A6D1C7"></path><path d="M35.1474 72.5528C34.5209 73.6103 34.3401 74.8733 34.6449 76.0641C34.9639 73.5029 37.0867 71.8388 40.4545 72.9436C43.8222 74.0484 47.5364 76.2943 55.5611 75.8748C63.5858 75.4553 71.0842 73.1692 73.0734 71.932C72.9612 71.4936 72.6795 71.1178 72.2902 70.8871L72.2229 70.8473C71.9101 70.662 71.5462 70.5813 71.1844 70.617C70.045 71.0492 68.8924 71.4308 67.7272 71.7606C59.2579 74.172 50.2499 73.9036 41.9392 70.9921L40.846 70.6087C40.846 70.6087 40.846 70.6087 40.846 70.6087C39.8202 70.201 38.6826 70.1728 37.638 70.5292C36.5933 70.8857 35.7101 71.6032 35.1474 72.5528Z" fill="#A6D1C7"></path><g clip-path="url(#clip5_310_27)"><path d="M16.2421 26.8822C16.3686 25.6596 16.9756 24.5374 17.9296 23.7623C18.8835 22.9873 20.1063 22.6229 21.3289 22.7494L33.3677 23.9952C36.7697 24.3473 40.1936 24.439 43.6095 24.2695C47.0254 24.1001 50.4493 24.1918 53.8513 24.5439L54.4862 24.6096C54.6502 24.6265 54.8093 24.6755 54.9544 24.7539C55.0994 24.8323 55.2276 24.9385 55.3316 25.0665C55.4356 25.1945 55.5133 25.3417 55.5603 25.4998C55.6074 25.6578 55.6228 25.8236 55.6057 25.9876C55.5745 26.288 55.4361 26.5671 55.2157 26.7737C54.9954 26.9802 54.708 27.1005 54.4063 27.1123L50.7267 27.2554C50.5178 27.2635 50.3188 27.3466 50.1662 27.4895C50.0137 27.6324 49.9178 27.8255 49.8961 28.0335C49.8737 28.252 49.9348 28.4708 50.0672 28.6461C50.1996 28.8214 50.3934 28.9401 50.6097 28.9783L59.1277 30.4802C59.5307 30.5511 59.892 30.7722 60.1386 31.0988C60.3852 31.4254 60.4988 31.8333 60.4567 32.2404C60.4125 32.6673 60.2006 33.0591 59.8675 33.3297C59.5345 33.6002 59.1076 33.7274 58.6808 33.6833L51.0838 32.8972C50.8462 32.8726 50.6085 32.9434 50.4231 33.094C50.2377 33.2447 50.1197 33.4628 50.0951 33.7004C50.0756 33.8913 50.1174 34.0834 50.2146 34.2489C50.3117 34.4143 50.4591 34.5444 50.6353 34.6203L60.8419 39.0074C61.1946 39.1591 61.4896 39.4194 61.6839 39.7505C61.8783 40.0816 61.9618 40.4661 61.9223 40.8479C61.8722 41.3215 61.6366 41.756 61.267 42.0563C60.8973 42.3566 60.4238 42.4983 59.95 42.4503C59.0793 42.3603 58.2327 42.1108 57.4523 41.7143L49.414 37.6333C49.0923 37.47 48.7432 37.3673 48.3843 37.3304C48.1164 37.3026 47.8484 37.3825 47.6393 37.5523C47.4303 37.7222 47.2972 37.9681 47.2695 38.2361C47.2524 38.4027 47.2766 38.571 47.34 38.7261C47.4035 38.8811 47.5041 39.0182 47.6331 39.1251L55.0559 45.267C55.3141 45.4807 55.5155 45.7547 55.6424 46.0649C55.7692 46.3751 55.8175 46.7117 55.7831 47.045C55.7275 47.5821 55.4608 48.0752 55.0417 48.4157C54.6226 48.7561 54.0855 48.9162 53.5484 48.8606L53.1979 48.8244C52.7246 48.776 52.2831 48.5636 51.9499 48.224L44.2635 40.3402C44.057 40.1286 43.7828 39.996 43.4886 39.9655C43.3443 39.9505 43.1985 39.9642 43.0595 40.0056C42.9204 40.047 42.7909 40.1154 42.6783 40.2069C42.5657 40.2984 42.4723 40.4111 42.4033 40.5387C42.3342 40.6663 42.291 40.8063 42.2761 40.9506C42.246 41.242 42.3328 41.5335 42.5174 41.761L46.6592 47.6639C46.8953 48.0004 47.0021 48.4109 46.9598 48.8198C46.9132 49.2699 46.6897 49.6831 46.3385 49.9684C45.9873 50.2538 45.5371 50.3879 45.087 50.3413L45.0093 50.3333C44.6476 50.2958 44.3073 50.1439 44.0378 49.8997C38.612 41.4375 30.3725 35.1628 20.7722 32.1821L19.6619 31.8379C18.5951 31.5544 17.6645 30.8995 17.0376 29.9911C16.4106 29.0826 16.1286 27.9801 16.2421 26.8822Z" fill="#A6D1C7"></path><path d="M54.415 27.1372L50.7264 27.2578C50.5122 27.2661 50.3086 27.3533 50.1548 27.5027C50.001 27.6521 49.9079 27.8531 49.8934 28.067C49.8788 28.2809 49.9439 28.4926 50.0761 28.6614C50.2083 28.8303 50.3982 28.9442 50.6093 28.9814L51.6291 29.1608L59.127 30.4864C59.5199 30.556 59.8732 30.7686 60.1187 31.0832C60.3641 31.3978 60.4844 31.7921 60.4564 32.1901C60.4544 32.2088 60.458 32.2272 60.456 32.2466C60.4103 32.6722 60.1978 33.0624 59.8651 33.3316C59.5324 33.6009 59.1065 33.7273 58.6808 33.6833L51.0838 32.8972C50.8698 32.8753 50.655 32.9308 50.4784 33.0535C50.3017 33.1763 50.1748 33.3582 50.1206 33.5664C50.0664 33.7746 50.0885 33.9953 50.1829 34.1886C50.2773 34.3819 50.4378 34.5351 50.6353 34.6203L51.6204 35.0435L60.8418 39.0082C61.1541 39.1423 61.4219 39.3621 61.6142 39.6423C61.8066 39.9224 61.9155 40.2514 61.9284 40.5909C61.9323 40.6766 61.9303 40.7625 61.9223 40.8479C61.8722 41.3215 61.6366 41.756 61.267 42.0563C60.8973 42.3566 60.4238 42.4983 59.95 42.4503C59.0793 42.3602 58.2327 42.1107 57.4523 41.7143L49.414 37.6333C49.0923 37.47 48.7432 37.3673 48.3843 37.3304C48.1663 37.3061 47.9464 37.3531 47.7573 37.4642C47.5683 37.5753 47.4203 37.7446 47.3354 37.9469C47.2506 38.1491 47.2335 38.3733 47.2867 38.5861C47.3399 38.7988 47.4605 38.9886 47.6305 39.1272L48.66 39.9791L55.0559 45.2678C55.3985 45.5561 55.6357 45.95 55.7301 46.3877C55.7841 46.6024 55.8019 46.8245 55.7831 47.045C55.7275 47.5821 55.4608 48.0752 55.0417 48.4157C54.6226 48.7561 54.0855 48.9162 53.5484 48.8606L53.1979 48.8244C52.7246 48.776 52.2831 48.5636 51.9499 48.224L44.2635 40.3402C44.057 40.1286 43.7828 39.996 43.4886 39.9655C43.2713 39.9429 43.0521 39.9854 42.8589 40.0874C42.6656 40.1894 42.507 40.3465 42.403 40.5387C42.2991 40.7309 42.2544 40.9496 42.2748 41.1672C42.2952 41.3847 42.3796 41.5914 42.5174 41.761L46.6592 47.6639C46.8472 47.9318 46.9542 48.2481 46.9674 48.5751C46.9807 48.902 46.8996 49.2259 46.7339 49.5081C46.5682 49.7903 46.3248 50.0189 46.0328 50.1666C45.7408 50.3144 45.4125 50.375 45.087 50.3413L45.0093 50.3333C44.8206 50.3125 44.6367 50.2603 44.4652 50.1788C44.3097 50.1073 44.1656 50.013 44.0379 49.899C43.3801 48.8732 42.6813 47.8809 41.9417 46.9221C36.5745 39.9409 29.1784 34.7917 20.7684 32.1809L19.6581 31.8367C19.0328 31.3699 17.856 29.3974 17.9296 28.5801C18.0032 27.7627 19.519 25.8009 19.984 25.617C20.4489 25.4332 21.6765 25.0769 22.4927 25.1627L33.8145 26.6001C37.2165 26.9522 40.7038 26.9959 44.1198 26.8265C47.5357 26.657 51.013 26.7851 54.415 27.1372C54.3331 27.3702 54.6131 26.9898 54.415 27.1372C54.2168 27.2847 54.6617 27.1258 54.415 27.1372Z" fill="#BCDDD5"></path></g></g><g opacity="0.5"><g clip-path="url(#clip6_310_27)"><path d="M183.963 126.083L181.072 123.789C180.905 123.655 180.793 123.463 180.759 123.252C180.724 123.04 180.769 122.823 180.885 122.643C181.001 122.462 181.179 122.331 181.386 122.274C181.592 122.217 181.813 122.239 182.005 122.335L189.743 126.198C190.1 126.377 190.511 126.416 190.895 126.31C191.28 126.203 191.611 125.958 191.826 125.622C191.835 125.605 191.849 125.593 191.859 125.576C192.076 125.207 192.138 124.767 192.031 124.353C191.924 123.938 191.657 123.583 191.289 123.365L184.718 119.472C184.533 119.362 184.393 119.189 184.325 118.985C184.256 118.782 184.262 118.56 184.343 118.36C184.423 118.161 184.572 117.997 184.763 117.898C184.954 117.799 185.174 117.771 185.384 117.82L196.196 120.375C196.526 120.453 196.873 120.435 197.194 120.325C197.516 120.214 197.799 120.015 198.012 119.75C198.066 119.683 198.115 119.613 198.16 119.54C198.402 119.13 198.471 118.64 198.353 118.179C198.235 117.717 197.939 117.322 197.53 117.078C196.777 116.632 195.948 116.328 195.085 116.182L186.197 114.673C185.841 114.612 185.5 114.487 185.19 114.303C185 114.192 184.851 114.024 184.766 113.822C184.68 113.62 184.662 113.396 184.714 113.183C184.766 112.97 184.886 112.779 185.056 112.64C185.225 112.501 185.435 112.42 185.654 112.41L195.276 111.901C195.723 111.873 196.148 111.697 196.485 111.402C196.656 111.262 196.803 111.094 196.919 110.905C197.194 110.441 197.273 109.886 197.14 109.363C197.006 108.84 196.67 108.391 196.205 108.116L195.902 107.936C195.493 107.693 195.012 107.601 194.542 107.675L183.672 109.431C183.38 109.478 183.081 109.421 182.826 109.27C182.638 109.159 182.487 108.994 182.393 108.797C182.299 108.6 182.265 108.38 182.296 108.163C182.327 107.947 182.421 107.745 182.567 107.582C182.713 107.419 182.904 107.304 183.115 107.249L189.958 104.974C190.269 104.871 190.543 104.681 190.748 104.426C190.954 104.171 191.082 103.863 191.117 103.537C191.151 103.212 191.092 102.883 190.946 102.591C190.799 102.298 190.571 102.054 190.29 101.887L190.223 101.847C190.059 101.752 189.88 101.684 189.694 101.647C189.526 101.612 189.354 101.602 189.184 101.617C188.045 102.049 186.892 102.431 185.727 102.761C177.257 105.172 168.249 104.904 159.939 101.992L158.842 101.607C158.061 101.61 155.941 102.494 155.514 103.194C155.086 103.894 155.135 106.373 155.399 106.798C155.663 107.222 156.437 108.24 157.144 108.657L167.095 114.245C170.038 115.988 172.865 118.03 175.508 120.201C178.105 122.333 180.92 124.27 183.809 125.991C183.86 126.021 183.912 126.052 183.963 126.083C184.036 125.847 184.035 126.319 183.963 126.083C183.892 125.846 184.155 126.239 183.963 126.083Z" fill="#BCDDD5"></path><path fill-rule="evenodd" clip-rule="evenodd" d="M158.846 101.609L158.842 101.607C158.061 101.61 155.941 102.494 155.514 103.194C155.086 103.894 155.135 106.373 155.399 106.798C155.663 107.222 156.437 108.24 157.144 108.657L167.095 114.245C170.038 115.988 172.865 118.03 175.508 120.201C178.105 122.333 180.92 124.27 183.809 125.991L181.071 123.791C180.908 123.66 180.798 123.475 180.76 123.269C180.723 123.064 180.761 122.851 180.867 122.671C180.979 122.482 181.159 122.343 181.369 122.281C181.58 122.219 181.807 122.239 182.003 122.337L189.74 126.204C190.106 126.387 190.528 126.425 190.921 126.309C191.313 126.194 191.647 125.934 191.856 125.581C192.075 125.212 192.138 124.771 192.031 124.356C191.925 123.94 191.658 123.583 191.289 123.365L184.718 119.472C184.512 119.35 184.364 119.151 184.304 118.92C184.245 118.689 184.28 118.443 184.402 118.238C184.5 118.073 184.648 117.943 184.825 117.868C185.001 117.793 185.197 117.776 185.384 117.82L196.196 120.375C196.569 120.463 196.961 120.43 197.315 120.279C197.668 120.129 197.964 119.87 198.16 119.54C198.402 119.13 198.471 118.64 198.353 118.179C198.235 117.717 197.939 117.322 197.53 117.078C196.777 116.632 195.948 116.328 195.085 116.182L186.197 114.673C185.841 114.612 185.5 114.487 185.19 114.303C184.958 114.165 184.79 113.942 184.723 113.681C184.657 113.42 184.696 113.143 184.833 112.911C184.919 112.767 185.039 112.646 185.182 112.56C185.325 112.473 185.488 112.423 185.655 112.414L195.276 111.901C195.61 111.883 195.935 111.783 196.222 111.609C196.509 111.435 196.748 111.194 196.919 110.905C197.194 110.441 197.273 109.886 197.14 109.363C197.006 108.84 196.67 108.391 196.205 108.116L195.902 107.936C195.493 107.693 195.012 107.601 194.542 107.675L183.672 109.431C183.38 109.478 183.081 109.421 182.826 109.27C182.701 109.196 182.592 109.098 182.505 108.982C182.418 108.866 182.355 108.734 182.319 108.594C182.283 108.453 182.275 108.307 182.296 108.163C182.316 108.02 182.365 107.882 182.439 107.757C182.588 107.505 182.832 107.322 183.115 107.249L189.958 104.974C190.348 104.845 190.678 104.578 190.888 104.225C191.119 103.835 191.185 103.37 191.073 102.932C190.961 102.494 190.679 102.118 190.29 101.887L190.223 101.847C189.91 101.662 189.546 101.581 189.184 101.617C179.786 105.183 169.43 105.317 159.943 101.993L158.846 101.609Z" fill="#BCDDD5"></path><path d="M152.644 107.064C152.34 105.873 152.521 104.61 153.147 103.553C153.71 102.603 154.593 101.886 155.638 101.529C156.682 101.173 157.82 101.201 158.846 101.609L158.842 101.607C158.061 101.61 155.941 102.494 155.514 103.194C155.086 103.894 155.135 106.373 155.399 106.798C155.663 107.222 156.437 108.24 157.144 108.657L167.095 114.245C170.038 115.988 172.865 118.03 175.508 120.201C178.105 122.333 180.92 124.27 183.809 125.991L183.942 126.097C184.177 126.287 184.336 126.554 184.39 126.852C184.444 127.149 184.389 127.455 184.235 127.715C184.151 127.857 184.04 127.981 183.908 128.08C183.776 128.179 183.626 128.251 183.466 128.292C183.307 128.333 183.14 128.342 182.977 128.318C182.814 128.295 182.657 128.24 182.515 128.155L181.966 127.83C179.024 126.087 176.218 124.121 173.575 121.951C170.932 119.78 168.127 117.815 165.185 116.072L154.772 109.902C153.714 109.276 152.949 108.255 152.644 107.064Z" fill="#BCDDD5"></path></g><path d="M152.645 107.064C152.34 105.873 152.521 104.61 153.147 103.553C153.71 102.603 154.593 101.886 155.638 101.529C156.683 101.173 157.82 101.201 158.846 101.609C158.846 101.609 158.846 101.609 158.846 101.609L159.939 101.992L159.943 101.993C169.43 105.317 179.786 105.183 189.184 101.617C189.355 101.602 189.526 101.612 189.694 101.647C189.88 101.684 190.059 101.752 190.223 101.847L190.29 101.887C190.679 102.118 190.961 102.494 191.073 102.932C189.084 104.169 181.586 106.455 173.561 106.875C165.536 107.294 161.822 105.048 158.454 103.944C155.087 102.839 152.964 104.503 152.645 107.064Z" fill="#A6D1C7"></path><path d="M153.147 103.553C152.521 104.61 152.34 105.873 152.645 107.064C152.964 104.503 155.087 102.839 158.454 103.944C161.822 105.048 165.536 107.294 173.561 106.875C181.586 106.455 189.084 104.169 191.073 102.932C190.961 102.494 190.679 102.118 190.29 101.887L190.223 101.847C189.91 101.662 189.546 101.581 189.184 101.617C188.045 102.049 186.892 102.431 185.727 102.761C177.258 105.172 168.25 104.904 159.939 101.992L158.846 101.609C158.846 101.609 158.846 101.609 158.846 101.609C157.82 101.201 156.683 101.173 155.638 101.529C154.593 101.886 153.71 102.603 153.147 103.553Z" fill="#A6D1C7"></path><g clip-path="url(#clip7_310_27)"><path d="M134.242 57.8822C134.369 56.6596 134.976 55.5374 135.93 54.7623C136.884 53.9873 138.106 53.6229 139.329 53.7494L151.368 54.9952C154.77 55.3473 158.194 55.439 161.609 55.2695C165.025 55.1001 168.449 55.1918 171.851 55.5439L172.486 55.6096C172.65 55.6265 172.809 55.6755 172.954 55.7539C173.099 55.8323 173.228 55.9385 173.332 56.0665C173.436 56.1945 173.513 56.3417 173.56 56.4998C173.607 56.6578 173.623 56.8236 173.606 56.9876C173.575 57.288 173.436 57.5671 173.216 57.7737C172.995 57.9802 172.708 58.1005 172.406 58.1123L168.727 58.2554C168.518 58.2635 168.319 58.3466 168.166 58.4895C168.014 58.6324 167.918 58.8255 167.896 59.0335C167.874 59.252 167.935 59.4708 168.067 59.6461C168.2 59.8214 168.393 59.9401 168.61 59.9783L177.128 61.4802C177.531 61.5511 177.892 61.7722 178.139 62.0988C178.385 62.4254 178.499 62.8333 178.457 63.2404C178.413 63.6673 178.201 64.0591 177.868 64.3297C177.534 64.6002 177.108 64.7274 176.681 64.6833L169.084 63.8972C168.846 63.8726 168.609 63.9434 168.423 64.094C168.238 64.2447 168.12 64.4628 168.095 64.7004C168.076 64.8913 168.117 65.0834 168.215 65.2489C168.312 65.4143 168.459 65.5444 168.635 65.6203L178.842 70.0074C179.195 70.1591 179.49 70.4194 179.684 70.7505C179.878 71.0816 179.962 71.4661 179.922 71.8479C179.872 72.3215 179.637 72.756 179.267 73.0563C178.897 73.3566 178.424 73.4983 177.95 73.4503C177.079 73.3603 176.233 73.1108 175.452 72.7143L167.414 68.6333C167.092 68.47 166.743 68.3673 166.384 68.3304C166.116 68.3026 165.848 68.3825 165.639 68.5523C165.43 68.7222 165.297 68.9681 165.27 69.2361C165.252 69.4027 165.277 69.571 165.34 69.7261C165.403 69.8811 165.504 70.0182 165.633 70.1251L173.056 76.267C173.314 76.4807 173.516 76.7547 173.642 77.0649C173.769 77.3751 173.818 77.7117 173.783 78.045C173.727 78.5821 173.461 79.0752 173.042 79.4157C172.623 79.7561 172.085 79.9162 171.548 79.8606L171.198 79.8244C170.725 79.776 170.283 79.5636 169.95 79.224L162.264 71.3402C162.057 71.1286 161.783 70.996 161.489 70.9655C161.344 70.9505 161.198 70.9642 161.059 71.0056C160.92 71.047 160.791 71.1154 160.678 71.2069C160.566 71.2984 160.472 71.4111 160.403 71.5387C160.334 71.6663 160.291 71.8063 160.276 71.9506C160.246 72.242 160.333 72.5335 160.517 72.761L164.659 78.6639C164.895 79.0004 165.002 79.4109 164.96 79.8198C164.913 80.2699 164.69 80.6831 164.339 80.9684C163.987 81.2538 163.537 81.3879 163.087 81.3413L163.009 81.3333C162.648 81.2958 162.307 81.1439 162.038 80.8997C156.612 72.4375 148.372 66.1628 138.772 63.1821L137.662 62.8379C136.595 62.5544 135.665 61.8995 135.038 60.9911C134.411 60.0826 134.129 58.9801 134.242 57.8822Z" fill="#A6D1C7"></path><path d="M172.415 58.1372L168.726 58.2578C168.512 58.2661 168.309 58.3533 168.155 58.5027C168.001 58.6521 167.908 58.8531 167.893 59.067C167.879 59.2809 167.944 59.4926 168.076 59.6614C168.208 59.8303 168.398 59.9442 168.609 59.9814L169.629 60.1608L177.127 61.4864C177.52 61.556 177.873 61.7686 178.119 62.0832C178.364 62.3978 178.484 62.7921 178.456 63.1901C178.454 63.2088 178.458 63.2272 178.456 63.2466C178.41 63.6722 178.198 64.0624 177.865 64.3316C177.532 64.6009 177.107 64.7273 176.681 64.6833L169.084 63.8972C168.87 63.8753 168.655 63.9308 168.478 64.0535C168.302 64.1763 168.175 64.3582 168.121 64.5664C168.066 64.7746 168.089 64.9953 168.183 65.1886C168.277 65.3819 168.438 65.5351 168.635 65.6203L169.62 66.0435L178.842 70.0082C179.154 70.1423 179.422 70.3621 179.614 70.6423C179.807 70.9224 179.916 71.2514 179.928 71.5909C179.932 71.6766 179.93 71.7625 179.922 71.8479C179.872 72.3215 179.637 72.756 179.267 73.0563C178.897 73.3566 178.424 73.4983 177.95 73.4503C177.079 73.3602 176.233 73.1107 175.452 72.7143L167.414 68.6333C167.092 68.47 166.743 68.3673 166.384 68.3304C166.166 68.3061 165.946 68.3531 165.757 68.4642C165.568 68.5753 165.42 68.7446 165.335 68.9469C165.251 69.1491 165.233 69.3733 165.287 69.5861C165.34 69.7988 165.46 69.9886 165.63 70.1272L166.66 70.9791L173.056 76.2678C173.399 76.5561 173.636 76.95 173.73 77.3877C173.784 77.6024 173.802 77.8245 173.783 78.045C173.727 78.5821 173.461 79.0752 173.042 79.4157C172.623 79.7561 172.085 79.9162 171.548 79.8606L171.198 79.8244C170.725 79.776 170.283 79.5636 169.95 79.224L162.264 71.3402C162.057 71.1286 161.783 70.996 161.489 70.9655C161.271 70.9429 161.052 70.9854 160.859 71.0874C160.666 71.1894 160.507 71.3465 160.403 71.5387C160.299 71.7309 160.254 71.9496 160.275 72.1672C160.295 72.3847 160.38 72.5914 160.517 72.761L164.659 78.6639C164.847 78.9318 164.954 79.2481 164.967 79.5751C164.981 79.902 164.9 80.2259 164.734 80.5081C164.568 80.7903 164.325 81.0189 164.033 81.1666C163.741 81.3144 163.412 81.375 163.087 81.3413L163.009 81.3333C162.821 81.3125 162.637 81.2603 162.465 81.1788C162.31 81.1073 162.166 81.013 162.038 80.899C161.38 79.8732 160.681 78.8809 159.942 77.9221C154.574 70.9409 147.178 65.7917 138.768 63.1809L137.658 62.8367C137.033 62.3699 135.856 60.3974 135.93 59.5801C136.003 58.7627 137.519 56.8009 137.984 56.617C138.449 56.4332 139.677 56.0769 140.493 56.1627L151.814 57.6001C155.216 57.9522 158.704 57.9959 162.12 57.8265C165.536 57.657 169.013 57.7851 172.415 58.1372C172.333 58.3702 172.613 57.9898 172.415 58.1372C172.217 58.2847 172.662 58.1258 172.415 58.1372Z" fill="#BCDDD5"></path></g></g></g><defs><clipPath id="clip0_310_27"><rect width="307.356" height="187.565" fill="white"></rect></clipPath><clipPath id="clip1_310_27"><rect width="46" height="54" fill="white" transform="matrix(0.112427 -0.99366 -0.99366 -0.112427 295.658 187.463)"></rect></clipPath><clipPath id="clip2_310_27"><rect width="46" height="54" fill="white" transform="matrix(0.112427 -0.99366 -0.99366 -0.112427 295.658 187.463)"></rect></clipPath><clipPath id="clip3_310_27"><rect width="46" height="54" fill="white" transform="translate(290.868 152.052) rotate(-163.248)"></rect></clipPath><clipPath id="clip4_310_27"><rect width="46" height="54" fill="white" transform="matrix(-0.528018 -0.849233 -0.849233 0.528018 97.3315 80.3364)"></rect></clipPath><clipPath id="clip5_310_27"><rect width="46" height="54" fill="white" transform="translate(70.8311 57.6648) rotate(158.425)"></rect></clipPath><clipPath id="clip6_310_27"><rect width="46" height="54" fill="white" transform="matrix(-0.528018 -0.849233 -0.849233 0.528018 215.332 111.336)"></rect></clipPath><clipPath id="clip7_310_27"><rect width="46" height="54" fill="white" transform="translate(188.831 88.6648) rotate(158.425)"></rect></clipPath></defs></svg> 