<?xml version="1.0" encoding="UTF-8"?> <svg xmlns="http://www.w3.org/2000/svg" width="79" height="88" viewBox="0 0 79 88" fill="none"><g clip-path="url(#clip0_310_75)"><g opacity="0.5"><g clip-path="url(#clip1_310_75)"><path d="M16.0373 69.7965L16.7014 66.9359C16.741 66.7699 16.8406 66.6244 16.981 66.5275C17.1213 66.4305 17.2926 66.3889 17.4619 66.4106C17.6311 66.4323 17.7863 66.5158 17.8977 66.6451C18.009 66.7744 18.0686 66.9403 18.065 67.1108L17.9234 73.9925C17.917 74.3099 18.0283 74.6186 18.236 74.8588C18.4436 75.099 18.7329 75.2539 19.0479 75.2935C19.0628 75.2949 19.0766 75.3005 19.0921 75.302C19.4314 75.3321 19.7687 75.2265 20.0304 75.0084C20.292 74.7903 20.4565 74.4774 20.4879 74.1382L21.0484 68.0864C21.0644 67.916 21.1409 67.7569 21.264 67.6379C21.3871 67.519 21.5488 67.448 21.7197 67.4379C21.8906 67.4278 22.0594 67.4792 22.1957 67.5828C22.332 67.6863 22.4268 67.8353 22.4628 68.0026L24.31 76.6481C24.3664 76.9125 24.4973 77.1556 24.6862 77.3491C24.8752 77.5425 25.1151 77.6784 25.3782 77.741C25.4445 77.7573 25.5119 77.7689 25.5798 77.7759C25.9572 77.81 26.3328 77.6932 26.6244 77.4511C26.9159 77.209 27.0997 76.8612 27.1354 76.4839C27.1997 75.7904 27.1358 75.0909 26.9469 74.4205L25.0035 67.5149C24.9258 67.2385 24.8996 66.9502 24.9262 66.6643C24.941 66.4904 25.0116 66.3259 25.1276 66.1955C25.2435 66.0651 25.3986 65.9758 25.5696 65.9408C25.7405 65.9058 25.9182 65.9271 26.0761 66.0015C26.2339 66.0759 26.3635 66.1994 26.4453 66.3536L30.0906 73.0989C30.2626 73.4109 30.5341 73.657 30.8612 73.7984C31.0204 73.8736 31.1911 73.9219 31.3662 73.9413C31.794 73.9809 32.2201 73.849 32.5506 73.5744C32.8812 73.2999 33.0892 72.9053 33.1288 72.4775L33.1547 72.1983C33.1901 71.8213 33.0925 71.4439 32.8789 71.1313L27.9126 63.9127C27.7793 63.7188 27.7182 63.4842 27.7399 63.2499C27.7558 63.0767 27.8228 62.9122 27.9324 62.7772C28.0419 62.6421 28.189 62.5427 28.3551 62.4912C28.5212 62.4398 28.6988 62.4386 28.8655 62.4881C29.0322 62.5376 29.1805 62.6355 29.2916 62.7693L33.2594 66.9147C33.4394 67.1029 33.6698 67.2353 33.923 67.2961C34.1762 67.357 34.4415 67.3438 34.6874 67.2581C34.9333 67.1723 35.1494 67.0177 35.3098 66.8126C35.4703 66.6074 35.5684 66.3605 35.5924 66.1012L35.5981 66.0393C35.6111 65.8888 35.5987 65.7372 35.5616 65.5908C35.5298 65.4583 35.4791 65.3313 35.4098 65.214C34.7108 64.5419 34.0435 63.8431 33.4094 63.1175C28.7893 57.8488 25.9128 51.2795 25.1746 44.311L25.0775 43.3911C24.8097 42.8308 23.4518 41.6074 22.8024 41.5385C22.153 41.4696 20.3873 42.3497 20.1719 42.6842C19.9565 43.0188 19.4887 43.922 19.4295 44.5723L18.8018 53.6325C18.5509 56.3425 18.046 59.0716 17.3858 61.7119C16.7371 64.306 16.3036 66.9907 16.0506 69.6541C16.0461 69.7016 16.0417 69.7491 16.0373 69.7965C16.2318 69.7686 15.8916 69.9284 16.0373 69.7965C16.183 69.6646 15.9902 69.9874 16.0373 69.7965Z" fill="#BCDDD5"></path><path fill-rule="evenodd" clip-rule="evenodd" d="M25.0778 43.3943L25.0775 43.3911C24.8097 42.8308 23.4518 41.6074 22.8024 41.5385C22.153 41.4696 20.3873 42.3497 20.1719 42.6842C19.9565 43.0188 19.4887 43.922 19.4295 44.5723L18.8018 53.6325C18.5509 56.3425 18.046 59.0716 17.3858 61.7119C16.7371 64.306 16.3036 66.9907 16.0506 69.6541L16.6996 66.9357C16.7381 66.7739 16.8338 66.6314 16.9689 66.5344C17.104 66.4374 17.2696 66.3923 17.4353 66.4076C17.6093 66.4239 17.7707 66.5054 17.8871 66.6358C18.0034 66.7662 18.0661 66.9359 18.0626 67.1106L17.9185 73.992C17.9115 74.3176 18.0283 74.6338 18.2451 74.8767C18.462 75.1197 18.7628 75.2715 19.0871 75.3015C19.4271 75.333 19.7657 75.2281 20.0284 75.01C20.2911 74.7918 20.4564 74.4782 20.4879 74.1382L21.0484 68.0864C21.0659 67.8971 21.1579 67.7225 21.3042 67.6011C21.4504 67.4796 21.6389 67.4212 21.8282 67.4388C21.9802 67.453 22.1237 67.5154 22.2379 67.6168C22.352 67.7182 22.4308 67.8534 22.4628 68.0026L24.31 76.6481C24.3739 76.9468 24.5315 77.2174 24.7599 77.4202C24.9883 77.6231 25.2756 77.7477 25.5798 77.7759C25.9572 77.81 26.3328 77.6932 26.6244 77.4511C26.9159 77.209 27.0997 76.8612 27.1354 76.4839C27.1997 75.7904 27.1358 75.0909 26.9469 74.4205L25.0035 67.5149C24.9258 67.2385 24.8996 66.9502 24.9262 66.6643C24.946 66.4508 25.0497 66.254 25.2146 66.1171C25.3795 65.9801 25.5921 65.9143 25.8055 65.934C25.9382 65.9464 26.0659 65.9914 26.1771 66.0648C26.2883 66.1383 26.3798 66.238 26.4433 66.3552L30.0906 73.0989C30.2174 73.3334 30.4003 73.533 30.6228 73.68C30.8453 73.8269 31.1006 73.9167 31.3662 73.9413C31.794 73.9809 32.2201 73.849 32.5506 73.5744C32.8812 73.2999 33.0892 72.9053 33.1288 72.4775L33.1547 72.1983C33.1901 71.8213 33.0925 71.4439 32.8789 71.1313L27.9126 63.9127C27.7793 63.7188 27.7182 63.4842 27.7399 63.2499C27.7505 63.135 27.7837 63.0232 27.8375 62.9211C27.8913 62.819 27.9647 62.7284 28.0536 62.6547C28.1424 62.5809 28.2448 62.5254 28.3551 62.4912C28.4654 62.4571 28.5813 62.445 28.6962 62.4556C28.9284 62.4772 29.1425 62.59 29.2916 62.7693L33.2594 66.9147C33.4855 67.1511 33.7894 67.2978 34.1152 67.328C34.4738 67.3612 34.8308 67.2506 35.1079 67.0205C35.3849 66.7905 35.5592 66.4598 35.5924 66.1012L35.5981 66.0393C35.6247 65.7512 35.5588 65.462 35.4098 65.214C29.6426 59.6706 26.0179 52.269 25.1749 44.3142L25.0778 43.3943Z" fill="#BCDDD5"></path><path d="M19.0416 40.7939C19.7941 40.169 20.7639 39.8686 21.7379 39.9588C22.6125 40.0399 23.4295 40.4304 24.0417 41.0602C24.654 41.69 25.0214 42.5177 25.0778 43.3943L25.0775 43.3911C24.8097 42.8308 23.4518 41.6074 22.8024 41.5385C22.153 41.4696 20.3873 42.3497 20.1719 42.6842C19.9565 43.0188 19.4887 43.922 19.4295 44.5723L18.8018 53.6325C18.5509 56.3425 18.046 59.0716 17.3858 61.7119C16.7371 64.306 16.3036 66.9907 16.0506 69.6541L16.0191 69.7859C15.9633 70.0196 15.825 70.2254 15.6297 70.3655C15.4344 70.5055 15.1951 70.5705 14.9558 70.5484C14.8251 70.5364 14.6981 70.4987 14.582 70.4376C14.4659 70.3764 14.363 70.293 14.2792 70.1921C14.1953 70.0911 14.1322 69.9746 14.0934 69.8493C14.0546 69.7239 14.041 69.5921 14.0531 69.4615L14.1 68.9557C14.3509 66.2457 14.8085 63.5588 15.4687 60.9184C16.1289 58.2781 16.5865 55.5912 16.8374 52.8811L17.7256 43.2909C17.8158 42.317 18.2892 41.4188 19.0416 40.7939Z" fill="#BCDDD5"></path></g><path d="M21.7377 39.9589C20.7638 39.8687 19.7939 40.169 19.0415 40.7939C20.992 40.1506 22.912 41.1101 23.2651 43.9084C23.6182 46.7067 23.2688 50.1429 26.3049 55.7707C29.3411 61.3984 33.5402 66.0117 35.1077 67.0206C35.3847 66.7905 35.559 66.4598 35.5922 66.1013L35.598 66.0394C35.6246 65.7512 35.5586 65.4621 35.4097 65.214C34.7106 64.542 34.0434 63.8431 33.4092 63.1176C28.7891 57.8489 25.9126 51.2796 25.1744 44.3111L25.0776 43.3943C25.0776 43.3943 25.0776 43.3943 25.0776 43.3943C25.0212 42.5177 24.6539 41.6901 24.0416 41.0603C23.4293 40.4305 22.6123 40.0399 21.7377 39.9589Z" fill="#A6D1C7"></path><g clip-path="url(#clip2_310_75)"><path d="M48.1385 10.8014C49.0608 10.4758 50.0747 10.5299 50.9571 10.9518C51.8395 11.3737 52.5182 12.1288 52.8438 13.0511L56.0503 22.133C56.9564 24.6994 58.0571 27.1928 59.343 29.5915C60.6289 31.9902 61.7296 34.4837 62.6357 37.0501L62.8048 37.529C62.8485 37.6527 62.8675 37.7839 62.8605 37.9149C62.8536 38.0459 62.8209 38.1743 62.7643 38.2927C62.7077 38.4111 62.6283 38.5171 62.5307 38.6048C62.433 38.6925 62.3191 38.7601 62.1953 38.8037C61.9687 38.8836 61.7208 38.8791 61.4972 38.7911C61.2735 38.7031 61.0891 38.5374 60.9778 38.3244L59.621 35.7271C59.544 35.5796 59.4165 35.4649 59.2617 35.4038C59.107 35.3428 58.9354 35.3397 58.7785 35.3949C58.6137 35.4533 58.4772 35.5718 58.3962 35.7267C58.3153 35.8817 58.296 36.0615 58.3422 36.23L60.1647 42.8673C60.2511 43.1813 60.2152 43.5164 60.0644 43.805C59.9135 44.0936 59.6589 44.3144 59.3518 44.4228C59.0298 44.5365 58.6758 44.5176 58.3678 44.3703C58.0597 44.223 57.8227 43.9594 57.7091 43.6374L55.6857 37.9064C55.6224 37.7271 55.4904 37.5803 55.3189 37.4983C55.1474 37.4163 54.9503 37.4058 54.7711 37.4691C54.6272 37.5201 54.5033 37.6157 54.4174 37.7419C54.3316 37.8681 54.2882 38.0185 54.2937 38.171L54.6168 47.0057C54.6279 47.311 54.5412 47.6119 54.3694 47.8645C54.1975 48.117 53.9495 48.3081 53.6614 48.4098C53.3038 48.5352 52.911 48.5138 52.5691 48.3503C52.2272 48.1869 51.964 47.8946 51.837 47.5375C51.6051 46.8807 51.496 46.1869 51.5152 45.4906L51.7108 38.3195C51.7186 38.0325 51.6735 37.7464 51.5778 37.4757C51.5064 37.2736 51.3577 37.1081 51.1643 37.0157C50.9709 36.9232 50.7487 36.9114 50.5466 36.9827C50.4209 37.0272 50.3082 37.102 50.2183 37.2004C50.1284 37.2988 50.0641 37.4179 50.0312 37.5471L48.1438 44.9779C48.0781 45.2364 47.9497 45.4746 47.7699 45.6715C47.59 45.8684 47.3644 46.0179 47.1129 46.1067C46.7078 46.2497 46.2624 46.226 45.8747 46.0406C45.4871 45.8553 45.1889 45.5235 45.0459 45.1184L44.9525 44.854C44.826 44.4971 44.8283 44.1073 44.959 43.752L48.0092 35.5381C48.091 35.3174 48.0929 35.0751 48.0146 34.8531C47.9762 34.7443 47.9167 34.644 47.8395 34.5582C47.7623 34.4723 47.669 34.4025 47.5649 34.3527C47.4607 34.3029 47.3478 34.2741 47.2325 34.268C47.1172 34.2618 47.0019 34.2784 46.893 34.3169C46.6732 34.3945 46.4931 34.5562 46.3925 34.7665L43.5589 39.7564C43.3974 40.0409 43.1386 40.2575 42.8301 40.3665C42.4906 40.4863 42.1173 40.4664 41.7924 40.3111C41.4675 40.1558 41.2176 39.8777 41.0978 39.5382L41.0771 39.4795C40.9808 39.2067 40.974 38.9102 41.0578 38.6332C45.2943 31.8478 46.9988 23.7845 45.871 15.8651L45.7402 14.9493C45.5805 14.0856 45.7343 13.1932 46.174 12.4328C46.6137 11.6724 47.3103 11.0939 48.1385 10.8014Z" fill="#A6D1C7"></path><path d="M60.9628 38.3391L59.6193 35.7277C59.5403 35.5765 59.4082 35.4598 59.2483 35.4001C59.0885 35.3404 58.9122 35.3419 58.7535 35.4044C58.5947 35.4668 58.4646 35.5858 58.3882 35.7383C58.3119 35.8909 58.2946 36.0663 58.3398 36.2309L58.5584 37.0253L60.16 42.8689C60.2439 43.1752 60.2114 43.5017 60.0688 43.7854C59.9262 44.0691 59.6837 44.29 59.3879 44.4054C59.3738 44.4104 59.3618 44.4193 59.3471 44.4244C59.0255 44.5366 58.6725 44.5167 58.3655 44.3692C58.0585 44.2217 57.8225 43.9585 57.7091 43.6374L55.6856 37.9064C55.6284 37.745 55.5154 37.6095 55.3669 37.5243C55.2184 37.439 55.0443 37.4098 54.8762 37.4417C54.708 37.4737 54.5568 37.5648 54.45 37.6986C54.3431 37.8324 54.2877 38 54.2937 38.171L54.3251 39.0237L54.6162 47.0059C54.6262 47.2762 54.5593 47.5437 54.4234 47.7774C54.2875 48.0112 54.0881 48.2017 53.8483 48.3267C53.788 48.3587 53.7255 48.3865 53.6614 48.4098C53.3038 48.5352 52.911 48.5138 52.5691 48.3503C52.2272 48.1869 51.964 47.8946 51.837 47.5375C51.6051 46.8807 51.496 46.1869 51.5152 45.4906L51.7108 38.3195C51.7186 38.0325 51.6735 37.7464 51.5778 37.4757C51.5209 37.3107 51.4122 37.1686 51.2679 37.0705C51.1236 36.9724 50.9514 36.9237 50.777 36.9316C50.6027 36.9395 50.4356 37.0036 50.3007 37.1143C50.1659 37.2251 50.0705 37.3765 50.0288 37.546L49.767 38.5766L48.1432 44.9781C48.0527 45.3228 47.8502 45.6276 47.5676 45.8446C47.4316 45.9566 47.278 46.0451 47.1129 46.1067C46.7078 46.2497 46.2624 46.226 45.8747 46.0406C45.4871 45.8553 45.1889 45.5235 45.0459 45.1184L44.9525 44.854C44.826 44.4971 44.8283 44.1073 44.959 43.752L48.0092 35.5381C48.091 35.3174 48.0929 35.0751 48.0146 34.8531C47.9567 34.6891 47.8515 34.546 47.7123 34.4418C47.5731 34.3376 47.4061 34.277 47.2325 34.2678C47.0588 34.2585 46.8863 34.3009 46.7368 34.3897C46.5873 34.4785 46.4674 34.6096 46.3925 34.7665L43.5589 39.7564C43.4303 39.9829 43.2393 40.1676 43.0087 40.2886C42.7781 40.4095 42.5175 40.4616 42.2581 40.4386C41.9987 40.4156 41.7514 40.3185 41.5457 40.1588C41.3399 39.9992 41.1845 39.7837 41.0978 39.5382L41.0771 39.4795C41.0277 39.3368 41.0026 39.1868 41.0028 39.0357C41.0012 38.8994 41.0199 38.7637 41.0584 38.633C41.5719 37.8104 42.0473 36.9698 42.4848 36.1112C45.6762 29.8727 46.8589 22.7994 45.8705 15.8619L45.7397 14.9462C45.8623 14.3374 46.8798 12.8191 47.4926 12.5935C48.1054 12.3679 50.0328 12.7894 50.3234 13.0611C50.6141 13.3329 51.2886 14.0943 51.505 14.7104L54.3293 23.3419C55.2354 25.9083 56.3923 28.4311 57.6781 30.8298C58.964 33.2285 60.0568 35.7727 60.9628 38.3391C60.7674 38.3596 61.1364 38.4314 60.9628 38.3391C60.7893 38.2469 61.0551 38.5126 60.9628 38.3391Z" fill="#BCDDD5"></path></g></g></g><defs><clipPath id="clip0_310_75"><rect width="78.0811" height="87.3291" fill="white"></rect></clipPath><clipPath id="clip1_310_75"><rect width="36.6053" height="42.9715" fill="white" transform="matrix(0.54133 -0.84081 -0.84081 -0.54133 37.3306 87.3291)"></rect></clipPath><clipPath id="clip2_310_75"><rect width="36.6053" height="42.9715" fill="white" transform="translate(44.604 60.5468) rotate(-136.929)"></rect></clipPath></defs></svg> 