<svg width="40" height="40" viewBox="0 0 40 40" fill="none" xmlns="http://www.w3.org/2000/svg">
<g clip-path="url(#clip0_142_262)">
<path d="M40 17.4466L20 0.078125L0 17.4466L2.04742 19.8041L3.76373 18.3136V35.2429C3.76373 37.8256 5.86456 39.9268 8.44727 39.9268H31.5527C34.1354 39.9268 36.2363 37.8256 36.2363 35.2429V18.3136L37.9526 19.8041L40 17.4466ZM33.114 35.2429C33.114 36.1038 32.4136 36.8042 31.5527 36.8042H8.44727C7.58636 36.8042 6.88599 36.1038 6.88599 35.2429V15.6021L20 4.21356L33.114 15.6021V35.2429ZM18.8498 16.546C18.7958 16.6049 17.5104 18.0093 16.2079 19.7702C14.2947 22.3563 13.3649 24.3259 13.3649 25.7907V25.9464C13.3649 29.6048 16.3412 32.5812 20 32.5812C23.6584 32.5812 26.6348 29.6048 26.6348 25.9464V25.7907C26.6348 24.3256 25.705 22.3563 23.7921 19.7702C22.4893 18.0093 21.2042 16.6049 21.1502 16.546L20 15.2927L18.8498 16.546ZM21.297 21.6476C23.4058 24.5032 23.5126 25.6 23.5126 25.7907V25.9464C23.5126 27.883 21.937 29.4589 20 29.4589C18.063 29.4589 16.4874 27.883 16.4874 25.9464V25.7907C16.4874 25.6 16.5942 24.5032 18.703 21.6476C19.1534 21.0376 19.6075 20.4675 20 19.9924C20.3925 20.4675 20.8466 21.0376 21.297 21.6476Z" fill="#1DAC8C"/>
</g>
<defs>
<clipPath id="clip0_142_262">
<rect width="40" height="40" fill="white"/>
</clipPath>
</defs>
</svg>
