<svg width="40" height="40" viewBox="0 0 40 40" fill="none" xmlns="http://www.w3.org/2000/svg">
<g clip-path="url(#clip0_142_276)">
<path d="M21.5625 6.25H18.4375V9.375H21.5625V6.25ZM40 30.625V6.25H30.8254C30.8988 6.76047 30.9375 7.28203 30.9375 7.8125C30.9375 8.34313 30.9143 8.85602 30.8469 9.375H36.875V27.5H3.125V9.375H9.15289C9.08562 8.85617 9.0625 8.3432 9.0625 7.8125C9.0625 7.28203 9.10125 6.76047 9.17461 6.25H0V30.625H15.3125V35.3125C15.3125 36.1741 14.6116 36.875 13.75 36.875H9.0625V40H30.9375V36.875H26.25C25.3884 36.875 24.6875 36.1741 24.6875 35.3125V30.625H40ZM18.1688 36.875C18.3422 36.3859 18.4375 35.8602 18.4375 35.3125V30.625H21.5625V35.3125C21.5625 35.8602 21.6578 36.3859 21.8312 36.875H18.1688ZM18.6997 19.9288L20 21.8805L21.3003 19.9288C22.307 18.4181 23.1712 17.139 23.8657 16.1112C27.2099 11.1618 27.8125 10.2699 27.8125 7.8125C27.8125 3.50469 24.3079 0 20 0C15.6921 0 12.1875 3.50469 12.1875 7.8125C12.1875 10.2718 12.7885 11.1612 16.1241 16.0966C16.8211 17.1277 17.6883 18.4109 18.6997 19.9288ZM20 3.125C22.5847 3.125 24.6875 5.22781 24.6875 7.8125C24.6875 9.24305 24.5281 9.54906 21.2763 14.3616C20.8994 14.9195 20.4726 15.5512 19.9999 16.2539C19.5232 15.5451 19.0931 14.9086 18.7133 14.3466C15.4714 9.55 15.3125 9.24469 15.3125 7.8125C15.3125 5.22781 17.4153 3.125 20 3.125Z" fill="#1DAC8C"/>
</g>
<defs>
<clipPath id="clip0_142_276">
<rect width="40" height="40" fill="white"/>
</clipPath>
</defs>
</svg>
