<svg width="169" height="135" viewBox="0 0 169 135" fill="none" xmlns="http://www.w3.org/2000/svg">
<g clip-path="url(#clip0_142_1063)">
<circle cx="101.228" cy="67.5" r="67" fill="#F4F9F8"/>
<path d="M12.8955 80.4196H17.8088V114.276H12.8955V80.4196Z" fill="#F45753"/>
<path d="M17.8086 80.4196H22.7219V114.276H17.8086V80.4196Z" fill="#FCE275"/>
<path d="M22.7222 80.4196H27.6355V114.276H22.7222V80.4196Z" fill="#81FCB8"/>
<path d="M27.6353 80.4196H32.5485V114.276H27.6353V80.4196Z" fill="#61D8D5"/>
<path d="M126.908 80.4196H131.821V114.276H126.908V80.4196Z" fill="#F45753"/>
<path d="M121.998 80.4196H126.911V114.276H121.998V80.4196Z" fill="#FCE275"/>
<path d="M117.085 80.4196H121.998V114.276H117.085V80.4196Z" fill="#81FCB8"/>
<path d="M112.172 80.4196H117.085V114.276H112.172V80.4196Z" fill="#61D8D5"/>
<path d="M126.908 80.4196C126.908 10.7948 17.8088 10.7948 17.8088 80.4196H12.8955C12.8955 4.5268 131.822 4.5268 131.822 80.4196H126.908Z" fill="#F45753"/>
<path d="M121.998 80.4194C121.998 17.0661 22.7219 17.0661 22.7219 80.4194H17.8086C17.8086 10.7946 126.908 10.7946 126.908 80.4194H121.998Z" fill="#FCE275"/>
<path d="M117.085 80.4193C117.085 23.3374 27.6355 23.3374 27.6355 80.4193H22.7222C22.7222 17.0659 121.999 17.0659 121.999 80.4193H117.085Z" fill="#81FCB8"/>
<path d="M112.172 80.4197C112.172 29.6058 32.5485 29.6058 32.5485 80.4197H27.6353C27.6353 23.3378 117.085 23.3378 117.085 80.4197H112.172Z" fill="#61D8D5"/>
<path d="M133.692 109.386C132.249 109.376 130.819 109.648 129.48 110.186C128.789 107.278 124.966 105.046 120.34 105.046C119.787 105.047 119.234 105.081 118.685 105.148C119.402 104.217 119.798 103.079 119.813 101.904C119.813 97.7719 114.708 94.4242 108.414 94.4242C102.467 94.4242 97.5839 97.4153 97.0666 101.232C96.0573 100.882 94.9959 100.707 93.9278 100.712C92.27 100.678 90.6378 101.125 89.2275 101.997C87.3352 100.326 84.3023 99.2433 80.8743 99.2433C75.1395 99.2433 70.4907 102.292 70.4907 106.054V106.083C66.1791 106.344 62.7093 108.493 62.0057 111.259C61.4848 111.168 60.9571 111.122 60.4283 111.121C56.9874 111.121 54.1987 112.952 54.1987 115.208C54.1987 117.463 56.9874 119.294 60.4283 119.294C61.7806 119.311 63.1172 119.003 64.3254 118.395C65.0643 118.823 65.8947 119.07 66.7478 119.114C67.1911 120.631 69.2216 121.781 71.6665 121.781C73.0384 121.826 74.3876 121.422 75.509 120.631C77.1796 122.266 80.0069 123.345 83.2453 123.345C86.4838 123.345 89.2885 122.279 90.956 120.656C92.8676 122.693 96.2956 124.052 100.209 124.052C104.443 124.052 108.109 122.446 109.902 120.139C111.482 121.688 114.171 122.709 117.224 122.709C120.629 122.709 123.578 121.424 125.043 119.58C125.643 119.725 126.258 119.798 126.875 119.799C127.919 119.804 128.952 119.585 129.904 119.156C131.12 119.584 132.4 119.802 133.689 119.799C138.065 119.799 141.612 117.473 141.612 114.6C141.612 111.728 138.068 109.386 133.692 109.386Z" fill="#CEECFD"/>
<path d="M133.358 106.646C131.95 106.635 130.552 106.893 129.239 107.404C128.562 104.651 124.819 102.543 120.295 102.543C119.758 102.544 119.222 102.577 118.689 102.639C119.386 101.766 119.774 100.686 119.791 99.5681C119.791 95.6581 114.798 92.5 108.639 92.5C102.818 92.5 98.0371 95.3304 97.5359 98.9255C96.5451 98.5935 95.5062 98.4274 94.4613 98.434C92.8447 98.4023 91.2517 98.8254 89.8638 99.6548C88.0133 98.0709 85.0447 97.0461 81.7034 97.0461C76.0939 97.0461 71.5446 99.9375 71.5446 103.494V103.523C67.3263 103.767 63.9304 105.801 63.2429 108.419C62.732 108.335 62.2152 108.292 61.6975 108.291C58.3305 108.291 55.5933 110.022 55.5933 112.146C55.5933 114.27 58.3209 116.001 61.6975 116.001C63.0118 116.023 64.3131 115.738 65.4982 115.169C66.2251 115.577 67.0368 115.81 67.8692 115.85C68.303 117.286 70.2917 118.376 72.6884 118.376C74.0242 118.41 75.3367 118.021 76.4377 117.264C78.0698 118.816 80.8488 119.834 84.0069 119.834C87.1651 119.834 89.9184 118.822 91.5537 117.286C93.4236 119.214 96.7777 120.499 100.607 120.499C104.752 120.499 108.337 118.992 110.091 116.798C111.637 118.263 114.268 119.227 117.253 119.227C120.587 119.227 123.473 118.022 124.909 116.265C125.496 116.403 126.098 116.474 126.701 116.474C127.718 116.482 128.726 116.278 129.66 115.876C130.854 116.278 132.105 116.479 133.365 116.474C137.647 116.474 141.117 114.27 141.117 111.552C141.117 108.834 137.641 106.646 133.358 106.646Z" fill="#F3FBFF"/>
<path d="M62.2628 108.262C61.2603 108.255 60.2661 108.444 59.3359 108.818C58.854 106.797 56.1971 105.248 52.9779 105.248C52.5945 105.249 52.2115 105.272 51.8309 105.319C52.3263 104.673 52.6001 103.884 52.6116 103.07C52.6116 100.198 49.0776 97.8685 44.6889 97.8685C40.5509 97.8685 37.1582 99.9504 36.7984 102.604C36.0961 102.36 35.3573 102.237 34.6137 102.241C33.4609 102.218 32.3262 102.53 31.3463 103.137C30.0323 101.974 27.9247 101.21 25.5473 101.21C21.5602 101.21 18.3282 103.33 18.3282 105.945V105.965C15.3307 106.148 12.9179 107.642 12.4296 109.563C12.0664 109.502 11.699 109.471 11.3308 109.47C8.94051 109.47 7 110.755 7 112.31C7 113.865 8.92766 115.153 11.3308 115.153C12.273 115.159 13.2029 114.938 14.0424 114.511C14.5562 114.808 15.1332 114.978 15.7259 115.009C16.0471 116.066 17.4447 116.862 19.1442 116.862C20.0978 116.888 21.0337 116.603 21.8108 116.05C22.9706 117.187 24.9433 117.939 27.189 117.939C29.4347 117.939 31.3881 117.197 32.5511 116.066C33.8812 117.482 36.2651 118.427 38.9766 118.427C41.9195 118.427 44.4705 117.322 45.7234 115.709C46.8222 116.782 48.692 117.492 50.8157 117.492C53.1835 117.492 55.2332 116.609 56.2517 115.317C56.6725 115.419 57.1039 115.469 57.5368 115.468C58.2614 115.474 58.9789 115.325 59.6411 115.031C60.4825 115.332 61.3691 115.488 62.2628 115.491C65.3052 115.491 67.7726 113.884 67.7726 111.876C67.7726 109.868 65.3052 108.262 62.2628 108.262Z" fill="#CEECFD"/>
<path d="M62.0313 106.356C61.0513 106.349 60.0788 106.528 59.1655 106.883C58.6964 104.956 56.0941 103.503 52.9488 103.503C52.5719 103.505 52.1954 103.527 51.8211 103.571C52.3066 102.963 52.5767 102.212 52.589 101.434C52.589 98.7164 49.116 96.5125 44.8366 96.5125C40.7885 96.5125 37.4665 98.4819 37.1259 100.994C36.4376 100.763 35.7157 100.647 34.9895 100.65C33.86 100.625 32.7464 100.919 31.7767 101.499C30.4916 100.4 28.429 99.6867 26.103 99.6867C22.2027 99.6867 19.0349 101.695 19.0349 104.168V104.188C16.0984 104.358 13.7402 105.775 13.2519 107.593C12.8963 107.533 12.5363 107.503 12.1756 107.503C9.83673 107.503 7.93799 108.708 7.93799 110.192C7.93799 111.677 9.83673 112.881 12.1756 112.881C13.0995 112.891 14.0128 112.684 14.8422 112.277C15.3475 112.561 15.9118 112.722 16.4904 112.75C16.7924 113.749 18.1739 114.504 19.8349 114.504C20.7641 114.529 21.6775 114.259 22.4436 113.733C23.5777 114.812 25.5118 115.522 27.7061 115.522C29.9004 115.522 31.8152 114.819 32.9526 113.749C34.2377 115.092 36.5862 115.998 39.2496 115.998C42.1411 115.998 44.6245 114.951 45.8422 113.428C46.9185 114.446 48.7337 115.114 50.822 115.114C53.1416 115.114 55.1463 114.279 56.1455 113.055C56.5539 113.152 56.9723 113.2 57.3921 113.2C58.0998 113.206 58.8011 113.065 59.4514 112.785C60.2796 113.064 61.148 113.204 62.0217 113.2C64.9999 113.2 67.4127 111.67 67.4127 109.781C67.4127 107.892 65.0095 106.356 62.0313 106.356Z" fill="#F3FBFF"/>
<path d="M82.7905 86.6959L93.029 57.183C93.029 49.1272 95.6587 41.5449 100.213 35.3865C107.274 33.485 110.719 29.0865 114.305 23.9063C115.829 23.2023 117.415 22.5971 119.056 22.0998L119.427 21.9873L122.204 23.9947V70.5109C122.204 84.5002 117.071 95.4867 104.509 101.644L103.693 105.44L82.7905 86.6959Z" fill="#736572"/>
<path d="M126.228 23.9949V33.2947L123.21 42.943L126.228 55.4275V70.5099C126.228 72.7422 126.025 74.9433 125.634 77.0916C122.204 81.0517 120.412 85.8807 119.176 92.1281C115.733 96.8449 111.152 100.758 105.705 103.428L103.693 105.44L100.804 102.848C112.707 96.492 120.192 84.0734 120.192 70.5099V23.9949C120.192 23.2123 119.898 22.514 119.427 21.9869L122.335 21.1057C124.272 20.5182 126.228 21.9687 126.228 23.9949Z" fill="#615260"/>
<path d="M122.653 78.3299C121.655 83.8088 120.856 84.1476 117.624 88.5722L115.192 88.9914L93.0288 71.5443V57.1842C93.0288 55.3412 93.1657 53.5242 93.4353 51.7435L120.122 72.7531L122.653 78.3299Z" fill="#615260"/>
<path d="M125.633 77.0916C124.635 82.5705 122.407 87.7033 119.176 92.1278L115.192 88.991C118.043 84.1117 119.767 78.5645 120.121 72.7535L125.633 77.0916Z" fill="#564A56"/>
<path d="M122.992 38.6523L120.192 50.6753L100.421 35.1116C104.001 30.3591 108.739 26.4759 114.305 23.9064L120.192 28.5419L122.992 38.6523Z" fill="#615260"/>
<path d="M126.228 33.2947V55.4275L120.192 50.6749V28.5421L126.228 33.2947Z" fill="#564A56"/>
<path d="M48.6075 76.5L44.9322 81.8838C38.3401 90.9213 33.5992 103.564 31.7984 118C31.2751 122.195 31.3051 120.541 31.3051 124.995V125.495C31.3051 127.155 32.1133 128.5 33.1103 128.5H100.5C101.497 128.5 102.305 127.155 102.305 125.495V124.995C102.305 121.594 101.84 124.256 101.531 121C99.9374 104.198 94.391 89.5837 86.5264 79.8779L48.6075 76.5Z" fill="#F4E5E0"/>
<path d="M106.802 126.995V127.495C106.802 129.155 105.995 130.5 105 130.5H98.9946C99.9895 130.5 100.796 129.155 100.796 127.495V126.995C100.796 106.047 94.921 91.4654 85.5503 79.8783L48 76.944L48.3043 76.5L91.5559 79.8783C100.926 91.4654 106.802 106.047 106.802 126.995Z" fill="#E6D6D1"/>
<path d="M81.1579 75.3591C78.1052 75.3591 75.3724 76.7207 73.5272 78.8673C72.161 78.2929 70.6604 77.975 69.0854 77.975C67.5104 77.975 66.0099 78.2929 64.6437 78.8673C62.7987 76.7207 60.0657 75.3591 57.013 75.3591C51.4567 75.3591 46.9526 79.8632 46.9526 85.4195C46.9526 90.9757 51.4567 95.4798 57.013 95.4798C57.2083 95.4798 57.4022 95.4742 57.5948 95.4628C58.5692 95.406 59.5097 95.8271 60.1185 96.5902C62.2194 99.224 65.4544 100.912 69.0854 100.912C72.7165 100.912 75.9517 99.224 78.0524 96.5902C78.6612 95.8271 79.6017 95.406 80.5761 95.4628C80.7685 95.4742 80.9626 95.4798 81.1579 95.4798C86.7142 95.4798 91.2183 90.9757 91.2183 85.4195C91.2183 84.4083 91.069 83.4322 90.7915 82.5115C88.2704 78.3068 85.7028 75.3591 81.1579 75.3591Z" fill="white"/>
<path d="M90.7895 82.5121C89.2745 80.9226 87.6245 79.4638 85.856 78.1519L74.7915 77.6328C76.5259 76.2123 78.7411 75.3591 81.1577 75.3591C83.9343 75.3591 86.4495 76.4859 88.2704 78.3068C89.4274 79.4638 90.3048 80.9023 90.7895 82.5121Z" fill="#F7F7F7"/>
<path d="M27.8895 49.0214L30.1297 54.8259L40.0994 51.263C43.6789 49.0075 45.51 45.7636 49.4979 44.482L47.1363 40.638C45.0898 37.3072 41.6607 35.0663 37.7885 34.5296L32.4715 33.7927C31.6531 33.6792 30.8486 34.0775 30.4428 34.797L28.6998 37.8863C26.7795 41.2904 26.482 45.3749 27.8895 49.0214Z" fill="#F4E5E0"/>
<path d="M43.8625 46.8671L41.9953 44.0294C40.9033 42.3697 39.1609 41.2484 37.1978 40.9421L35.221 40.6337C34.9421 40.5902 34.6703 40.7458 34.5666 41.0083L34.0052 42.4294C33.3279 44.1441 33.35 46.0558 34.0666 47.7544L35.9767 52.2818L43.8625 46.8671Z" fill="#E6D6D1"/>
<path d="M110.281 49.0215L108.041 54.826L97.5549 50.6754C93.9754 48.4199 92.6607 45.7635 88.6729 44.4818L91.0344 40.6379C93.0809 37.307 96.51 35.0662 100.382 34.5295L105.699 33.7926C106.518 33.6791 107.322 34.0773 107.728 34.7969L109.471 37.8861C111.391 41.2904 111.688 45.375 110.281 49.0215Z" fill="#F4E5E0"/>
<path d="M94.3081 46.8671L96.1753 44.0294C97.2673 42.3697 99.0097 41.2484 100.973 40.9421L102.95 40.6337C103.228 40.5902 103.5 40.7458 103.604 41.0083L104.165 42.4294C104.843 44.1441 104.821 46.0558 104.104 47.7544L102.194 52.2818L94.3081 46.8671Z" fill="#E6D6D1"/>
<path d="M107.147 58.5801L105.363 60.0428C103.889 61.2518 103.889 63.5072 105.363 64.716L107.147 66.1787C107.679 66.6146 107.627 67.4434 107.046 67.8098L98.7852 74.3928C90.7465 79.458 81.4043 82.7236 71.9029 82.7236H64.9109C59.9672 82.7236 55.076 81.9959 50.3887 80.5844C47.1736 75.8076 45.1551 76.1791 41.299 73.7494L37.1684 74.4068L26.6984 67.8098C26.1168 67.4434 26.065 66.6146 26.5967 66.1787L28.3805 64.716C29.8549 63.507 29.8549 61.2516 28.3805 60.0428L26.5967 58.5801C26.065 58.1441 26.1166 57.3154 26.6984 56.949L38.0629 49.7883C46.1016 44.723 55.4092 42.0352 64.9107 42.0352H72.1182C81.6195 42.0352 89.4238 44.8752 97.4625 49.9404L107.046 56.949C107.627 57.3156 107.679 58.1441 107.147 58.5801Z" fill="#FCF1F2"/>
<path d="M111.472 67.8098L101.005 74.4053L98.6159 74.2543C94.7601 76.6836 90.3421 77.6068 87.7819 80.584C83.0948 81.9955 78.2036 82.7232 73.2603 82.7232H67.2241C76.7251 82.7232 86.0329 80.0352 94.0712 74.9707L105.435 67.8098C106.017 67.4436 106.069 66.6147 105.538 66.1779L103.753 64.7152C102.278 63.508 102.278 61.2525 103.753 60.0432L105.538 58.5805C106.069 58.1439 106.017 57.3148 105.435 56.9486L94.0712 49.7877C86.0329 44.7232 76.7251 42.0352 67.2241 42.0352H73.2603C82.7612 42.0352 92.069 44.7232 100.107 49.7877L111.472 56.9486C112.053 57.3148 112.105 58.1438 111.574 58.5805L109.789 60.0432C108.315 61.2523 108.315 63.508 109.789 64.7152L111.574 66.1779C112.105 66.6147 112.053 67.4437 111.472 67.8098Z" fill="#F4E5E0"/>
<path d="M92.0797 78.2683C92.0797 78.2683 87.9143 78.4883 87.6995 78.3732C87.2805 74.6465 85.2729 71.2484 82.1514 69.0855L77.1957 65.6488C74.1514 63.5281 73.2944 59.3994 75.242 56.2404C76.5661 54.0894 78.8598 52.9144 81.2037 52.9144C82.5256 52.9144 83.8637 53.2886 85.0508 54.0715L91.1676 58.1097C95.7803 61.1539 99.0266 65.7666 100.392 70.9873C100.684 72.1019 92.0797 78.2683 92.0797 78.2683Z" fill="#736572"/>
<path d="M101.005 74.4054L100.108 74.9709C96.2504 77.4015 92.1035 79.2828 87.7816 80.5826V79.8341C87.7816 79.3431 87.7535 78.8562 87.6992 78.3734C89.8924 77.3976 92.0232 76.2607 94.0715 74.971L100.393 70.9871C100.685 72.1015 100.89 73.2445 101.005 74.4054Z" fill="#615260"/>
<path d="M60.9746 65.6488L56.0189 69.0855C52.4938 71.5281 50.3893 75.5463 50.3893 79.834V80.5824C46.0674 79.2826 41.9205 77.4014 38.0633 74.9707L37.168 74.4072C37.8178 67.8096 41.4055 61.8035 47.0029 58.1094L53.1197 54.0711C54.3068 53.2885 55.6449 52.9141 56.9668 52.9141C59.3109 52.9141 61.6047 54.0891 62.9285 56.24C64.876 59.3994 64.0189 63.5281 60.9746 65.6488Z" fill="#736572"/>
<path d="M73.5059 75.158H73.1035C72.2713 75.158 70.5945 74.481 70.5945 73.649V70.832C70.5945 69.9984 69.9189 69.323 69.0855 69.323C68.2521 69.323 67.5766 69.9986 67.5766 70.832V73.649C67.5766 74.4812 65.8996 75.158 65.0676 75.158H64.6652C63.8318 75.158 63.1562 75.8335 63.1562 76.6669C63.1562 77.5003 63.8318 78.1759 64.6652 78.1759H65.0676C66.2262 78.1759 68.2842 77.738 69.0857 77.0195C69.8873 77.738 71.9453 78.1759 73.1039 78.1759H73.5062C74.3396 78.1759 75.0152 77.5003 75.0152 76.6669C75.0152 75.8335 74.3393 75.158 73.5059 75.158Z" fill="#D3C6C3"/>
<path d="M69.0855 72.7435C70.7523 72.7435 72.1037 71.3923 72.1037 69.7253C72.1037 68.0585 70.7525 66.7072 69.0855 66.7072C67.4188 66.7072 66.0674 68.0583 66.0674 69.7253C66.0674 71.3921 67.4186 72.7435 69.0855 72.7435Z" fill="#736572"/>
<path d="M86.9707 63C87.5392 63 88.0117 62.5333 87.8828 61.9796C87.6937 61.1676 87.281 60.4171 86.682 59.818C85.8381 58.9741 84.6935 58.5 83.5 58.5C82.3065 58.5 81.1619 58.9741 80.318 59.818C79.719 60.4171 79.3063 61.1676 79.1172 61.9796C78.9883 62.5333 79.4608 63 80.0293 63C80.5978 63 81.0398 62.5196 81.2724 62.0009C81.3928 61.7326 81.5617 61.4856 81.7737 61.2737C82.2315 60.8158 82.8525 60.5586 83.5 60.5586C84.1475 60.5586 84.7685 60.8158 85.2263 61.2737C85.4383 61.4856 85.6072 61.7326 85.7276 62.0009C85.9602 62.5196 86.4022 63 86.9707 63Z" fill="#564A56"/>
<path d="M57.9707 63C58.5392 63 59.0117 62.5333 58.8828 61.9796C58.6937 61.1676 58.281 60.4171 57.682 59.818C56.8381 58.9741 55.6935 58.5 54.5 58.5C53.3065 58.5 52.1619 58.9741 51.318 59.818C50.719 60.4171 50.3063 61.1676 50.1172 61.9796C49.9883 62.5333 50.4608 63 51.0293 63C51.5978 63 52.0398 62.5196 52.2724 62.0009C52.3928 61.7326 52.5617 61.4856 52.7737 61.2737C53.2315 60.8158 53.8525 60.5586 54.5 60.5586C55.1475 60.5586 55.7685 60.8158 56.2263 61.2737C56.4383 61.4856 56.6072 61.7326 56.7276 62.0009C56.9602 62.5196 57.4022 63 57.9707 63Z" fill="#564A56"/>
<path d="M85.6694 41.7362C85.6694 41.7362 87.2077 40.0786 88.4642 39.8962C89.7207 39.7139 91.1827 40.493 92.7011 40.178C93.573 40.0123 94.3833 39.6124 95.045 39.021C95.045 39.021 94.8428 43.3308 92.1243 44.5707C89.4057 45.8107 85.9015 45.1476 85.9015 45.1476L85.6694 41.7362Z" fill="#009F9F"/>
<path d="M76.8709 40.3572C76.8709 40.3572 77.2953 37.3734 79.0159 36.2661C80.7365 35.1588 82.4638 34.8538 82.8848 34.0184C83.1339 33.5445 83.2977 33.0306 83.3689 32.5C83.3689 32.5 85.5105 35.5965 84.6485 39.0907C83.7866 42.585 78.0379 44.3123 78.0379 44.3123C78.0379 44.3123 75.7935 43.1453 75.9427 42.6845C76.0919 42.2237 76.8709 40.3572 76.8709 40.3572Z" fill="#009F9F"/>
<path d="M69.8295 39.8099C69.8295 39.8099 69.6272 36.4283 68.1254 35.7321C66.6236 35.0359 64.1106 34.6878 63.6564 33.3617C63.2023 32.0356 62.5326 37.7179 63.6564 39.4286C64.7803 41.1393 69.3222 42.5516 69.3222 42.5516L69.8295 39.8099Z" fill="#009F9F"/>
<path d="M50.81 40.7452C50.81 40.7452 49.653 37.536 47.8263 37.1183C45.9996 36.7006 43.712 36.2133 43.712 36.2133C43.712 36.2133 43.0158 41.2326 45.3862 42.6283C47.7567 44.024 50.81 40.7452 50.81 40.7452Z" fill="#009F9F"/>
<path d="M44.5073 43.603C44.5073 43.603 42.3457 44.6904 40.9533 45.2772C39.9231 45.6623 38.8418 45.8936 37.7441 45.9635C37.7441 45.9635 41.3379 49.8225 44.2288 48.2378C47.1197 46.6531 44.5073 43.603 44.5073 43.603Z" fill="#009F9F"/>
<path d="M68.6692 38.5635C68.7885 38.4442 69.3322 35.8417 71.7789 35.6329C74.2256 35.424 75.8865 37.569 75.8865 37.569C75.8865 37.569 76.7253 36.6274 78.2403 37.9005C79.7554 39.1736 78.605 41.7694 78.605 41.7694C78.9773 41.9704 79.2956 42.2583 79.5328 42.6087C79.77 42.959 79.9192 43.3615 79.9676 43.7818C80.0704 45.1676 77.3519 46.3544 77.3519 46.3544L70.0284 47.0075C70.0284 47.0075 68.1586 46.2483 67.8337 44.6669C67.5088 43.0856 68.4603 41.6832 68.4603 41.6832C68.4603 41.6832 66.9452 40.2875 68.6692 38.5635Z" fill="#E77B6E"/>
<path d="M71.7654 40.3572C71.7654 40.3572 71.7654 38.9979 73.4694 38.5437C75.1735 38.0895 75.631 38.7891 75.8398 39.4521C75.9652 39.8458 76.0125 40.2603 75.9791 40.6721C75.9791 40.6721 77.4776 40.5661 77.9318 41.8225C78.3859 43.079 77.9318 44.0869 77.1991 44.299C76.6471 44.4159 76.0768 44.4159 75.5249 44.299C75.5249 44.299 75.1071 45.7611 73.7114 46.076C72.3157 46.391 71.0957 44.9952 71.0957 44.9952C71.0957 44.9952 69.143 45.2041 68.9706 43.3907C68.7982 41.5772 69.8425 40.9573 70.5056 40.8313C70.9465 40.736 71.371 40.5763 71.7654 40.3572Z" fill="#EC958B"/>
<path d="M72.402 40.8312C73.2007 40.6432 74.0371 40.6962 74.8056 40.9837C75.956 41.4744 75.5383 42.3098 75.5383 42.3098C75.5383 42.3098 76.3737 42.4756 75.956 43.3806C75.5383 44.2857 74.0398 43.5928 74.0398 43.5928C74.0398 43.5928 73.7944 44.7764 72.9922 44.7399C72.1899 44.7034 71.2483 43.8547 71.3544 42.9032C71.4605 41.9518 72.6805 41.6037 72.6805 41.6037C72.6805 41.6037 71.739 41.1992 72.402 40.8312Z" fill="#E77B6E"/>
<path d="M58.803 39.9031C58.803 39.9031 57.6891 38.9649 56.6414 39.6943C55.5938 40.4236 54.5163 41.8227 54.6191 42.9366C54.7219 44.0505 56.2933 45.496 56.2933 45.496C56.2933 45.496 53.5044 47.9755 56.5022 48.2377C59.5 48.4999 59.5 47.4999 61 47.4999C62 47.4999 62.8128 48.5578 64.9064 48.0288C67 47.4999 67.4558 46.842 67.4558 46.842C67.4558 46.842 67.4923 45.4131 67.4558 44.7865C67.4428 44.4248 67.3353 44.0728 67.1442 43.7654C67.5234 43.2364 67.7541 42.6156 67.8124 41.9673C67.8707 41.3191 67.7545 40.667 67.4757 40.0788C66.4811 38.0897 64.1605 38.8224 64.1605 38.8224C64.1605 38.8224 63.5339 35.6861 61.0938 36.558C58.6538 37.4299 58.5245 39.3462 58.803 39.9031Z" fill="#E77B6E"/>
<path d="M64.4713 41.1263C64.4713 41.1263 64.8559 39.6244 63.669 39.1736C62.4821 38.7227 60.9869 39.2067 60.6853 39.6609C60.3836 40.1151 60.6853 40.7417 60.6853 40.7417C60.6853 40.7417 58.6961 40.0455 57.5822 41.1263C56.4682 42.207 56.7799 43.7785 57.2672 44.1431C57.4305 44.2497 57.6153 44.3188 57.8084 44.3458C58.0016 44.3727 58.1982 44.3567 58.3845 44.299C58.3845 44.299 58.1756 45.7975 59.4288 46.2483C60.6819 46.6992 61.8025 45.2372 61.8025 45.2372C61.8025 45.2372 62.7407 45.5886 63.6491 44.5078C64.5575 43.4271 63.7187 41.6832 63.7187 41.6832C63.7187 41.6832 64.4282 41.7031 64.4713 41.1263Z" fill="#EC958B"/>
<path d="M60.6854 41.0203C60.5445 41.6188 60.284 42.1827 59.9196 42.6779C59.5316 43.1482 59.1118 43.5913 58.6631 44.004C59.353 44.0737 60.032 44.2262 60.6854 44.4582C61.0272 44.5919 61.3452 44.78 61.6269 45.0152C61.6269 45.0152 61.7662 44.5974 62.1507 43.6228C62.4511 42.9253 62.8376 42.2682 63.3011 41.6668C63.3011 41.6668 61.9386 40.3572 60.6854 41.0203Z" fill="#E77B6E"/>
<path d="M88.0104 40.1878C88.0104 40.1878 89.1243 39.2463 90.1719 39.9789C91.2196 40.7116 92.297 42.104 92.1943 43.2213C92.0915 44.3385 90.5201 45.7773 90.5201 45.7773L90.3112 48.5191C90.3112 48.5191 89.2172 49.2186 85.3383 49.2186C81.4594 49.2186 79.3708 47.1267 79.3708 47.1267C79.3708 47.1267 79.3344 45.6945 79.3708 45.0679C79.3848 44.7063 79.4922 44.3545 79.6825 44.0468C79.3038 43.5181 79.0735 42.8979 79.0152 42.2503C78.9569 41.6027 79.0728 40.9513 79.3509 40.3635C80.3455 38.3744 82.6662 39.107 82.6662 39.107C82.6662 39.107 83.2928 35.9675 85.7328 36.8394C88.1728 37.7113 88.2856 39.6308 88.0104 40.1878Z" fill="#E77B6E"/>
<path d="M82.3246 41.4078C82.3246 41.4078 81.94 39.9093 83.1269 39.4551C84.3138 39.0009 85.8089 39.4916 86.1106 39.9424C86.4123 40.3933 86.1106 41.0232 86.1106 41.0232C86.1106 41.0232 88.0998 40.327 89.2137 41.4078C90.3277 42.4885 90.016 44.06 89.5287 44.428C89.3651 44.5339 89.1802 44.6025 88.9871 44.6289C88.794 44.6553 88.5974 44.6387 88.4114 44.5805C88.4114 44.5805 88.6203 46.079 87.3671 46.5332C86.1139 46.9874 84.9934 45.5386 84.9934 45.5386C84.9934 45.5386 84.0518 45.8701 83.1468 44.8059C82.2417 43.7417 83.0772 41.9813 83.0772 41.9813C83.0772 41.9813 82.3743 41.9979 82.3246 41.4078Z" fill="#EC958B"/>
<path d="M86.1236 41.3019C86.2637 41.9006 86.5243 42.4646 86.8894 42.9595C87.2774 43.4298 87.6972 43.8728 88.1459 44.2856C87.456 44.3553 86.777 44.5078 86.1236 44.7398C85.7826 44.8752 85.4649 45.0631 85.182 45.2967C85.182 45.2967 85.0428 44.8823 84.6582 43.9043C84.3582 43.2077 83.9717 42.5517 83.5078 41.9516C83.5078 41.9516 84.8704 40.6421 86.1236 41.3019Z" fill="#E77B6E"/>
<path d="M45.399 48.9702C45.3124 48.9658 45.2261 48.957 45.1404 48.9436C44.6133 48.8674 43.4496 48.5591 43.4098 47.349C43.3568 45.7776 44.0895 45.0979 44.0895 45.0979C44.0895 45.0979 42.7633 43.321 43.4065 41.7528C44.0497 40.1847 46.4963 40.6555 46.4963 40.6555C46.8285 39.9219 47.3651 39.2998 48.0419 38.8635C48.7187 38.4272 49.507 38.1953 50.3122 38.1956C53.1368 38.1956 52.7191 41.4379 52.7191 41.4379C52.7191 41.4379 55.1757 41.0732 55.7028 43.1651C56.23 45.2571 52.5 46 52.5 46C52.5 46 53.3062 47.4265 52 48C50.6938 48.5735 45.399 48.9702 45.399 48.9702Z" fill="#E77B6E"/>
<path d="M48.4824 42.0645C48.4824 42.0645 47.9088 41.4014 46.8612 42.0645C45.8136 42.7275 45.555 43.8978 46.1053 44.2625C46.6557 44.6272 46.7849 44.5509 46.7849 44.5509C46.7849 44.5509 45.9197 44.9156 46.5496 45.9632C47.1795 47.0108 47.9088 47.0871 48.3266 46.9048C48.6303 46.7587 48.9189 46.5832 49.1885 46.3809C49.1885 46.3809 49.2681 47.2164 50.2361 46.981C51.2042 46.7456 51.6484 45.4394 51.6484 45.0714V44.236C51.6484 44.236 52.8254 44.2625 52.7988 43.2182C52.7723 42.1739 52.1358 41.4114 51.5158 41.4114C50.8959 41.4114 50.3389 42.0413 50.3389 42.0413C50.3389 42.0413 50.7334 40.6787 49.8947 40.5229C49.0559 40.3671 48.5354 41.4379 48.4824 42.0645Z" fill="#EC958B"/>
<path d="M48.641 42.4854C48.6367 42.7651 48.5735 43.0408 48.4554 43.2944C48.2512 43.6978 47.9448 44.0407 47.5669 44.2889C47.9732 44.3866 48.3448 44.5942 48.641 44.889C48.9138 45.1899 49.0944 45.5627 49.1615 45.9631C49.1615 45.9631 49.7649 45.4128 50.1826 44.9686C50.4902 44.6661 50.8438 44.4143 51.2303 44.2226C50.921 43.8947 50.6404 43.5409 50.3915 43.1651C50.2366 42.9068 50.1299 42.6226 50.0766 42.3263C50.0028 42.444 49.9034 42.5434 49.7857 42.6173C49.6681 42.6911 49.5353 42.7374 49.3973 42.7527C49.2592 42.768 49.1195 42.7519 48.9885 42.7057C48.8576 42.6594 48.7388 42.5841 48.641 42.4854Z" fill="#E77B6E"/>
<path d="M79.0121 42.2735C76.1245 40.0423 74.248 45.655 78.4021 45.1345C75.3421 48.0122 80.1857 50.3826 80.9183 46.4606C81.8731 50.4854 85.9874 47.1602 83.239 45.1776C85.0989 44.7168 85.8548 42.8835 84.8967 41.7795C84.1375 40.8943 82.9274 41.3154 81.8533 42.1508C82.576 37.8045 76.9467 39.3826 78.9855 42.3166" fill="#FCE275"/>
<path d="M82.3748 44.332C82.3688 44.6465 82.2698 44.9522 82.0902 45.2104C81.9106 45.4687 81.6585 45.6679 81.3657 45.783C81.0729 45.898 80.7526 45.9237 80.4452 45.8568C80.1379 45.7899 79.8572 45.6334 79.6388 45.4071C79.4203 45.1807 79.2738 44.8947 79.2178 44.5852C79.1618 44.2756 79.1988 43.9564 79.3241 43.6679C79.4495 43.3794 79.6575 43.1345 79.922 42.9641C80.1864 42.7938 80.4954 42.7056 80.81 42.7108C81.2323 42.7186 81.6343 42.8938 81.9277 43.1977C82.2211 43.5016 82.3819 43.9096 82.3748 44.332Z" fill="white"/>
<path d="M90.8482 45.0185C89.0115 43.5996 87.818 47.1701 90.4603 46.8353C88.5142 48.6686 91.5941 50.177 92.0616 47.6807C92.6683 50.2434 95.284 48.1282 93.5435 46.8684C94.727 46.5734 95.2011 45.4064 94.6044 44.7069C94.1237 44.1433 93.3512 44.4085 92.6683 44.9422C93.1291 42.1773 89.5486 43.1818 90.8449 45.0483" fill="#FCE275"/>
<path d="M92.9829 46.3246C92.9796 46.5253 92.9168 46.7206 92.8024 46.8856C92.6881 47.0506 92.5273 47.178 92.3406 47.2516C92.1538 47.3252 91.9493 47.3418 91.7532 47.2991C91.557 47.2565 91.3778 47.1566 91.2384 47.0121C91.0991 46.8676 91.0057 46.685 90.9701 46.4874C90.9346 46.2898 90.9585 46.0861 91.0388 45.9021C91.1191 45.7181 91.2521 45.562 91.4212 45.4537C91.5902 45.3454 91.7876 45.2896 91.9883 45.2935C92.2568 45.2988 92.5123 45.4102 92.6987 45.6035C92.8851 45.7968 92.9873 46.0561 92.9829 46.3246Z" fill="white"/>
<path d="M66.5244 40.6688C63.1759 38.0829 61.0011 44.5874 65.8182 43.9841C62.2676 47.3225 67.8803 50.0709 68.7323 45.5256C69.8396 50.1902 74.6037 46.3379 71.4343 44.0404C73.5892 43.5067 74.4644 41.3882 73.3704 40.1019C72.4885 39.0741 71.0862 39.5648 69.8396 40.5329C70.6817 35.497 64.1539 37.3237 66.5244 40.7251" fill="#FCE275"/>
<path d="M70.4192 43.0525C70.4126 43.4168 70.2981 43.771 70.0903 44.0703C69.8825 44.3697 69.5906 44.6007 69.2515 44.7342C68.9125 44.8677 68.5414 44.8977 68.1853 44.8204C67.8292 44.7432 67.504 44.5621 67.2507 44.3C66.9975 44.038 66.8276 43.7068 66.7625 43.3482C66.6975 42.9897 66.7401 42.6199 66.8851 42.2856C67.0301 41.9513 67.271 41.6674 67.5772 41.47C67.8835 41.2725 68.2414 41.1702 68.6057 41.176C68.8481 41.1799 69.0873 41.2315 69.3097 41.328C69.532 41.4244 69.7332 41.5638 69.9017 41.7381C70.0701 41.9124 70.2025 42.1182 70.2913 42.3437C70.3801 42.5693 70.4236 42.8101 70.4192 43.0525Z" fill="white"/>
<path d="M53.9226 43.8446C51.3135 41.8289 49.6128 46.8946 53.3723 46.4239C50.6074 49.023 54.9802 51.1614 55.6432 47.624C56.5052 51.2708 60.215 48.2539 57.7451 46.467C59.426 46.0492 60.1056 44.3949 59.2536 43.4003C58.5673 42.6014 57.4766 42.9793 56.5052 43.7319C57.1683 39.8099 52.076 41.2322 53.916 43.881" fill="#FCE275"/>
<path d="M56.9562 45.7012C56.9509 45.9849 56.8617 46.2607 56.6998 46.4937C56.5378 46.7268 56.3105 46.9065 56.0464 47.0104C55.7823 47.1143 55.4934 47.1376 55.2161 47.0773C54.9388 47.017 54.6856 46.876 54.4885 46.6719C54.2914 46.4678 54.1591 46.2098 54.1085 45.9306C54.0579 45.6514 54.0911 45.3635 54.2041 45.1032C54.317 44.8429 54.5045 44.6219 54.743 44.4681C54.9815 44.3143 55.2602 44.2347 55.5439 44.2392C55.7327 44.2422 55.9191 44.2825 56.0923 44.3576C56.2655 44.4328 56.4222 44.5414 56.5534 44.6772C56.6846 44.813 56.7877 44.9733 56.8568 45.1491C56.926 45.3248 56.9597 45.5124 56.9562 45.7012Z" fill="white"/>
<path d="M42.9422 45.297C40.721 43.583 39.2789 47.8961 42.4715 47.495C40.1176 49.7063 43.8407 51.5297 44.4076 48.5161C45.1402 51.6092 48.2997 49.0532 46.1978 47.5215C47.63 47.1668 48.2102 45.7578 47.4808 44.9091C46.8973 44.2261 45.9691 44.551 45.1402 45.1942C45.6972 41.8524 41.3708 43.0658 42.9356 45.3202" fill="#FCE275"/>
<path d="M45.5246 46.8783C45.5199 47.1202 45.4437 47.3553 45.3055 47.5539C45.1672 47.7524 44.9732 47.9055 44.748 47.9939C44.5227 48.0822 44.2764 48.1017 44.04 48.05C43.8037 47.9983 43.588 47.8777 43.4202 47.7034C43.2524 47.5291 43.14 47.309 43.0973 47.0708C43.0546 46.8327 43.0835 46.5873 43.1803 46.3655C43.2771 46.1438 43.4374 45.9557 43.6411 45.8251C43.8447 45.6945 44.0825 45.6273 44.3244 45.6318C44.4851 45.6348 44.6436 45.6695 44.7909 45.7338C44.9381 45.798 45.0713 45.8907 45.1827 46.0065C45.2942 46.1222 45.3817 46.2588 45.4404 46.4084C45.499 46.558 45.5276 46.7177 45.5246 46.8783Z" fill="white"/>
<path d="M109.462 123.343C108.364 123.335 107.276 123.543 106.258 123.954C105.732 121.742 102.824 120.046 99.3046 120.046C98.8839 120.048 98.4636 120.074 98.046 120.126C98.5914 119.416 98.8926 118.549 98.9044 117.654C98.9044 114.514 95.0217 111.966 90.2317 111.966C85.7074 111.966 81.9835 114.242 81.5986 117.144C80.8302 116.879 80.0225 116.746 79.2097 116.75C77.9486 116.725 76.7072 117.066 75.6355 117.731C74.1966 116.46 71.8902 115.635 69.2905 115.635C64.9281 115.635 61.3936 117.954 61.3936 120.828V120.85C58.1127 121.048 55.4733 122.683 54.9387 124.788C54.5422 124.718 54.1405 124.684 53.7381 124.684C51.1201 124.684 49 126.074 49 127.794C49 129.514 51.1201 130.9 53.7381 130.9C54.7664 130.913 55.7827 130.678 56.7013 130.216C57.261 130.54 57.8889 130.727 58.5343 130.763C58.8703 131.918 60.4161 132.791 62.2734 132.791C63.3169 132.818 64.3407 132.505 65.1908 131.899C66.4586 133.146 68.6184 133.968 71.0745 133.968C73.5307 133.968 75.6569 133.155 76.943 131.918C78.3971 133.47 81.0029 134.502 83.9692 134.502C87.1921 134.502 89.9781 133.28 91.3406 131.527C92.5442 132.703 94.591 133.479 96.9096 133.479C99.5032 133.479 101.745 132.51 102.861 131.099C103.317 131.208 103.784 131.263 104.254 131.264C105.047 131.272 105.833 131.109 106.557 130.784C107.483 131.107 108.457 131.269 109.438 131.264C112.764 131.264 115.465 129.495 115.465 127.311C115.465 125.127 112.789 123.343 109.462 123.343Z" fill="#CEECFD"/>
<path d="M109.209 121.268C108.137 121.262 107.074 121.457 106.075 121.843C105.558 119.75 102.714 118.146 99.2682 118.146C98.8599 118.148 98.4519 118.172 98.0463 118.22C98.5755 117.554 98.8698 116.733 98.8833 115.883C98.8833 112.91 95.0861 110.5 90.3999 110.5C85.9734 110.5 82.3381 112.654 81.9532 115.388C81.2001 115.135 80.4106 115.008 79.6162 115.012C78.3859 114.988 77.1736 115.311 76.1184 115.944C74.7101 114.737 72.4525 113.958 69.9078 113.958C65.631 113.958 62.1821 116.155 62.1821 118.864V118.886C58.9714 119.072 56.3778 120.618 55.8646 122.61C55.4768 122.545 55.0845 122.513 54.6915 122.512C52.1285 122.512 50.0542 123.828 50.0542 125.454C50.0542 127.079 52.1285 128.395 54.6915 128.395C55.6952 128.409 56.6882 128.188 57.5906 127.748C58.1445 128.057 58.7624 128.234 59.396 128.264C59.7259 129.358 61.2289 130.186 63.0619 130.186C64.078 130.212 65.0765 129.917 65.9151 129.342C67.1554 130.522 69.2755 131.298 71.6736 131.298C74.0716 131.298 76.1703 130.528 77.4137 129.361C78.8372 130.827 81.385 131.805 84.3024 131.805C87.452 131.805 90.183 130.659 91.515 128.988C92.6911 130.103 94.692 130.836 96.9649 130.836C99.5004 130.836 101.697 129.92 102.787 128.582C103.234 128.688 103.691 128.741 104.15 128.741C104.925 128.748 105.693 128.593 106.404 128.285C107.312 128.592 108.263 128.746 109.221 128.741C112.478 128.741 115.117 127.067 115.117 124.998C115.117 122.93 112.465 121.268 109.209 121.268Z" fill="#F3FBFF"/>
<path d="M60.2884 122.579C59.43 122.572 58.5788 122.738 57.783 123.066C57.3706 121.313 55.0956 119.949 52.3428 119.949C52.0143 119.949 51.6861 119.969 51.3599 120.008C51.7924 119.445 52.0337 118.753 52.0473 118.038C52.0473 115.53 49.0127 113.5 45.2667 113.5C41.727 113.5 38.8196 115.316 38.5137 117.631C37.9124 117.419 37.2803 117.313 36.6442 117.315C35.657 117.296 34.6855 117.569 33.8467 118.101C32.723 117.084 30.9187 116.425 28.8842 116.425C25.4716 116.425 22.6982 118.276 22.6982 120.563V120.58C20.1311 120.738 18.0656 122.042 17.6464 123.736C17.3366 123.681 17.0227 123.653 16.7081 123.652C14.6462 123.652 13 124.764 13 126.135C13 127.506 14.6599 128.614 16.7081 128.614C17.5133 128.625 18.3092 128.437 19.0279 128.067C19.468 128.328 19.9628 128.478 20.4713 128.505C20.7325 129.428 21.9422 130.125 23.3959 130.125C24.2098 130.15 25.0096 129.904 25.6744 129.424C26.6676 130.416 28.3584 131.072 30.2795 131.072C32.2006 131.072 33.8742 130.423 34.8674 129.438C36.005 130.676 38.0463 131.5 40.3661 131.5C42.8851 131.5 45.064 130.536 46.1328 129.126C47.071 130.066 48.6725 130.683 50.487 130.683C52.5146 130.683 54.2673 129.911 55.1437 128.782C55.5003 128.871 55.866 128.916 56.2331 128.916C56.8533 128.922 57.4676 128.792 58.0339 128.533C58.7573 128.791 59.5187 128.921 60.2849 128.916C62.8899 128.916 65 127.513 65 125.76C65 124.006 62.8933 122.579 60.2884 122.579Z" fill="#CEECFD"/>
<path d="M60.3918 121.086C59.5507 121.08 58.7162 121.237 57.9327 121.548C57.5298 119.877 55.298 118.599 52.5979 118.599C52.2755 118.599 51.9535 118.619 51.6335 118.658C52.0508 118.129 52.2824 117.473 52.2913 116.795C52.2913 114.423 49.3156 112.5 45.6408 112.5C42.1692 112.5 39.3209 114.22 39.0213 116.409C38.4305 116.209 37.8116 116.109 37.189 116.112C36.2206 116.09 35.2659 116.346 34.4338 116.851C33.3316 115.891 31.5614 115.271 29.5673 115.271C26.2231 115.271 23.5091 117.022 23.5091 119.18V119.198C20.9915 119.345 18.9664 120.578 18.5565 122.168C18.2526 122.116 17.9451 122.089 17.637 122.088C15.6291 122.088 14 123.139 14 124.435C14 125.731 15.6291 126.782 17.637 126.782C18.424 126.791 19.2023 126.613 19.91 126.263C20.3429 126.51 20.8263 126.652 21.3221 126.677C21.5804 127.549 22.7652 128.207 24.191 128.207C24.9883 128.228 25.7717 127.993 26.4297 127.535C27.4009 128.474 29.061 129.094 30.9415 129.094C32.8219 129.094 34.4682 128.481 35.4429 127.549C36.5588 128.719 38.5425 129.5 40.8432 129.5C43.3126 129.5 45.4514 128.586 46.4984 127.255C47.4214 128.141 48.9884 128.726 50.769 128.726C52.7563 128.726 54.4783 127.997 55.3325 126.929C55.6823 127.013 56.0406 127.055 56.4001 127.055C57.0066 127.065 57.6085 126.946 58.1669 126.705C58.8799 126.945 59.627 127.063 60.378 127.055C62.9301 127.055 65 125.72 65 124.07C65 122.42 62.937 121.086 60.3918 121.086Z" fill="#F3FBFF"/>
<path d="M44.5008 13.9725L43.6158 12.2225C43.2724 11.5497 42.7952 10.9542 42.2133 10.4725L41.1983 9.63C41.1336 9.5783 41.0819 9.51208 41.0475 9.4367C41.0132 9.36132 40.997 9.27891 41.0004 9.19613C41.0039 9.11336 41.0267 9.03255 41.0672 8.96025C41.1076 8.88796 41.1645 8.82621 41.2333 8.78L41.5708 8.5425C42.509 7.89268 43.28 7.02999 43.8208 6.025L44.6258 4.5L45.4608 6.27C45.8134 7.01684 46.3419 7.66707 47.0008 8.165L47.8983 8.8525C47.9655 8.90172 48.0201 8.96608 48.0577 9.04035C48.0954 9.11463 48.115 9.19673 48.115 9.28C48.115 9.36327 48.0954 9.44537 48.0577 9.51965C48.0201 9.59392 47.9655 9.65828 47.8983 9.7075L47.0933 10.3075C46.3242 10.8732 45.6983 11.6113 45.2658 12.4625L44.5008 13.9725Z" fill="#FCE275"/>
<path d="M139.939 40.585L138.439 37.625C137.857 36.4824 137.047 35.4715 136.059 34.655L134.334 33.225C134.224 33.1365 134.137 33.0236 134.079 32.8954C134.022 32.7672 133.995 32.6272 134.001 32.4868C134.007 32.3463 134.046 32.2092 134.114 32.0864C134.183 31.9637 134.28 31.8587 134.396 31.78L134.971 31.38C136.557 30.2731 137.858 28.8064 138.769 27.1L140.154 24.5L141.569 27.5C142.169 28.7648 143.065 29.8666 144.181 30.7125L145.714 31.88C145.828 31.9635 145.921 32.0729 145.986 32.1994C146.05 32.3258 146.084 32.4656 146.084 32.6075C146.084 32.7494 146.05 32.8892 145.986 33.0156C145.921 33.1421 145.828 33.2515 145.714 33.335L144.349 34.35C143.045 35.312 141.984 36.5643 141.249 38.0075L139.939 40.585Z" fill="#FCE275"/>
<path d="M10.631 41.75L9.20597 38.9425C8.65744 37.8588 7.89152 36.8997 6.95596 36.125L5.32096 34.77C5.21671 34.6866 5.13343 34.58 5.07779 34.4586C5.02215 34.3373 4.99571 34.2046 5.00057 34.0712C5.00543 33.9378 5.04146 33.8073 5.10578 33.6904C5.1701 33.5734 5.26092 33.4731 5.37096 33.3975L5.91596 33.0175C7.42106 31.9706 8.65651 30.5818 9.52096 28.965L10.8335 26.5L12.1785 29.3525C12.7473 30.5521 13.5972 31.5966 14.656 32.3975L16.1085 33.505C16.217 33.5844 16.3052 33.6882 16.366 33.8081C16.4269 33.928 16.4586 34.0606 16.4586 34.195C16.4586 34.3294 16.4269 34.462 16.366 34.5819C16.3052 34.7018 16.217 34.8056 16.1085 34.885L14.811 35.8475C13.5753 36.7607 12.5688 37.9486 11.871 39.3175L10.631 41.75Z" fill="#FCE275"/>
</g>
<defs>
<clipPath id="clip0_142_1063">
<rect width="169" height="134" fill="white" transform="translate(0 0.5)"/>
</clipPath>
</defs>
</svg>
