<svg width="20" height="20" viewBox="0 0 20 20" fill="none" xmlns="http://www.w3.org/2000/svg">
<path d="M11.3217 10L15.8083 5.51288C15.9317 5.38936 15.9998 5.22457 16 5.04885C16 4.87303 15.9319 4.70805 15.8083 4.58472L15.4151 4.19162C15.2915 4.06781 15.1267 4 14.9508 4C14.7752 4 14.6104 4.06781 14.4868 4.19162L10.0002 8.67845L5.51337 4.19162C5.38995 4.06781 5.22507 4 5.04927 4C4.87366 4 4.70878 4.06781 4.58537 4.19162L4.192 4.58472C3.936 4.84074 3.936 5.25715 4.192 5.51288L8.67873 10L4.192 14.4869C4.06849 14.6106 4.00049 14.7754 4.00049 14.9512C4.00049 15.1269 4.06849 15.2917 4.192 15.4153L4.58527 15.8084C4.70868 15.9321 4.87366 16 5.04917 16C5.22498 16 5.38985 15.9321 5.51327 15.8084L10.0001 11.3215L14.4867 15.8084C14.6103 15.9321 14.7751 16 14.9507 16H14.9509C15.1266 16 15.2914 15.9321 15.415 15.8084L15.8082 15.4153C15.9316 15.2918 15.9997 15.1269 15.9997 14.9512C15.9997 14.7754 15.9316 14.6106 15.8082 14.487L11.3217 10Z" fill="#F5A6A5"/>
</svg>
