<svg width="30" height="30" viewBox="0 0 30 30" fill="none" xmlns="http://www.w3.org/2000/svg">
<path d="M7.41521 23.4052C7.25285 23.4052 7.09412 23.3571 6.95911 23.2669C6.8241 23.1767 6.71887 23.0485 6.65673 22.8985C6.59459 22.7485 6.57833 22.5834 6.61002 22.4242C6.6417 22.2649 6.7199 22.1186 6.83473 22.0039L22.0035 6.83511C22.1574 6.68116 22.3662 6.59467 22.584 6.59467C22.8017 6.59467 23.0105 6.68116 23.1644 6.83511C23.3184 6.98906 23.4049 7.19787 23.4049 7.41559C23.4049 7.63332 23.3184 7.84212 23.1644 7.99608L7.99569 23.1648C7.91953 23.2411 7.82905 23.3017 7.72943 23.3429C7.62981 23.3841 7.52303 23.4053 7.41521 23.4052Z" fill="white"/>
<path d="M22.5839 23.4052C22.4761 23.4053 22.3693 23.3841 22.2697 23.3429C22.1701 23.3017 22.0796 23.2411 22.0034 23.1648L6.83468 7.99608C6.68073 7.84212 6.59424 7.63332 6.59424 7.41559C6.59424 7.19787 6.68073 6.98906 6.83468 6.83511C6.98864 6.68116 7.19744 6.59467 7.41517 6.59467C7.63289 6.59467 7.8417 6.68116 7.99565 6.83511L23.1644 22.0039C23.2792 22.1186 23.3574 22.2649 23.3891 22.4242C23.4208 22.5834 23.4045 22.7485 23.3424 22.8985C23.2803 23.0485 23.175 23.1767 23.04 23.2669C22.905 23.3571 22.7463 23.4052 22.5839 23.4052Z" fill="white"/>
</svg>
