<svg width="169" height="135" viewBox="0 0 169 135" fill="none" xmlns="http://www.w3.org/2000/svg">
<g clip-path="url(#clip0_142_632)">
<circle cx="101.228" cy="67.5" r="67" fill="#F4F9F8"/>
<g clip-path="url(#clip1_142_632)">
<path d="M82.7905 86.6959L93.029 57.183C93.029 49.1272 95.6587 41.5449 100.213 35.3865C107.274 33.485 110.719 29.0865 114.305 23.9063C115.829 23.2023 117.415 22.5971 119.056 22.0998L119.427 21.9873L122.204 23.9947V70.5109C122.204 84.5002 117.071 95.4867 104.509 101.644L103.693 105.44L82.7905 86.6959Z" fill="#736572"/>
<path d="M126.228 23.9949V33.2947L123.21 42.943L126.228 55.4275V70.5099C126.228 72.7422 126.025 74.9433 125.634 77.0916C122.204 81.0517 120.412 85.8807 119.176 92.1281C115.733 96.8449 111.152 100.758 105.705 103.428L103.693 105.44L100.804 102.848C112.707 96.492 120.192 84.0734 120.192 70.5099V23.9949C120.192 23.2123 119.898 22.514 119.427 21.9869L122.335 21.1057C124.272 20.5182 126.228 21.9687 126.228 23.9949Z" fill="#615260"/>
<path d="M122.653 78.3299C121.655 83.8088 120.856 84.1476 117.624 88.5722L115.192 88.9914L93.0288 71.5443V57.1842C93.0288 55.3412 93.1657 53.5242 93.4353 51.7435L120.122 72.7531L122.653 78.3299Z" fill="#615260"/>
<path d="M125.633 77.0916C124.635 82.5705 122.407 87.7033 119.176 92.1278L115.192 88.991C118.043 84.1117 119.767 78.5645 120.121 72.7535L125.633 77.0916Z" fill="#564A56"/>
<path d="M122.992 38.6523L120.192 50.6753L100.421 35.1116C104.001 30.3591 108.739 26.4759 114.305 23.9064L120.192 28.5419L122.992 38.6523Z" fill="#615260"/>
<path d="M126.228 33.2947V55.4275L120.192 50.6749V28.5421L126.228 33.2947Z" fill="#564A56"/>
<path d="M48.6074 76.5L44.9321 81.8838C36.4244 93.5476 31 111.217 31 130.995V131.495C31 133.155 31.8082 134.5 32.8052 134.5H100.195C101.192 134.5 102 133.155 102 131.495V130.995C102 110.047 95.915 91.4646 86.5263 79.8779L48.6074 76.5Z" fill="#F4E5E0"/>
<path d="M107 130.995V131.495C107 133.155 106.193 134.5 105.198 134.5H99.1929C100.188 134.5 100.995 133.155 100.995 131.495V130.995C100.995 110.047 94.921 91.4654 85.5503 79.8783L48 76.944L48.3043 76.5L91.5559 79.8783C100.926 91.4654 107 110.047 107 130.995Z" fill="#E6D6D1"/>
<path d="M81.1579 75.3591C78.1052 75.3591 75.3724 76.7207 73.5272 78.8673C72.161 78.2929 70.6604 77.975 69.0854 77.975C67.5104 77.975 66.0099 78.2929 64.6437 78.8673C62.7987 76.7207 60.0657 75.3591 57.013 75.3591C51.4567 75.3591 46.9526 79.8632 46.9526 85.4195C46.9526 90.9757 51.4567 95.4798 57.013 95.4798C57.2083 95.4798 57.4022 95.4742 57.5948 95.4628C58.5692 95.406 59.5097 95.8271 60.1185 96.5902C62.2194 99.224 65.4544 100.912 69.0854 100.912C72.7165 100.912 75.9517 99.224 78.0524 96.5902C78.6612 95.8271 79.6017 95.406 80.5761 95.4628C80.7685 95.4742 80.9626 95.4798 81.1579 95.4798C86.7142 95.4798 91.2183 90.9757 91.2183 85.4195C91.2183 84.4083 91.069 83.4322 90.7915 82.5115C88.2704 78.3068 85.7028 75.3591 81.1579 75.3591Z" fill="white"/>
<path d="M90.7895 82.5121C89.2745 80.9226 87.6245 79.4638 85.856 78.1519L74.7915 77.6328C76.5259 76.2123 78.7411 75.3591 81.1577 75.3591C83.9343 75.3591 86.4495 76.4859 88.2704 78.3068C89.4274 79.4638 90.3048 80.9023 90.7895 82.5121Z" fill="#F7F7F7"/>
<path d="M27.8895 49.0214L30.1297 54.8259L40.0994 51.263C43.6789 49.0075 45.51 45.7636 49.4979 44.482L47.1363 40.638C45.0898 37.3072 41.6607 35.0663 37.7885 34.5296L32.4715 33.7927C31.6531 33.6792 30.8486 34.0775 30.4428 34.797L28.6998 37.8863C26.7795 41.2904 26.482 45.3749 27.8895 49.0214Z" fill="#F4E5E0"/>
<path d="M43.8625 46.8671L41.9953 44.0294C40.9033 42.3697 39.1609 41.2484 37.1978 40.9421L35.221 40.6337C34.9421 40.5902 34.6703 40.7458 34.5666 41.0083L34.0052 42.4294C33.3279 44.1441 33.35 46.0558 34.0666 47.7544L35.9767 52.2818L43.8625 46.8671Z" fill="#E6D6D1"/>
<path d="M110.281 49.0215L108.041 54.826L97.5549 50.6754C93.9754 48.4199 92.6607 45.7635 88.6729 44.4818L91.0344 40.6379C93.0809 37.307 96.51 35.0662 100.382 34.5295L105.699 33.7926C106.518 33.6791 107.322 34.0773 107.728 34.7969L109.471 37.8861C111.391 41.2904 111.688 45.375 110.281 49.0215Z" fill="#F4E5E0"/>
<path d="M94.3081 46.8671L96.1753 44.0294C97.2673 42.3697 99.0097 41.2484 100.973 40.9421L102.95 40.6337C103.228 40.5902 103.5 40.7458 103.604 41.0083L104.165 42.4294C104.843 44.1441 104.821 46.0558 104.104 47.7544L102.194 52.2818L94.3081 46.8671Z" fill="#E6D6D1"/>
<path d="M107.147 58.5801L105.363 60.0428C103.889 61.2518 103.889 63.5072 105.363 64.716L107.147 66.1787C107.679 66.6146 107.627 67.4434 107.046 67.8098L98.7852 74.3928C90.7465 79.458 81.4043 82.7236 71.9029 82.7236H64.9109C59.9672 82.7236 55.076 81.9959 50.3887 80.5844C47.1736 75.8076 45.1551 76.1791 41.299 73.7494L37.1684 74.4068L26.6984 67.8098C26.1168 67.4434 26.065 66.6146 26.5967 66.1787L28.3805 64.716C29.8549 63.507 29.8549 61.2516 28.3805 60.0428L26.5967 58.5801C26.065 58.1441 26.1166 57.3154 26.6984 56.949L38.0629 49.7883C46.1016 44.723 55.4092 42.0352 64.9107 42.0352H72.1182C81.6195 42.0352 89.4238 44.8752 97.4625 49.9404L107.046 56.949C107.627 57.3156 107.679 58.1441 107.147 58.5801Z" fill="#FCF1F2"/>
<path d="M111.472 67.8098L101.005 74.4053L98.6159 74.2543C94.7601 76.6836 90.3421 77.6068 87.7819 80.584C83.0948 81.9955 78.2036 82.7232 73.2603 82.7232H67.2241C76.7251 82.7232 86.0329 80.0352 94.0712 74.9707L105.435 67.8098C106.017 67.4436 106.069 66.6147 105.538 66.1779L103.753 64.7152C102.278 63.508 102.278 61.2525 103.753 60.0432L105.538 58.5805C106.069 58.1439 106.017 57.3148 105.435 56.9486L94.0712 49.7877C86.0329 44.7232 76.7251 42.0352 67.2241 42.0352H73.2603C82.7612 42.0352 92.069 44.7232 100.107 49.7877L111.472 56.9486C112.053 57.3148 112.105 58.1438 111.574 58.5805L109.789 60.0432C108.315 61.2523 108.315 63.508 109.789 64.7152L111.574 66.1779C112.105 66.6147 112.053 67.4437 111.472 67.8098Z" fill="#F4E5E0"/>
<path d="M92.0797 78.2683C92.0797 78.2683 87.9143 78.4883 87.6995 78.3732C87.2805 74.6465 85.2729 71.2484 82.1514 69.0855L77.1957 65.6488C74.1514 63.5281 73.2944 59.3994 75.242 56.2404C76.5661 54.0894 78.8598 52.9144 81.2037 52.9144C82.5256 52.9144 83.8637 53.2886 85.0508 54.0715L91.1676 58.1097C95.7803 61.1539 99.0266 65.7666 100.392 70.9873C100.684 72.1019 92.0797 78.2683 92.0797 78.2683Z" fill="#736572"/>
<path d="M101.005 74.4054L100.108 74.9709C96.2504 77.4015 92.1035 79.2828 87.7816 80.5826V79.8341C87.7816 79.3431 87.7535 78.8562 87.6992 78.3734C89.8924 77.3976 92.0232 76.2607 94.0715 74.971L100.393 70.9871C100.685 72.1015 100.89 73.2445 101.005 74.4054Z" fill="#615260"/>
<path d="M60.9746 65.6488L56.0189 69.0855C52.4938 71.5281 50.3893 75.5463 50.3893 79.834V80.5824C46.0674 79.2826 41.9205 77.4014 38.0633 74.9707L37.168 74.4072C37.8178 67.8096 41.4055 61.8035 47.0029 58.1094L53.1197 54.0711C54.3068 53.2885 55.6449 52.9141 56.9668 52.9141C59.3109 52.9141 61.6047 54.0891 62.9285 56.24C64.876 59.3994 64.0189 63.5281 60.9746 65.6488Z" fill="#736572"/>
<path d="M81.0568 63.1862C80.2234 63.1862 79.5479 62.5106 79.5479 61.6772V58.659C79.5479 57.8254 80.2234 57.15 81.0568 57.15C81.8902 57.15 82.5658 57.8256 82.5658 58.659V61.6772C82.566 62.5106 81.8902 63.1862 81.0568 63.1862Z" fill="#564A56"/>
<path d="M57.1135 63.1862C56.2801 63.1862 55.6045 62.5106 55.6045 61.6772V58.659C55.6045 57.8254 56.2801 57.15 57.1135 57.15C57.9469 57.15 58.6225 57.8256 58.6225 58.659V61.6772C58.6225 62.5106 57.9469 63.1862 57.1135 63.1862Z" fill="#564A56"/>
<path d="M73.5059 75.158H73.1035C72.2713 75.158 70.5945 74.481 70.5945 73.649V70.832C70.5945 69.9984 69.9189 69.323 69.0855 69.323C68.2521 69.323 67.5766 69.9986 67.5766 70.832V73.649C67.5766 74.4812 65.8996 75.158 65.0676 75.158H64.6652C63.8318 75.158 63.1562 75.8335 63.1562 76.6669C63.1562 77.5003 63.8318 78.1759 64.6652 78.1759H65.0676C66.2262 78.1759 68.2842 77.738 69.0857 77.0195C69.8873 77.738 71.9453 78.1759 73.1039 78.1759H73.5062C74.3396 78.1759 75.0152 77.5003 75.0152 76.6669C75.0152 75.8335 74.3393 75.158 73.5059 75.158Z" fill="#D3C6C3"/>
<path d="M69.0855 72.7435C70.7523 72.7435 72.1037 71.3923 72.1037 69.7253C72.1037 68.0585 70.7525 66.7072 69.0855 66.7072C67.4188 66.7072 66.0674 68.0583 66.0674 69.7253C66.0674 71.3921 67.4186 72.7435 69.0855 72.7435Z" fill="#736572"/>
</g>
<path d="M8.00833 127.151L42.2793 130.851L74.8071 127.151L66.6396 84.8396C66.3774 83.481 65.1947 82.5 63.8193 82.5H2.87408C1.06745 82.5 -0.290771 84.1575 0.0537796 85.9416L8.00833 127.151Z" fill="#D9DEED"/>
<path d="M2.91391 82.5H13.0397C11.2082 82.5 9.83083 84.1594 10.1802 85.9456L18.2456 127.202H8.11983L0.0543976 85.9456C-0.294943 84.1594 1.08241 82.5 2.91391 82.5Z" fill="#CED3E1"/>
<path d="M11.9129 134.5H87.5432C89.5783 134.5 91.228 132.711 91.228 130.505V130.495C91.228 128.289 89.5783 126.5 87.5432 126.5H8.22803V130.505C8.22803 132.711 9.87779 134.5 11.9129 134.5Z" fill="#BEC6DA"/>
<path d="M18.2085 127.202V130.855C18.2085 132.868 19.8587 134.5 21.8945 134.5H11.8964C9.86077 134.5 8.21032 132.868 8.21032 130.855V127.202H18.2085Z" fill="#B3BACD"/>
<path d="M37.8596 112.605C34.0808 112.605 31.0174 109.542 31.0174 105.763C31.0174 101.984 34.0808 98.921 37.8596 98.921C41.6383 98.921 44.7017 101.984 44.7017 105.763C44.7017 109.542 41.6383 112.605 37.8596 112.605Z" fill="white"/>
</g>
<defs>
<clipPath id="clip0_142_632">
<rect width="169" height="134" fill="white" transform="translate(0 0.5)"/>
</clipPath>
<clipPath id="clip1_142_632">
<rect width="100" height="119" fill="white" transform="translate(26 15.5)"/>
</clipPath>
</defs>
</svg>
