<svg width="28" height="28" viewBox="0 0 28 28" fill="none" xmlns="http://www.w3.org/2000/svg">
<path d="M10.5245 25.9583C10.1377 25.9599 9.76618 25.8077 9.4916 25.5353C9.21701 25.2629 9.06188 24.8926 9.06033 24.5058C9.05879 24.1191 9.21095 23.7475 9.48335 23.4729C9.75574 23.1983 10.1261 23.0432 10.5128 23.0417H10.5245C10.9113 23.0417 11.2822 23.1953 11.5557 23.4688C11.8292 23.7423 11.9828 24.1132 11.9828 24.5C11.9828 24.8868 11.8292 25.2577 11.5557 25.5312C11.2822 25.8047 10.9113 25.9583 10.5245 25.9583ZM21.3162 24.5C21.3162 24.1132 21.1625 23.7423 20.889 23.4688C20.6155 23.1953 20.2446 23.0417 19.8578 23.0417H19.8462C19.5582 23.044 19.2774 23.1315 19.0392 23.2931C18.8009 23.4547 18.6158 23.6833 18.5072 23.95C18.3986 24.2166 18.3714 24.5095 18.429 24.7916C18.4865 25.0737 18.6263 25.3325 18.8308 25.5353C19.0352 25.738 19.295 25.8758 19.5776 25.9311C19.8602 25.9864 20.1528 25.9569 20.4186 25.8462C20.6844 25.7355 20.9114 25.5485 21.0712 25.309C21.2309 25.0694 21.3162 24.7879 21.3162 24.5ZM24.4533 9.75334L23.275 16.9633C23.2599 17.3859 23.156 17.8005 22.9699 18.1802C22.7838 18.5599 22.5198 18.8961 22.1951 19.1669C21.8703 19.4377 21.4922 19.637 21.0852 19.7518C20.6783 19.8667 20.2517 19.8944 19.8333 19.8333H10.185C9.62241 19.8347 9.07838 19.6322 8.65366 19.2632C8.22893 18.8943 7.95231 18.3839 7.875 17.8267L6.12383 5.63734C6.07807 5.28694 5.90593 4.9653 5.63976 4.73286C5.37359 4.50042 5.03171 4.37317 4.67833 4.375H4.375C4.14294 4.375 3.92038 4.28282 3.75628 4.11872C3.59219 3.95463 3.5 3.73207 3.5 3.5C3.5 3.26794 3.59219 3.04538 3.75628 2.88129C3.92038 2.71719 4.14294 2.625 4.375 2.625H4.67833C5.45249 2.62004 6.20193 2.89731 6.78644 3.40494C7.37095 3.91257 7.75047 4.61579 7.854 5.383L8.09783 7H22.1667C22.5079 7.00126 22.8448 7.07735 23.1534 7.22293C23.4621 7.3685 23.7351 7.58002 23.9531 7.84255C24.1712 8.10509 24.329 8.41226 24.4154 8.74241C24.5018 9.07255 24.5148 9.41764 24.4533 9.75334ZM18.0915 11.242C18.0102 11.1607 17.9138 11.0962 17.8076 11.0522C17.7014 11.0082 17.5875 10.9855 17.4726 10.9855C17.3576 10.9855 17.2438 11.0082 17.1376 11.0522C17.0314 11.0962 16.9349 11.1607 16.8537 11.242L14.3617 13.734L13.4283 12.8007C13.2634 12.6412 13.0424 12.5529 12.813 12.5548C12.5835 12.5567 12.364 12.6486 12.2017 12.8107C12.0394 12.9729 11.9473 13.1923 11.9452 13.4217C11.9431 13.6512 12.0312 13.8722 12.1905 14.0373L13.7457 15.5937C13.9101 15.7573 14.1326 15.8492 14.3646 15.8492C14.5966 15.8492 14.8191 15.7573 14.9835 15.5937L18.0915 12.4833C18.1733 12.402 18.2383 12.3053 18.2826 12.1988C18.3269 12.0923 18.3497 11.978 18.3497 11.8627C18.3497 11.7473 18.3269 11.6331 18.2826 11.5265C18.2383 11.42 18.1733 11.3233 18.0915 11.242Z" fill="#90C5B9"/>
</svg>
