<svg width="28" height="28" viewBox="0 0 28 28" fill="none" xmlns="http://www.w3.org/2000/svg">
<path d="M13.9998 14C13.9998 17.0932 11.4924 19.5997 8.3998 19.5997C5.30804 19.5997 2.7998 17.0932 2.7998 14C2.7998 10.9074 5.30804 8.40002 8.3998 8.40002C11.4924 8.40002 13.9998 10.9074 13.9998 14Z" fill="#90C5B9"/>
<path d="M15.4001 25.1997C16.9465 25.1997 18.2001 23.9461 18.2001 22.3997C18.2001 20.8533 16.9465 19.5997 15.4001 19.5997C13.8537 19.5997 12.6001 20.8533 12.6001 22.3997C12.6001 23.9461 13.8537 25.1997 15.4001 25.1997Z" fill="#90C5B9"/>
<path d="M25.2 21.4665C24.1682 21.4665 23.3332 22.3031 23.3332 23.333H22.4C22.4 22.3031 21.5633 21.4665 20.5332 21.4665V20.533C21.5653 20.533 22.4 19.6963 22.4 18.6665H23.3332C23.3332 19.6963 24.1698 20.533 25.2 20.533V21.4665Z" fill="#90C5B9"/>
<path d="M9.33314 23.333C9.84856 23.333 10.2664 22.9151 10.2664 22.3997C10.2664 21.8843 9.84856 21.4665 9.33314 21.4665C8.81773 21.4665 8.3999 21.8843 8.3999 22.3997C8.3999 22.9151 8.81773 23.333 9.33314 23.333Z" fill="#90C5B9"/>
<path d="M3.73304 8.39999C4.24846 8.39999 4.66628 7.98216 4.66628 7.46675C4.66628 6.95133 4.24846 6.53351 3.73304 6.53351C3.21763 6.53351 2.7998 6.95133 2.7998 7.46675C2.7998 7.98216 3.21763 8.39999 3.73304 8.39999Z" fill="#90C5B9"/>
<path d="M8.8668 6.53352C9.64 6.53352 10.2668 5.90672 10.2668 5.13352C10.2668 4.36032 9.64 3.73352 8.8668 3.73352C8.0936 3.73352 7.4668 4.36032 7.4668 5.13352C7.4668 5.90672 8.0936 6.53352 8.8668 6.53352Z" fill="#90C5B9"/>
<path d="M6.5334 23.7997C6.5334 24.5745 5.90648 25.1997 5.1334 25.1997C4.3606 25.1997 3.7334 24.5745 3.7334 23.7997C3.7334 23.0266 4.3606 22.3997 5.1334 22.3997C5.90648 22.3997 6.5334 23.0266 6.5334 23.7997Z" fill="#90C5B9"/>
<path d="M17.7334 2.80029C14.7766 2.80029 12.2291 4.52369 11.0195 7.01653C13.847 8.08109 15.8669 10.8055 15.8669 14C15.8669 15.1659 15.5917 16.2661 15.1123 17.25C15.9288 17.558 16.8094 17.733 17.7334 17.733C21.8569 17.733 25.2001 14.3903 25.2001 10.2668C25.2001 6.14321 21.8569 2.80029 17.7334 2.80029ZM21.4669 10.2668C21.4669 8.20429 19.797 6.53353 17.7334 6.53353V4.66677C20.8271 4.66677 23.3334 7.17333 23.3334 10.2668H21.4669Z" fill="#90C5B9"/>
</svg>
