<svg width="28" height="28" viewBox="0 0 28 28" fill="none" xmlns="http://www.w3.org/2000/svg">
<g clip-path="url(#clip0_142_335)">
<path d="M5.83315 7.00004C6.47747 7.00004 6.9998 6.47772 6.9998 5.8334C6.9998 5.18907 6.47747 4.66675 5.83315 4.66675C5.18883 4.66675 4.6665 5.18907 4.6665 5.8334C4.6665 6.47772 5.18883 7.00004 5.83315 7.00004Z" fill="#90C5B9"/>
<path d="M11.6666 7.00004C12.311 7.00004 12.8333 6.47772 12.8333 5.8334C12.8333 5.18907 12.311 4.66675 11.6666 4.66675C11.0223 4.66675 10.5 5.18907 10.5 5.8334C10.5 6.47772 11.0223 7.00004 11.6666 7.00004Z" fill="#90C5B9"/>
<path d="M9.33315 4.66667C9.97747 4.66667 10.4998 4.14434 10.4998 3.50002C10.4998 2.8557 9.97747 2.33337 9.33315 2.33337C8.68883 2.33337 8.1665 2.8557 8.1665 3.50002C8.1665 4.14434 8.68883 4.66667 9.33315 4.66667Z" fill="#90C5B9"/>
<path d="M5.83315 2.3333C6.47747 2.3333 6.9998 1.81097 6.9998 1.16665C6.9998 0.522326 6.47747 0 5.83315 0C5.18883 0 4.6665 0.522326 4.6665 1.16665C4.6665 1.81097 5.18883 2.3333 5.83315 2.3333Z" fill="#90C5B9"/>
<path d="M9.33315 9.3333C9.97747 9.3333 10.4998 8.81097 10.4998 8.16665C10.4998 7.52233 9.97747 7 9.33315 7C8.68883 7 8.1665 7.52233 8.1665 8.16665C8.1665 8.81097 8.68883 9.3333 9.33315 9.3333Z" fill="#90C5B9"/>
<path d="M5.83315 11.6667C6.47747 11.6667 6.9998 11.1443 6.9998 10.5C6.9998 9.8557 6.47747 9.33337 5.83315 9.33337C5.18883 9.33337 4.6665 9.8557 4.6665 10.5C4.6665 11.1443 5.18883 11.6667 5.83315 11.6667Z" fill="#90C5B9"/>
<path d="M1.16665 7.00004C1.81097 7.00004 2.3333 6.47772 2.3333 5.8334C2.3333 5.18907 1.81097 4.66675 1.16665 4.66675C0.522326 4.66675 0 5.18907 0 5.8334C0 6.47772 0.522326 7.00004 1.16665 7.00004Z" fill="#90C5B9"/>
<path d="M19.8335 11.6666C17.5001 13.1833 12.8335 15.1666 12.8335 22.1666V24.5H27.8835C27.5807 21.5166 26.2141 18.7419 24.0335 16.6833C23.4542 16.1852 23.1147 15.4639 23.1001 14.7C23.1001 13.5333 23.3335 12.0166 23.3335 11.6666H19.8335Z" fill="#90C5B9"/>
<path d="M12.8335 25.6666V26.8333C12.8335 27.4776 13.3558 27.9999 14.0001 27.9999H26.8335C27.4778 27.9999 28.0001 27.4776 28.0001 26.8333C28.0001 26.4833 28.0001 26.0166 28.0001 25.6666H12.8335Z" fill="#90C5B9"/>
<path d="M16.3334 10.5H17.5L18.3166 7.34998C19.4373 7.97374 20.0446 9.23495 19.8333 10.5H23.8L24.5 8.51663V5.83327C24.5 5.18895 23.9777 4.66663 23.3334 4.66663H14V6.99998H16.3334V10.5Z" fill="#90C5B9"/>
</g>
<defs>
<clipPath id="clip0_142_335">
<rect width="28" height="28" fill="white"/>
</clipPath>
</defs>
</svg>
