<svg width="28" height="28" viewBox="0 0 28 28" fill="none" xmlns="http://www.w3.org/2000/svg">
<g clip-path="url(#clip0_142_369)">
<path d="M17.2812 15.6406C21.3523 15.6406 24.6641 12.3288 24.6641 8.25781C24.6641 4.1868 21.3523 0.875 17.2812 0.875C13.2102 0.875 9.89844 4.1868 9.89844 8.25781C9.89844 12.3288 13.2102 15.6406 17.2812 15.6406ZM16.4609 4.30728V3.36884C16.4609 2.91531 16.8279 2.54852 17.2812 2.54852C17.7346 2.54852 18.1016 2.91531 18.1016 3.36884V4.31647C18.6429 4.51022 19.1169 4.87488 19.4121 5.38586C19.6396 5.7785 19.5051 6.27988 19.1133 6.50653C18.7177 6.73489 18.2178 6.59946 17.9926 6.20789C17.8461 5.95389 17.5737 5.79688 17.2812 5.79688C16.8286 5.79688 16.4609 6.16452 16.4609 6.61719C16.4609 7.06985 16.8286 7.4375 17.2812 7.4375C18.6382 7.4375 19.7422 8.5415 19.7422 9.89844C19.7422 10.9666 19.0543 11.8685 18.1016 12.2083V13.1141C18.1016 13.5674 17.7346 13.9344 17.2812 13.9344C16.8279 13.9344 16.4609 13.5674 16.4609 13.1141V12.1992C15.9196 12.0052 15.4456 11.6407 15.1504 11.1298C14.9229 10.7371 15.0574 10.2357 15.4492 10.0091C15.8416 9.77838 16.3439 9.91531 16.5699 10.3077C16.7164 10.5617 16.9888 10.7188 17.2812 10.7188C17.7339 10.7188 18.1016 10.3511 18.1016 9.89844C18.1016 9.44577 17.7339 9.07812 17.2812 9.07812C15.9243 9.07812 14.8203 7.97412 14.8203 6.61719C14.8203 5.54907 15.5082 4.64716 16.4609 4.30728Z" fill="#90C5B9"/>
<path d="M27.0436 16.697C26.4668 16.4699 25.8099 16.6186 25.387 17.0715C25.3936 17.0647 23.7758 18.7437 21.2679 21.4155C20.8742 21.8586 20.3329 22.1211 19.7422 22.1702C19.5813 22.2241 13.2673 22.2031 13.0977 22.2031C12.6382 22.2031 12.2773 21.8421 12.2773 21.3828C12.2773 20.9233 12.6382 20.5625 13.0977 20.5625H18.9219C19.8281 20.5625 20.5625 19.8279 20.5625 18.9219C20.5625 18.0157 19.8281 17.2813 18.9219 17.2813H14.3117L13.6883 16.7397C11.5145 14.8517 8.28238 14.8517 6.10855 16.7397L5.4852 17.2813H0.820312C0.367218 17.2813 0 17.6485 0 18.1016V24.6641C0 25.1172 0.367218 25.4844 0.820312 25.4844H5.68195C6.125 25.6156 6.56784 25.8125 7.04379 26.0095C8.25781 26.5343 9.63611 27.125 11.6046 27.125H19.7422C21.0333 27.125 22.2488 26.5173 23.0234 25.4844L27.5078 19.5781C27.8359 19.1515 28 18.6429 28 18.1016C27.9998 17.481 27.6204 16.9243 27.0436 16.697Z" fill="#90C5B9"/>
</g>
<defs>
<clipPath id="clip0_142_369">
<rect width="28" height="28" fill="white"/>
</clipPath>
</defs>
</svg>
