<svg width="20" height="20" viewBox="0 0 20 20" fill="none" xmlns="http://www.w3.org/2000/svg">
<g clip-path="url(#clip0_130_377)">
<path d="M17.7938 18.0967C14.7334 20.5949 5.17764 20.5949 2.17973 18.0967C-0.88062 15.5984 -0.568344 4.91842 2.17973 2.10789C4.92781 -0.702631 15.0457 -0.702631 17.7938 2.10789C20.5419 4.91842 20.8541 15.5985 17.7938 18.0967Z" fill="white"/>
<path d="M8.67999 15.0352C8.28219 15.0352 7.88443 14.8647 7.65712 14.5238L4.47485 10.4322C4.02023 9.86399 4.13391 9.06842 4.70216 8.6138C5.27042 8.15918 6.06598 8.27285 6.52061 8.84111L8.67999 11.6256L13.4534 5.43153C13.9081 4.86328 14.7036 4.7496 15.2719 5.20422C15.8401 5.65884 15.9538 6.45441 15.4992 7.02267L9.70287 14.5238C9.41874 14.8079 9.0778 15.0352 8.67999 15.0352Z" fill="#7ABAAC"/>
</g>
<defs>
<clipPath id="clip0_130_377">
<rect width="20" height="20" fill="white"/>
</clipPath>
</defs>
</svg>
