<svg width="28" height="28" viewBox="0 0 28 28" fill="none" xmlns="http://www.w3.org/2000/svg">
<g clip-path="url(#clip0_142_356)">
<path d="M19.3915 10.3417L16.3641 9.90125C16.2838 9.8896 16.2077 9.85862 16.1421 9.81099C16.0765 9.76335 16.0235 9.70048 15.9876 9.6278L14.6339 6.87834C14.5756 6.75979 14.4853 6.65994 14.3732 6.59012C14.2611 6.52029 14.1316 6.48328 13.9995 6.48328C13.8674 6.48328 13.738 6.52029 13.6259 6.59012C13.5137 6.65994 13.4234 6.75979 13.3651 6.87834L12.0119 9.6278C11.976 9.70048 11.923 9.76335 11.8574 9.81099C11.7919 9.85862 11.7157 9.8896 11.6355 9.90125L8.60757 10.3417C8.47687 10.3612 8.3542 10.4168 8.25338 10.5022C8.15256 10.5876 8.07759 10.6995 8.03691 10.8252C7.99623 10.951 7.99146 11.0856 8.02312 11.2139C8.05479 11.3422 8.12164 11.4591 8.21614 11.5514L10.4067 13.6905C10.4648 13.7471 10.5082 13.8169 10.5333 13.8939C10.5584 13.971 10.5644 14.053 10.5507 14.1329L10.0328 17.1528C10.0103 17.283 10.0247 17.4169 10.0743 17.5393C10.124 17.6617 10.2069 17.7678 10.3136 17.8455C10.4204 17.9233 10.5468 17.9696 10.6786 17.9793C10.8103 17.9889 10.9421 17.9615 11.0591 17.9002L13.7671 16.4745C13.8389 16.4366 13.9188 16.4169 14 16.4169C14.0812 16.4169 14.1612 16.4366 14.233 16.4745L16.9409 17.9002C17.0569 17.9632 17.1885 17.9917 17.3201 17.9823C17.4518 17.9729 17.578 17.926 17.6838 17.8472C17.792 17.7702 17.876 17.6641 17.9261 17.5411C17.9762 17.4182 17.9903 17.2835 17.9668 17.1528L17.4494 14.1334C17.4357 14.0535 17.4416 13.9715 17.4667 13.8944C17.4918 13.8174 17.5353 13.7476 17.5933 13.691L19.7834 11.5519C19.8781 11.4596 19.9451 11.3427 19.9769 11.2143C20.0086 11.0859 20.0038 10.9512 19.9631 10.8253C19.9223 10.6995 19.8472 10.5876 19.7462 10.5022C19.6452 10.4169 19.5223 10.3614 19.3915 10.3422V10.3417Z" fill="#90C5B9"/>
<path d="M1.33053 21.6425C1.32114 21.6957 1.3269 21.7505 1.34717 21.8005C1.36743 21.8506 1.40138 21.894 1.44513 21.9257C1.48888 21.9574 1.54066 21.9762 1.59457 21.9798C1.64847 21.9835 1.70232 21.9719 1.74995 21.9464L3.51961 21.0166C3.59123 20.9787 3.67103 20.9589 3.75206 20.9589C3.83309 20.9589 3.9129 20.9787 3.98452 21.0166L5.75417 21.9469C5.80186 21.9721 5.85566 21.9835 5.90947 21.9797C5.96328 21.976 6.01497 21.9572 6.05867 21.9256C6.10237 21.8939 6.13634 21.8507 6.15674 21.8008C6.17714 21.7508 6.18315 21.6962 6.17409 21.643L5.95263 20.3432C5.72731 20.4516 5.47675 20.4966 5.22779 20.4735C4.97883 20.4503 4.74087 20.3599 4.53941 20.2118C4.33294 20.0623 4.17278 19.8576 4.07728 19.6213C3.98179 19.3849 3.95484 19.1265 3.99951 18.8755L4.33295 16.9644L3.09419 15.7761L2.60578 16.7699C2.56994 16.8429 2.51683 16.9061 2.45106 16.9539C2.38529 17.0017 2.30885 17.0328 2.22836 17.0444L0.248743 17.3293C0.195569 17.338 0.145838 17.3613 0.105056 17.3965C0.0642744 17.4317 0.0340325 17.4775 0.0176787 17.5288C0.001325 17.5802 -0.000502488 17.635 0.0123985 17.6873C0.0252996 17.7397 0.0524259 17.7874 0.0907741 17.8252L1.522 19.225C1.57974 19.2814 1.62296 19.351 1.64794 19.4278C1.67293 19.5046 1.67894 19.5863 1.66547 19.6659L1.33053 21.6425Z" fill="#90C5B9"/>
<path d="M7.27353 11.9624L6.4182 13.6731C6.38202 13.7454 6.32883 13.8079 6.26317 13.8552C6.19752 13.9025 6.12137 13.9332 6.04127 13.9445L3.8267 14.2595C3.75639 14.2683 3.6901 14.2971 3.63575 14.3426C3.58141 14.3881 3.54132 14.4482 3.52026 14.5159C3.49829 14.5807 3.49552 14.6505 3.51228 14.7168C3.52904 14.7832 3.56462 14.8432 3.61474 14.8898L5.21743 16.428C5.27656 16.4847 5.32084 16.5551 5.34638 16.633C5.37192 16.7108 5.37794 16.7937 5.3639 16.8744L4.98398 19.049C4.97161 19.1164 4.9789 19.1858 5.00496 19.2491C5.03102 19.3124 5.07476 19.3669 5.13095 19.406C5.18919 19.4496 5.2586 19.4759 5.33114 19.4817C5.40368 19.4875 5.4764 19.4727 5.54087 19.4389L7.52048 18.4096C7.59173 18.3726 7.67087 18.3532 7.75119 18.3532C7.8315 18.3532 7.91064 18.3726 7.98189 18.4096L9.96101 19.4394C10.0254 19.4731 10.098 19.4879 10.1705 19.482C10.2429 19.4762 10.3122 19.45 10.3704 19.4065C10.427 19.3677 10.4712 19.3135 10.4978 19.2503C10.5244 19.1871 10.5322 19.1176 10.5204 19.05L10.5059 18.964C10.278 18.9345 10.0584 18.859 9.86036 18.7423C9.66235 18.6256 9.49002 18.47 9.35377 18.2849C9.21751 18.0997 9.12015 17.889 9.06754 17.6652C9.01494 17.4414 9.00819 17.2094 9.04769 16.9829L9.52059 14.222L7.51748 12.2658C7.42494 12.1743 7.3431 12.0725 7.27353 11.9624Z" fill="#90C5B9"/>
<path d="M22.2483 21.9465L24.018 21.0167C24.0896 20.9787 24.1694 20.9589 24.2504 20.9589C24.3315 20.9589 24.4113 20.9787 24.4829 21.0167L26.2525 21.947C26.3002 21.9722 26.354 21.9836 26.4078 21.9798C26.4616 21.976 26.5133 21.9572 26.557 21.9256C26.6007 21.894 26.6347 21.8507 26.6551 21.8008C26.6755 21.7509 26.6815 21.6962 26.6724 21.643L26.337 19.6674C26.3235 19.5878 26.3296 19.5061 26.3545 19.4293C26.3795 19.3525 26.4227 19.2829 26.4805 19.2265L27.9097 17.8268C27.9492 17.7891 27.9774 17.7411 27.991 17.6883C28.0046 17.6354 28.0031 17.5798 27.9867 17.5278C27.9703 17.4757 27.9396 17.4293 27.8982 17.3938C27.8568 17.3583 27.8062 17.3351 27.7522 17.3269L25.7741 17.0424C25.6936 17.0308 25.6172 16.9998 25.5514 16.9519C25.4857 16.9041 25.4325 16.841 25.3967 16.768L24.9083 15.7742L23.669 16.9629L24.0035 18.8751C24.0478 19.1259 24.0207 19.3842 23.9251 19.6203C23.8295 19.8565 23.6694 20.0609 23.4631 20.2103C23.2626 20.3604 23.0245 20.4523 22.7752 20.4758C22.5258 20.4992 22.2748 20.4534 22.0498 20.3433L21.8284 21.643C21.8192 21.6962 21.8252 21.7509 21.8456 21.8009C21.866 21.8508 21.9 21.8941 21.9437 21.9257C21.9875 21.9573 22.0392 21.976 22.093 21.9797C22.1469 21.9834 22.2007 21.9719 22.2483 21.9465Z" fill="#90C5B9"/>
<path d="M24.3869 14.8883C24.4365 14.8417 24.4715 14.7818 24.4879 14.7157C24.5043 14.6497 24.5014 14.5803 24.4794 14.5159C24.4581 14.448 24.4177 14.3876 24.363 14.342C24.3083 14.2965 24.2416 14.2676 24.171 14.259L21.9584 13.9445C21.8783 13.9332 21.8022 13.9025 21.7365 13.8552C21.6708 13.808 21.6176 13.7455 21.5815 13.6731L20.7256 11.9619C20.6561 12.0725 20.5743 12.1748 20.4817 12.2669L18.4791 14.223L18.9515 16.9829C18.9906 17.2091 18.9836 17.4409 18.931 17.6643C18.8784 17.8878 18.7813 18.0983 18.6454 18.2833C18.5096 18.4683 18.3377 18.624 18.1403 18.7411C17.9428 18.8581 17.7238 18.9341 17.4963 18.9646L17.4823 19.046C17.4695 19.1136 17.4765 19.1834 17.5025 19.2471C17.5285 19.3108 17.5723 19.3656 17.6287 19.405C17.687 19.4486 17.7564 19.4749 17.8289 19.4807C17.9015 19.4865 17.9742 19.4717 18.0387 19.438L20.0183 18.4087C20.0895 18.3717 20.1685 18.3524 20.2487 18.3524C20.329 18.3524 20.408 18.3717 20.4792 18.4087L22.4593 19.4385C22.5238 19.4721 22.5964 19.4867 22.6688 19.4808C22.7413 19.4749 22.8106 19.4486 22.8687 19.405C22.9253 19.3663 22.9695 19.3122 22.9961 19.2491C23.0227 19.186 23.0305 19.1165 23.0187 19.049L22.6378 16.8735C22.6237 16.7927 22.6298 16.7098 22.6553 16.632C22.6808 16.5541 22.7251 16.4838 22.7842 16.427L24.3869 14.8883Z" fill="#90C5B9"/>
</g>
<defs>
<clipPath id="clip0_142_356">
<rect width="28" height="28" fill="white"/>
</clipPath>
</defs>
</svg>
