<svg width="40" height="40" viewBox="0 0 40 40" fill="none" xmlns="http://www.w3.org/2000/svg">
<g clip-path="url(#clip0_142_269)">
<path d="M39.8812 31.1478C38.1011 22.8131 30.1391 16.4487 21.5981 16.5725H10.9374C8.35276 16.5725 6.24996 18.6753 6.24996 21.2599V27.5099H4.68747C3.82592 27.5099 3.12498 26.809 3.12498 25.9474V11.4163C3.12498 10.5547 3.82592 9.85376 4.68747 9.85376H30.6248V11.885C30.6248 14.4697 32.7276 16.5725 35.3123 16.5725H39.9998V0.0100708H35.3123C32.7276 0.0100708 30.6248 2.11287 30.6248 4.69754V6.72878H4.68747C2.1028 6.72878 0 8.83158 0 11.4163V25.9474C0 28.5321 2.1028 30.6349 4.68747 30.6349H6.24996V32.1974C6.24996 34.7821 8.35276 36.8849 10.9374 36.8849H13.0287C14.9719 41.0261 20.967 41.0238 22.9086 36.8849H35.3123C36.7451 36.8849 38.0793 36.2427 38.9729 35.123C39.8693 33.9998 40.2003 32.5508 39.8812 31.1478ZM33.7498 4.69754C33.7498 3.83599 34.4507 3.13505 35.3123 3.13505H36.8748V13.4475H35.3123C34.4507 13.4475 33.7498 12.7466 33.7498 11.885V4.69754ZM35.105 27.4318H30.9425C29.1983 25.2757 26.7082 23.8668 23.9842 23.474V19.876C28.7012 20.5888 32.7613 23.3891 35.105 27.4318ZM17.9686 36.8849C16.6763 36.8849 15.6249 35.8335 15.6249 34.5411C15.7427 31.4361 20.195 31.4369 20.3124 34.5411C20.3124 35.8335 19.261 36.8849 17.9686 36.8849ZM36.5304 33.1737C36.2331 33.5462 35.7892 33.7599 35.3123 33.7599H23.3806C22.3615 27.5492 13.5734 27.5536 12.5566 33.7599H10.9374C10.0759 33.7599 9.37495 33.0589 9.37495 32.1974V21.2599C9.37495 20.3984 10.0759 19.6975 10.9374 19.6975H20.8593V26.487H22.4217C24.9973 26.487 27.4096 27.7558 28.8747 29.8811L29.3405 30.5568H36.485C36.618 30.9764 36.7348 31.4046 36.8341 31.8409C36.9412 32.3118 36.8306 32.7976 36.5304 33.1737ZM14.8437 23.6037C14.8437 24.4666 14.1441 25.1662 13.2812 25.1662C11.2108 25.0895 11.2113 22.1175 13.2812 22.0412C14.1441 22.0412 14.8437 22.7407 14.8437 23.6037Z" fill="#1DAC8C"/>
</g>
<defs>
<clipPath id="clip0_142_269">
<rect width="40" height="40" fill="white"/>
</clipPath>
</defs>
</svg>
