<svg width="19" height="20" viewBox="0 0 19 20" fill="none" xmlns="http://www.w3.org/2000/svg">
<path d="M9.49984 1.29166C7.7775 1.29166 6.09383 1.8024 4.66175 2.75928C3.22967 3.71617 2.1135 5.07622 1.45439 6.66746C0.795277 8.2587 0.622823 10.0097 0.958836 11.6989C1.29485 13.3882 2.12424 14.9398 3.34212 16.1577C4.56 17.3756 6.11168 18.205 7.80093 18.541C9.49018 18.877 11.2411 18.7046 12.8324 18.0455C14.4236 17.3863 15.7837 16.2702 16.7406 14.8381C17.6974 13.406 18.2082 11.7223 18.2082 10C18.2055 7.69124 17.2871 5.47782 15.6546 3.84528C14.022 2.21275 11.8086 1.29439 9.49984 1.29166ZM13.4582 10.7917H9.49984H5.54151C5.33154 10.7917 5.13018 10.7083 4.98172 10.5598C4.83325 10.4113 4.74984 10.21 4.74984 10C4.74984 9.79004 4.83325 9.58867 4.98172 9.44021C5.13018 9.29174 5.33154 9.20833 5.54151 9.20833H9.49984H13.4582C13.6681 9.20833 13.8695 9.29174 14.018 9.44021C14.1664 9.58867 14.2498 9.79004 14.2498 10C14.2498 10.21 14.1664 10.4113 14.018 10.5598C13.8695 10.7083 13.6681 10.7917 13.4582 10.7917Z" fill="#218C74"/>
</svg>
