<svg width="169" height="135" viewBox="0 0 169 135" fill="none" xmlns="http://www.w3.org/2000/svg">
<g clip-path="url(#clip0_142_671)">
<circle cx="67" cy="67.0117" r="67" fill="#F4F9F8"/>
<g clip-path="url(#clip1_142_671)">
<path d="M101.556 85.2421C101.556 85.2421 117.534 70.6325 122.912 62.5515C128.29 54.4705 132.859 49.8347 139.616 46.2276C146.81 47.5415 151.51 45.2001 156.972 42.0605C158.651 42.0791 160.344 42.2134 162.04 42.4688L162.423 42.5265L164.069 45.5314L144.101 87.5436C138.095 100.178 128.743 107.897 114.754 108.066L112.388 111.144L101.556 85.2421Z" fill="#736572"/>
<path d="M167.703 47.2591L163.711 55.6584L156.843 63.0768L154.21 75.6482L147.736 89.2702C146.777 91.2863 145.649 93.1873 144.373 94.9593C139.576 97.0638 135.884 100.656 132.086 105.768C126.952 108.55 121.134 110.117 115.069 110.19L112.388 111.144L110.891 107.563C124.37 106.932 136.461 98.9292 142.284 86.679L162.252 44.6679C162.588 43.9611 162.622 43.2043 162.423 42.5261L165.427 42.9783C167.43 43.2795 168.573 45.4291 167.703 47.2591Z" fill="#615260"/>
<path d="M141.15 94.7982C137.896 99.3182 137.029 99.281 132.211 101.89L129.834 101.224L114.164 72.9545L126.041 58.1163L141.257 88.6748L141.15 94.7982Z" fill="#615260"/>
<path d="M144.372 94.959C141.119 99.479 136.904 103.159 132.086 105.767L129.834 101.224C134.504 98.0413 138.443 93.7714 141.257 88.6751L144.372 94.959Z" fill="#564A56"/>
<path d="M158.488 59.1078L150.798 68.7648L139.623 46.2211C144.896 43.4654 150.843 41.9923 156.973 42.0606L160.3 48.7746L158.488 59.1078Z" fill="#615260"/>
<path d="M163.711 55.6583L154.21 75.6481L150.799 68.7645L160.3 48.7748L163.711 55.6583Z" fill="#564A56"/>
<path d="M59.6569 64.7246L55.9816 70.1084C50.593 77.496 46.4413 87.2929 44.1214 98.5089C42.7786 105.001 48.5552 111.968 48.5552 119.219V119.72C48.5552 121.379 49.3633 122.725 50.3603 122.725L107.51 122.224C108.507 122.224 109.315 120.879 109.315 119.219V118.719C109.315 113.505 112.673 108.938 111.962 104.089C109.816 89.4549 104.628 76.8054 97.5759 68.1025L59.6569 64.7246Z" fill="#F4E5E0"/>
<path d="M51.9431 116.4C48.2274 100.726 48.7319 91.9397 52.2791 76.2664C51.7285 92.9269 52.3272 101.622 56.8506 114.652L51.9431 116.4Z" fill="#D6C5BF"/>
<path d="M109.413 118.214V118.714C109.413 120.373 108.607 121.719 107.612 121.719H101.606C102.601 121.719 107.012 119.312 107.012 117.653V117.152C107.012 108.944 111.111 103.167 109.413 95.9636C106.778 84.7837 102.299 75.1498 96.5996 68.1029L59.0493 65.1686L59.3536 64.7246L102.605 68.1029C107.497 74.1516 111.49 82.1064 114.19 91.3088C116.662 99.7347 109.413 108.201 109.413 118.214Z" fill="#E6D6D1"/>
<path d="M92.2072 63.5837C89.1545 63.5837 86.4217 64.9453 84.5766 67.0919C83.2104 66.5175 81.7098 66.1996 80.1348 66.1996C78.5598 66.1996 77.0592 66.5175 75.693 67.0919C73.848 64.9453 71.115 63.5837 68.0623 63.5837C62.5061 63.5837 58.002 68.0878 58.002 73.6441C58.002 79.2003 62.5061 83.7044 68.0623 83.7044C68.2576 83.7044 68.4516 83.6988 68.6441 83.6875C69.6186 83.6306 70.559 84.0517 71.1678 84.8148C73.2688 87.4486 76.5037 89.1371 80.1348 89.1371C83.7658 89.1371 87.001 87.4486 89.1018 84.8148C89.7105 84.0517 90.651 83.6306 91.6254 83.6875C91.8178 83.6988 92.0119 83.7044 92.2072 83.7044C97.7635 83.7044 102.268 79.2003 102.268 73.6441C102.268 72.633 102.118 71.6568 101.841 70.7361C99.3197 66.5314 96.7521 63.5837 92.2072 63.5837Z" fill="white"/>
<path d="M101.839 70.7367C100.324 69.1472 98.6738 67.6884 96.9053 66.3765L85.8408 65.8574C87.5752 64.4369 89.7904 63.5837 92.207 63.5837C94.9836 63.5837 97.4988 64.7105 99.3197 66.5314C100.477 67.6884 101.354 69.1269 101.839 70.7367Z" fill="#F7F7F7"/>
<path d="M38.9388 37.2461L41.179 43.0506L51.1487 39.4877C54.7282 37.2323 56.5593 33.9883 60.5472 32.7067L58.1856 28.8627C56.1392 25.5319 52.7101 23.2911 48.8378 22.7543L43.5208 22.0174C42.7024 21.904 41.898 22.3022 41.4921 23.0217L39.7491 26.111C37.8288 29.5151 37.5314 33.5997 38.9388 37.2461Z" fill="#F4E5E0"/>
<path d="M54.9118 35.0919L53.0446 32.2542C51.9526 30.5944 50.2102 29.4731 48.2471 29.1669L46.2704 28.8585C45.9915 28.8149 45.7196 28.9706 45.6159 29.2331L45.0545 30.6542C44.3772 32.3688 44.3993 34.2805 45.1159 35.9792L47.026 40.5065L54.9118 35.0919Z" fill="#E6D6D1"/>
<path d="M121.331 37.2461L119.09 43.0506L108.604 38.9C105.025 36.6445 103.71 33.9881 99.7222 32.7064L102.084 28.8625C104.13 25.5316 107.559 23.2908 111.432 22.7541L116.749 22.0172C117.567 21.9037 118.371 22.302 118.777 23.0215L120.52 26.1107C122.441 29.515 122.738 33.5996 121.331 37.2461Z" fill="#F4E5E0"/>
<path d="M105.357 35.0919L107.225 32.2542C108.317 30.5944 110.059 29.4731 112.022 29.1669L113.999 28.8585C114.278 28.8149 114.55 28.9706 114.653 29.2331L115.215 30.6542C115.892 32.3688 115.87 34.2805 115.153 35.9792L113.243 40.5065L105.357 35.0919Z" fill="#E6D6D1"/>
<path d="M118.197 46.8047L116.413 48.2674C114.938 49.4764 114.938 51.7318 116.413 52.9406L118.197 54.4033C118.728 54.8393 118.677 55.668 118.095 56.0344L109.834 62.6174C101.796 67.6826 92.4536 70.9482 82.9522 70.9482H75.9603C71.0165 70.9482 66.1253 70.2205 61.438 68.809C58.2229 64.0322 56.2044 64.4037 52.3483 61.974L48.2177 62.6314L37.7478 56.0344C37.1661 55.668 37.1144 54.8393 37.646 54.4033L39.4298 52.9406C40.9042 51.7316 40.9042 49.4762 39.4298 48.2674L37.646 46.8047C37.1144 46.3688 37.1659 45.54 37.7478 45.1736L49.1122 38.0129C57.1509 32.9477 66.4585 30.2598 75.9601 30.2598H83.1675C92.6688 30.2598 100.473 33.0998 108.512 38.165L118.095 45.1736C118.676 45.5402 118.728 46.3688 118.197 46.8047Z" fill="#FCF1F2"/>
<path d="M122.521 56.0344L112.054 62.6299L109.665 62.4789C105.809 64.9082 101.391 65.8314 98.8313 68.8086C94.1441 70.2201 89.2529 70.9479 84.3096 70.9479H78.2734C87.7744 70.9479 97.0822 68.2598 105.121 63.1953L116.485 56.0344C117.066 55.6682 117.119 54.8393 116.587 54.4025L114.803 52.9398C113.328 51.7326 113.328 49.4771 114.803 48.2678L116.587 46.8051C117.119 46.3686 117.066 45.5395 116.485 45.1732L105.121 38.0123C97.0822 32.9479 87.7744 30.2598 78.2734 30.2598H84.3096C93.8105 30.2598 103.118 32.9479 111.157 38.0123L122.521 45.1732C123.102 45.5395 123.155 46.3684 122.623 46.8051L120.839 48.2678C119.364 49.477 119.364 51.7326 120.839 52.9398L122.623 54.4025C123.155 54.8393 123.102 55.6684 122.521 56.0344Z" fill="#F4E5E0"/>
<path d="M103.129 66.4929C103.129 66.4929 98.9636 66.7129 98.7488 66.5978C98.3298 62.8711 96.3222 59.473 93.2007 57.3101L88.2451 53.8734C85.2007 51.7527 84.3437 47.624 86.2913 44.465C87.6154 42.314 89.9091 41.139 92.2531 41.139C93.5749 41.139 94.913 41.5133 96.1001 42.2961L102.217 46.3344C106.83 49.3785 110.076 53.9912 111.442 59.2119C111.733 60.3265 103.129 66.4929 103.129 66.4929Z" fill="#736572"/>
<path d="M112.054 62.63L111.157 63.1955C107.3 65.6261 103.153 67.5074 98.831 68.8072V68.0587C98.831 67.5677 98.8028 67.0808 98.7485 66.598C100.942 65.6222 103.073 64.4853 105.121 63.1957L111.443 59.2117C111.734 60.3261 111.94 61.4691 112.054 62.63Z" fill="#615260"/>
<path d="M72.0239 53.8734L67.0683 57.3102C63.5431 59.7527 61.4386 63.7709 61.4386 68.0586V68.807C57.1167 67.5072 52.9698 65.626 49.1126 63.1953L48.2173 62.6318C48.8671 56.0342 52.4548 50.0281 58.0522 46.334L64.169 42.2957C65.3562 41.5131 66.6942 41.1387 68.0161 41.1387C70.3603 41.1387 72.654 42.3137 73.9778 44.4646C75.9253 47.624 75.0683 51.7527 72.0239 53.8734Z" fill="#736572"/>
<path d="M95.1994 50.5C95.6416 50.5 96.0091 50.137 95.9088 49.7064C95.7618 49.0748 95.4408 48.4911 94.9749 48.0251C94.3185 47.3687 93.4283 47 92.5 47C91.5717 47 90.6815 47.3687 90.0251 48.0251C89.5592 48.491 89.2382 49.0748 89.0912 49.7064C88.9909 50.137 89.3584 50.5 89.8006 50.5C90.2427 50.5 90.5865 50.1263 90.7674 49.7229C90.861 49.5142 90.9924 49.3222 91.1573 49.1573C91.5134 48.8012 91.9964 48.6011 92.5 48.6011C93.0036 48.6011 93.4866 48.8012 93.8427 49.1573C94.0076 49.3222 94.139 49.5142 94.2326 49.7229C94.4135 50.1263 94.7573 50.5 95.1994 50.5Z" fill="#564A56"/>
<path d="M68.1628 51.4106C67.3294 51.4106 66.6538 50.7351 66.6538 49.9017V46.8835C66.6538 46.0499 67.3294 45.3745 68.1628 45.3745C68.9962 45.3745 69.6718 46.0501 69.6718 46.8835V49.9017C69.6718 50.7351 68.9962 51.4106 68.1628 51.4106Z" fill="#564A56"/>
<path d="M84.5552 63.3826H84.1528C83.3206 63.3826 81.6438 62.7056 81.6438 61.8736V59.0566C81.6438 58.223 80.9683 57.5476 80.1349 57.5476C79.3015 57.5476 78.6259 58.2232 78.6259 59.0566V61.8736C78.6259 62.7058 76.9489 63.3826 76.1169 63.3826H75.7146C74.8812 63.3826 74.2056 64.0582 74.2056 64.8915C74.2056 65.7249 74.8812 66.4005 75.7146 66.4005H76.1169C77.2755 66.4005 79.3335 65.9626 80.1351 65.2441C80.9366 65.9626 82.9946 66.4005 84.1532 66.4005H84.5556C85.389 66.4005 86.0646 65.7249 86.0646 64.8915C86.0646 64.0582 85.3886 63.3826 84.5552 63.3826Z" fill="#D3C6C3"/>
<path d="M80.1349 60.9681C81.8017 60.9681 83.153 59.6169 83.153 57.9499C83.153 56.2831 81.8019 54.9318 80.1349 54.9318C78.4681 54.9318 77.1167 56.2829 77.1167 57.9499C77.1167 59.6167 78.4679 60.9681 80.1349 60.9681Z" fill="#736572"/>
<path d="M84.7036 80.3672H92.4747V88.214H84.7036V80.3672Z" fill="#7BE492"/>
<path d="M88.5894 80.3672H92.4749V88.214H88.5894V80.3672Z" fill="#45D987"/>
<path d="M71.1041 85.4977H63.333V77.959C63.333 77.5492 63.6707 77.217 64.0873 77.217H70.3498C70.7663 77.217 71.1041 77.5492 71.1041 77.959V85.4977Z" fill="#FFF6F0"/>
<path d="M67.2188 77.217V85.4977H71.1043V77.959C71.1043 77.5492 70.7666 77.217 70.35 77.217H67.2188Z" fill="#F0E7DD"/>
<path d="M99.3389 124.114H77.8387C76.6942 124.114 75.7666 123.202 75.7666 122.076V99.7586C75.7666 95.4113 79.3496 91.887 83.7695 91.887H93.4082C97.828 91.887 101.411 95.4113 101.411 99.7586V122.076C101.411 123.202 100.483 124.114 99.3389 124.114Z" fill="#7BE492"/>
<path d="M93.408 91.887H89.5225C93.9426 91.887 97.5259 95.4111 97.5259 99.7583V122.076C97.5259 123.202 96.5981 124.115 95.4536 124.115H99.3391C100.484 124.115 101.411 123.202 101.411 122.076V99.7583C101.411 95.411 97.8281 91.887 93.408 91.887Z" fill="#45D987"/>
<path d="M93.1224 91.887H84.0562L84.7038 86.8844H92.4749L93.1224 91.887Z" fill="#FFF6F0"/>
<path d="M92.4749 86.8844H88.5894L89.2369 91.887H93.1224L92.4749 86.8844Z" fill="#F0E7DD"/>
<path d="M102.008 81.7371L100.667 80.4153C99.002 78.7739 96.7877 77.87 94.4326 77.87H82.6298C81.5576 77.87 80.6885 78.7266 80.6885 79.7833C80.6885 80.84 81.5576 81.6967 82.6298 81.6967H94.4326C95.7506 81.6967 96.9897 82.2025 97.9217 83.1212L99.263 84.443C99.6419 84.8166 100.139 85.0033 100.636 85.0033C101.132 85.0033 101.629 84.8165 102.008 84.4429C102.766 83.6958 102.766 82.4844 102.008 81.7371Z" fill="#FFF6F0"/>
<path d="M73.694 128.685H60.7422C59.5977 128.685 58.6699 127.772 58.6699 126.646V89.4469C58.6699 88.3211 59.5977 87.4086 60.7422 87.4086H73.694C74.8384 87.4086 75.7662 88.3211 75.7662 89.4469V126.646C75.7662 127.772 74.8384 128.685 73.694 128.685Z" fill="#F48FB1"/>
<path d="M73.6946 87.4086H69.8091C70.9536 87.4086 71.8813 88.3211 71.8813 89.4469V126.646C71.8813 127.772 70.9536 128.684 69.8091 128.684H73.6946C74.8391 128.684 75.7669 127.772 75.7669 126.646V89.4469C75.7669 88.3211 74.8391 87.4086 73.6946 87.4086Z" fill="#F06A98"/>
<path d="M71.7518 87.4086H62.6855L63.3332 83.5868H71.1043L71.7518 87.4086Z" fill="#FFD54F"/>
<path d="M71.1043 83.5868H67.2188L67.8663 87.4086H71.7518L71.1043 83.5868Z" fill="#FFC328"/>
<path d="M58.6699 96.3911H75.7663V116.509H58.6699V96.3911Z" fill="#FFD54F"/>
<path d="M71.8813 96.3911H75.7669V116.509H71.8813V96.3911Z" fill="#FFC328"/>
<path d="M106.036 131.654H55.2109C54.9332 131.654 54.708 131.432 54.708 131.159V112.81H106.539V131.159C106.539 131.432 106.314 131.654 106.036 131.654Z" fill="#F0AA57"/>
<path d="M102.652 112.81V131.654H106.037C106.314 131.654 106.54 131.433 106.54 131.159V112.81H102.652Z" fill="#E19C4B"/>
<path d="M85.8097 123.267H75.4377C73.8649 123.267 72.5898 122.012 72.5898 120.465C72.5898 118.918 73.8649 117.664 75.4377 117.664H85.8098C87.3826 117.664 88.6576 118.918 88.6576 120.465C88.6575 122.012 87.3826 123.267 85.8097 123.267Z" fill="#43809F"/>
<path d="M58.3613 132.704C60.6707 131.682 61.2846 127.947 59.5995 124.031C56.9852 117.957 52.2726 113.116 51.3013 106.111C50.0014 96.7369 50.709 85.7745 52.4846 75.678C49.8029 75.678 39.8493 93.306 39.8496 106.111C41.6276 125.199 50.1382 133.802 58.3613 132.704Z" fill="#E6D6D1"/>
<path d="M57.374 130.605C56.4 130.149 57.1923 128.455 58.0073 128.678C58.0073 128.678 60.5007 130.724 60.5147 131.071C60.5286 131.417 57.374 130.605 57.374 130.605Z" fill="#D6C5BF"/>
<path d="M58.6782 128.279C57.8608 127.671 58.9159 126.248 59.6296 126.61C59.6296 126.61 61.5558 128.983 61.5032 129.308C61.4507 129.632 58.6782 128.279 58.6782 128.279Z" fill="#D6C5BF"/>
<path d="M59.1635 128.435C58.4853 127.923 59.2592 126.668 59.8436 126.969C59.8436 126.969 61.738 129.077 61.7111 129.359C61.6843 129.642 59.1635 128.435 59.1635 128.435Z" fill="#736572"/>
<path d="M58.1173 130.759C57.3691 130.355 57.9438 128.998 58.5672 129.207C58.5672 129.207 60.7592 131.003 60.7755 131.286C60.7918 131.57 58.1173 130.759 58.1173 130.759Z" fill="#736572"/>
<path d="M56.0127 132.442C55.0386 131.986 55.831 130.292 56.6459 130.515C56.6459 130.515 59.1394 132.561 59.1534 132.908C59.1673 133.254 56.0127 132.442 56.0127 132.442Z" fill="#D6C5BF"/>
<path d="M56.7279 132.532C55.9756 132.136 56.536 130.772 57.1616 130.975C57.1616 130.975 59.3723 132.748 59.3915 133.031C59.4108 133.314 56.7279 132.532 56.7279 132.532Z" fill="#736572"/>
<path d="M46.8351 99.3035L40.521 99.7003C40.283 101.089 40.1635 101.87 40.015 103.258H46.8351C48.8933 103.056 48.7319 99.6666 46.8351 99.3035Z" fill="#D6C5BF"/>
<path d="M45.395 108.772L40.3407 109.956C40.4669 111.327 40.8146 112.835 40.9908 113.568L45.9769 112.683C47.983 112.181 47.3245 108.852 45.395 108.772Z" fill="#D6C5BF"/>
<path d="M46.9284 117.162L42.6078 119.235C43.1738 120.913 43.5213 121.426 43.9785 122.521L48.3075 120.869C50.1661 119.962 48.8328 116.841 46.9284 117.162Z" fill="#D6C5BF"/>
<path d="M100.522 132.704C98.2122 131.682 97.5982 127.947 99.2833 124.031C101.898 117.957 106.61 113.116 107.581 106.111C108.881 96.7369 108.174 85.7745 106.398 75.678C109.08 75.678 119.033 93.306 119.033 106.111C117.255 125.199 108.745 133.802 100.522 132.704Z" fill="#D6C5BF"/>
<path d="M119.033 106.111C117.255 125.199 108.745 133.802 100.522 132.704C116.542 127.155 120.394 99.9184 109.962 79.2992C113.855 85.1286 119.033 96.8746 119.033 106.111Z" fill="#C8B5AE"/>
<path d="M101.509 130.605C102.483 130.149 101.691 128.455 100.876 128.678C100.876 128.678 98.3821 130.724 98.3681 131.071C98.3542 131.417 101.509 130.605 101.509 130.605Z" fill="#D6C5BF"/>
<path d="M100.205 128.279C101.022 127.671 99.9669 126.248 99.2532 126.61C99.2532 126.61 97.327 128.983 97.3796 129.308C97.4321 129.632 100.205 128.279 100.205 128.279Z" fill="#D6C5BF"/>
<path d="M99.7193 128.435C100.398 127.923 99.6237 126.668 99.0392 126.969C99.0392 126.969 97.1448 129.077 97.1717 129.359C97.1985 129.642 99.7193 128.435 99.7193 128.435Z" fill="#736572"/>
<path d="M100.766 130.759C101.514 130.355 100.939 128.998 100.316 129.207C100.316 129.207 98.1236 131.003 98.1073 131.286C98.091 131.57 100.766 130.759 100.766 130.759Z" fill="#736572"/>
<path d="M102.87 132.442C103.844 131.986 103.052 130.292 102.237 130.515C102.237 130.515 99.7434 132.561 99.7295 132.908C99.7155 133.254 102.87 132.442 102.87 132.442Z" fill="#D6C5BF"/>
<path d="M102.155 132.532C102.907 132.136 102.347 130.772 101.721 130.975C101.721 130.975 99.5106 132.748 99.4913 133.031C99.472 133.314 102.155 132.532 102.155 132.532Z" fill="#736572"/>
<path d="M112.048 99.3035L118.362 99.7003C118.6 101.089 118.719 101.87 118.868 103.258H112.048C109.99 103.056 110.151 99.6666 112.048 99.3035Z" fill="#E7D6D0"/>
<path d="M113.488 108.772L118.542 109.956C118.416 111.327 118.068 112.835 117.892 113.568L112.906 112.683C110.9 112.181 111.558 108.852 113.488 108.772Z" fill="#E7D6D0"/>
<path d="M111.954 117.162L116.275 119.235C115.709 120.913 115.361 121.426 114.904 122.521L110.575 120.869C108.717 119.962 110.05 116.841 111.954 117.162Z" fill="#E7D6D0"/>
</g>
</g>
<defs>
<clipPath id="clip0_142_671">
<rect width="169" height="134" fill="white" transform="translate(0 0.5)"/>
</clipPath>
<clipPath id="clip1_142_671">
<rect width="131.723" height="112.014" fill="white" transform="translate(37.2773 21.998)"/>
</clipPath>
</defs>
</svg>
