<svg width="158" height="50" viewBox="0 0 158 50" fill="none" xmlns="http://www.w3.org/2000/svg">
<g clip-path="url(#clip0_265_536)">
<path d="M11.2 39.48V42.52C10.2133 43.04 9.11333 43.3 7.9 43.3C5.95333 43.3 4.32667 42.68 3.02 41.44C1.59333 40.0667 0.88 38.3667 0.88 36.34C0.88 34.18 1.59333 32.44 3.02 31.12C4.27333 29.9467 5.90667 29.36 7.92 29.36C9.09333 29.36 10.1867 29.6333 11.2 30.18V33.22C10.3333 32.22 9.26 31.72 7.98 31.72C6.67333 31.72 5.60667 32.18 4.78 33.1C3.96667 34.0067 3.56 35.1 3.56 36.38C3.56 37.78 4.01333 38.8933 4.92 39.72C5.82667 40.5333 6.88 40.94 8.08 40.94C9.33333 40.94 10.3733 40.4533 11.2 39.48ZM14.7903 29.66H17.3903V40.76H21.5103V43H14.7903V29.66ZM31.9059 29.66V31.9H27.1059V34.88H31.7059V37.12H27.1059V40.76H31.9059V43H24.5059V29.66H31.9059ZM44.7078 43L43.5278 40.2H38.1478L36.9678 43H34.1478L39.8878 29.66H41.9278L47.5078 43H44.7078ZM38.9678 38.08H42.7678L40.8678 33.28L38.9678 38.08ZM52.8653 43H50.2653V29.66H52.0653L60.1853 38.56V29.66H62.7853V43H60.9853L52.8653 34.08V43ZM67.0317 29.66H69.6317V43H67.0317V29.66ZM76.4762 43H73.8762V29.66H75.6762L83.7962 38.56V29.66H86.3962V43H84.5962L76.4762 34.08V43ZM97.4027 38.1V35.86H103.523V36.02C103.523 38.4067 102.869 40.2467 101.563 41.54C100.389 42.7133 98.8093 43.3 96.8227 43.3C94.796 43.3 93.1827 42.7 91.9827 41.5C90.6627 40.18 90.0027 38.4667 90.0027 36.36C90.0027 34.36 90.656 32.7067 91.9627 31.4C93.296 30.04 95.0493 29.36 97.2227 29.36C98.396 29.36 99.4227 29.5933 100.303 30.06C101.329 30.58 102.163 31.3933 102.803 32.5L100.543 33.72C100.183 33.0267 99.6627 32.5 98.9827 32.14C98.4227 31.86 97.796 31.72 97.1027 31.72C95.8493 31.72 94.8227 32.1133 94.0227 32.9C93.1293 33.7667 92.6827 34.94 92.6827 36.42C92.6827 37.82 93.1227 38.9467 94.0027 39.8C94.7893 40.56 95.776 40.94 96.9627 40.94C98.0027 40.94 98.876 40.6733 99.5827 40.14C100.223 39.6467 100.643 38.9667 100.843 38.1H97.4027Z" fill="#218C74"/>
<path d="M35.52 7.66H39.38C40.8467 7.66 41.98 7.99333 42.78 8.66C43.66 9.40667 44.1 10.4067 44.1 11.66C44.1 13.0467 43.58 14.0933 42.54 14.8C42.14 15.08 41.6533 15.2733 41.08 15.38L45.24 21H42L38.44 15.64H38.12V21H35.52V7.66ZM38.12 9.78V13.8H38.86C39.0733 13.8 39.28 13.7867 39.48 13.76C39.6933 13.72 39.9667 13.6467 40.3 13.54C40.6333 13.42 40.9 13.2133 41.1 12.92C41.3133 12.6133 41.42 12.2333 41.42 11.78C41.42 11.3267 41.32 10.9533 41.12 10.66C40.92 10.3533 40.6533 10.1467 40.32 10.04C39.9867 9.92 39.72 9.84667 39.52 9.82C39.32 9.79333 39.1133 9.78 38.9 9.78H38.12ZM57.2844 21L56.1044 18.2H50.7244L49.5444 21H46.7244L52.4644 7.66H54.5044L60.0844 21H57.2844ZM51.5444 16.08H55.3444L53.4444 11.28L51.5444 16.08ZM72.0922 17.48V20.52C71.1055 21.04 70.0055 21.3 68.7922 21.3C66.8455 21.3 65.2189 20.68 63.9122 19.44C62.4855 18.0667 61.7722 16.3667 61.7722 14.34C61.7722 12.18 62.4855 10.44 63.9122 9.12C65.1655 7.94667 66.7989 7.36 68.8122 7.36C69.9855 7.36 71.0789 7.63333 72.0922 8.18V11.22C71.2255 10.22 70.1522 9.72 68.8722 9.72C67.5655 9.72 66.4989 10.18 65.6722 11.1C64.8589 12.0067 64.4522 13.1 64.4522 14.38C64.4522 15.78 64.9055 16.8933 65.8122 17.72C66.7189 18.5333 67.7722 18.94 68.9722 18.94C70.2255 18.94 71.2655 18.4533 72.0922 17.48ZM85.3625 17.48V20.52C84.3758 21.04 83.2758 21.3 82.0625 21.3C80.1158 21.3 78.4892 20.68 77.1825 19.44C75.7558 18.0667 75.0425 16.3667 75.0425 14.34C75.0425 12.18 75.7558 10.44 77.1825 9.12C78.4358 7.94667 80.0692 7.36 82.0825 7.36C83.2558 7.36 84.3492 7.63333 85.3625 8.18V11.22C84.4958 10.22 83.4225 9.72 82.1425 9.72C80.8358 9.72 79.7692 10.18 78.9425 11.1C78.1292 12.0067 77.7225 13.1 77.7225 14.38C77.7225 15.78 78.1758 16.8933 79.0825 17.72C79.9892 18.5333 81.0425 18.94 82.2425 18.94C83.4958 18.94 84.5358 18.4533 85.3625 17.48ZM90.2928 9.32C91.6261 8.01333 93.3395 7.36 95.4328 7.36C97.5261 7.36 99.2328 8.01333 100.553 9.32C101.886 10.6267 102.553 12.3 102.553 14.34C102.553 16.38 101.886 18.0533 100.553 19.36C99.2328 20.6533 97.5261 21.3 95.4328 21.3C93.3395 21.3 91.6261 20.6533 90.2928 19.36C88.9728 18.0533 88.3128 16.38 88.3128 14.34C88.3128 12.3 88.9728 10.6267 90.2928 9.32ZM92.2328 17.66C93.0595 18.5133 94.1261 18.94 95.4328 18.94C96.7395 18.94 97.8061 18.5133 98.6328 17.66C99.4595 16.7933 99.8728 15.6867 99.8728 14.34C99.8728 12.9933 99.4528 11.8867 98.6128 11.02C97.7861 10.1533 96.7261 9.72 95.4328 9.72C94.1395 9.72 93.0728 10.1533 92.2328 11.02C91.4061 11.8867 90.9928 12.9933 90.9928 14.34C90.9928 15.6867 91.4061 16.7933 92.2328 17.66Z" fill="#218C74"/>
<path d="M107.046 15.0726C106.795 14.639 106.795 14.1041 107.046 13.6705C107.642 12.6395 108.332 11.68 109.099 10.7975C107.825 7.69213 107.948 3.97447 109.483 1.25754C109.986 0.367428 110.964 -0.111432 111.973 0.0395868C114.999 0.490043 117.649 2.23886 119.259 4.79158C120.526 4.51814 121.83 4.37372 123.152 4.37372C124.469 4.37372 125.775 4.51214 127.051 4.78417C128.686 2.19305 131.383 0.439036 134.464 0.0207845C135.386 -0.103231 136.285 0.335023 136.754 1.14032C138.487 4.11709 138.64 7.68673 137.196 10.7857C137.971 11.6782 138.663 12.6407 139.259 13.6705C139.509 14.1041 139.509 14.639 139.259 15.0726C138.396 16.5642 137.338 17.9072 136.132 19.0803C136.707 21.0318 137.053 23.0462 137.171 25.0881C138.135 24.2742 139.184 23.5767 140.295 23.006C140.388 22.9456 140.486 22.8974 140.588 22.861C143.292 21.5395 146.346 20.9546 149.424 21.2408C150.016 21.296 150.509 21.7197 150.653 22.2967C151.399 25.2971 151.28 28.4051 150.38 31.2781C150.359 31.3831 150.326 31.4861 150.281 31.5855C149.61 33.5883 148.556 35.4696 147.146 37.1104C145.716 38.7752 143.94 40.103 141.949 41.0443C141.912 41.0629 141.876 41.0799 141.838 41.0953C139.606 42.1304 137.109 42.6835 134.525 42.6835C133.963 42.6835 133.397 42.6573 132.828 42.6043C132.569 42.5801 132.332 42.4848 132.133 42.3396C129.933 45.372 127.117 47.9237 123.853 49.8116C123.636 49.937 123.394 49.9996 123.152 49.9996C122.898 49.9996 122.645 49.9308 122.422 49.794L121.369 49.1505C121.36 49.1447 121.35 49.1385 121.34 49.1325C113.665 44.1791 109.083 35.7758 109.083 26.6531C109.083 24.0762 109.45 21.5289 110.173 19.0801C108.966 17.9074 107.909 16.5642 107.046 15.0726ZM111.806 2.84974C110.967 4.48914 110.809 6.65901 111.321 8.63345C112.856 7.37049 114.584 6.35937 116.434 5.63948C115.293 4.1893 113.654 3.18618 111.806 2.84974ZM134.5 2.84974C132.654 3.18478 131.019 4.1811 129.878 5.62788C131.744 6.34997 133.47 7.3665 135.027 8.66106C135.63 6.74142 135.451 4.66196 134.5 2.84974ZM136.404 14.3714C135.568 13.0842 134.552 11.9289 133.376 10.9287C131.688 9.49416 129.762 8.45103 127.651 7.82495C127.563 7.81995 127.475 7.80755 127.392 7.78675L127.4 7.75374C126.024 7.3703 124.596 7.17387 123.152 7.17387C117.806 7.17387 112.802 9.91181 109.9 14.3714C112.802 18.8309 117.806 21.5689 123.152 21.5689C128.499 21.5689 133.503 18.8309 136.404 14.3714ZM144.049 36.2943L136.98 30.2193C136.824 31.3737 136.594 32.5152 136.291 33.637L141.51 38.1217C142.43 37.6134 143.284 37.0034 144.049 36.2943ZM148.145 23.9722C146.631 23.9412 145.135 24.1638 143.715 24.614L148.175 28.4467C148.405 26.9769 148.401 25.4655 148.145 23.9722ZM147.355 31.4345L140.886 25.8752C139.994 26.3997 139.16 27.0273 138.4 27.7474L145.879 34.1746C146.476 33.3145 146.971 32.3952 147.355 31.4345ZM134.527 39.8835C135.933 39.8835 137.304 39.6861 138.603 39.3157L135.341 36.5121C134.997 37.3792 134.607 38.2275 134.173 39.0544L134.246 39.8809C134.34 39.8825 134.434 39.8835 134.527 39.8835ZM111.884 26.6535C111.884 34.8153 115.981 42.3346 122.845 46.7708L123.158 46.9622C124.501 46.1227 125.752 45.1536 126.897 44.0746C123.788 42.1856 121.307 39.4869 119.666 36.1755C118.838 34.5071 118.258 32.7396 117.94 30.9222C117.806 30.1603 118.316 29.4348 119.077 29.3014C119.839 29.1684 120.565 29.6779 120.698 30.4392C120.97 31.9921 121.467 33.5035 122.175 34.9313C123.667 37.9423 125.97 40.3606 128.868 41.9832C129.835 40.8246 130.695 39.5731 131.432 38.2431C133.387 34.7181 134.42 30.7104 134.42 26.6533C134.42 24.7507 134.194 22.8676 133.754 21.0372C130.684 23.1665 126.994 24.3692 123.152 24.3692C119.31 24.3692 115.62 23.1665 112.55 21.0372C112.11 22.8678 111.884 24.7509 111.884 26.6535Z" fill="#218C74"/>
<path d="M127 15C126.474 15 125.96 14.7889 125.586 14.4143C125.214 14.0429 125 13.5286 125 13C125 12.4743 125.214 11.96 125.586 11.586C125.957 11.2143 126.474 11 127 11C127.526 11 128.043 11.2143 128.414 11.586C128.786 11.9603 129 12.4743 129 13C129 13.5289 128.786 14.0429 128.414 14.4143C128.04 14.7889 127.526 15 127 15Z" fill="#218C74"/>
<path d="M119 15C118.474 15 117.96 14.7889 117.586 14.4143C117.214 14.0429 117 13.5286 117 13C117 12.4743 117.214 11.96 117.586 11.586C117.957 11.2143 118.474 11 119 11C119.526 11 120.043 11.2143 120.414 11.586C120.786 11.9603 121 12.4743 121 13C121 13.5289 120.786 14.0429 120.414 14.4143C120.04 14.7889 119.526 15 119 15Z" fill="#218C74"/>
<path d="M146.12 19H143.52V5.66H145.32L153.44 14.56V5.66H156.04V19H154.24L146.12 10.08V19Z" fill="#218C74"/>
</g>
<defs>
<clipPath id="clip0_265_536">
<rect width="158" height="50" fill="white"/>
</clipPath>
</defs>
</svg>
